<svg width="1667" height="822" viewBox="0 0 1667 822" fill="none" xmlns="http://www.w3.org/2000/svg">
<g id="app">
<path id="baseone" d="M1319.12 820H458.549V822H1319.12V820Z" fill="#3F3D56"/>
<g id="girl">
<path id="efe" d="M627.549 216.8C627.552 222.645 626.305 228.424 623.891 233.747C621.477 239.07 617.951 243.816 613.552 247.664C609.153 251.513 603.981 254.376 598.383 256.061C592.786 257.746 586.893 258.214 581.101 257.433C580.908 257.421 580.716 257.392 580.529 257.347C579.045 257.138 577.574 256.839 576.127 256.451C575.166 256.214 574.228 255.923 573.3 255.599C567.009 253.449 561.334 249.802 556.767 244.972C552.199 240.142 548.874 234.273 547.078 227.872C545.283 221.471 545.072 214.729 546.462 208.228C547.852 201.726 550.802 195.661 555.058 190.553C559.314 185.446 564.748 181.45 570.892 178.91C577.036 176.37 583.705 175.362 590.325 175.974C596.945 176.585 603.318 178.797 608.893 182.419C614.468 186.04 619.078 190.964 622.327 196.764C623.531 198.896 624.535 201.136 625.327 203.453C626.192 205.962 626.806 208.549 627.161 211.179C627.365 212.591 627.488 214.014 627.528 215.441C627.538 215.894 627.549 216.336 627.549 216.8Z" fill="#2F2E41"/>
<path id="handTwo" d="M444.049 407.3L412.049 420.3C412.049 420.3 354.049 403.3 365.049 420.3C376.049 437.3 415.049 431.3 415.049 431.3L464.049 420.3L444.049 407.3Z" fill="#A0616A"/>
<path id="it" d="M613.049 574.3L616.049 628.3C616.049 628.3 616.049 689.3 620.049 711.3C624.049 733.3 631.049 771.3 631.049 771.3L650.049 769.3C650.049 769.3 648.049 726.3 650.049 715.3C652.049 704.3 650.049 635.3 650.049 635.3L653.049 572.3L613.049 574.3Z" fill="#A0616A"/>
<path id="et" d="M695.049 565.3L712.049 623.3C712.049 623.3 723.049 689.3 738.049 719.3L747.049 748.3L772.049 744.3L762.049 703.3L747.049 621.3L736.049 548.3L695.049 565.3Z" fill="#A0616A"/>
<path id="gwg" d="M651.049 756.3C651.049 756.3 636.049 754.3 627.049 761.3C627.049 761.3 630.049 815.3 634.049 816.3C638.049 817.3 665.049 823.3 666.049 816.3C667.049 809.3 658.049 794.3 658.049 794.3L651.049 756.3Z" fill="#2F2E41"/>
<path id="yw" d="M743.049 743.3C743.049 743.3 748.049 758.3 746.049 760.3C744.049 762.3 736.049 785.3 741.049 788.3C746.049 791.3 771.049 803.3 774.049 812.3C777.049 821.3 820.049 822.3 816.049 814.3C812.049 806.3 786.049 783.3 786.049 783.3L772.049 739.3L743.049 743.3Z" fill="#2F2E41"/>
<path id="twv" d="M600.049 262.3C617.17 262.3 631.049 248.421 631.049 231.3C631.049 214.179 617.17 200.3 600.049 200.3C582.928 200.3 569.049 214.179 569.049 231.3C569.049 248.421 582.928 262.3 600.049 262.3Z" fill="#A0616A"/>
<path id="gwg_2" d="M577.549 245.8L562.549 288.8L613.549 296.8C613.549 296.8 604.549 255.8 610.549 245.8C616.549 235.8 577.549 245.8 577.549 245.8Z" fill="#A0616A"/>
<path id="gggh" d="M747.049 534.3C745.219 568.158 691.473 571.871 682.357 572.257C681.987 572.273 681.623 572.162 681.325 571.942C681.027 571.723 680.813 571.408 680.719 571.05L670.241 531.385C670.141 531.003 669.905 530.672 669.577 530.452C669.25 530.232 668.854 530.139 668.463 530.19C668.072 530.24 667.713 530.432 667.453 530.728C667.193 531.024 667.049 531.405 667.049 531.799V571.173C667.048 571.505 666.946 571.829 666.757 572.102C666.567 572.375 666.299 572.584 665.988 572.701C602.95 596.295 577.276 560.31 574.338 555.763C574.149 555.469 574.061 555.121 574.088 554.772L584.709 410.91L585.049 406.3C584.809 406.18 584.569 406.05 584.319 405.9C563.915 394.068 535.462 310.539 531.511 298.695C531.384 298.313 531.404 297.897 531.567 297.529C531.73 297.16 532.024 296.866 532.393 296.703L557.625 285.488C557.902 285.365 558.139 285.167 558.309 284.916L567.74 271.011C567.881 270.802 568.069 270.628 568.289 270.505C568.509 270.381 568.755 270.311 569.007 270.299C569.259 270.287 569.51 270.335 569.741 270.438C569.971 270.54 570.174 270.696 570.334 270.891C573.722 275.02 581.783 282.363 584.291 284.621C584.518 284.825 584.799 284.961 585.1 285.012C585.401 285.063 585.71 285.028 585.992 284.91L609.464 275.209C609.685 275.117 609.923 275.076 610.162 275.087L641.503 276.599C645.689 276.801 649.695 278.365 652.91 281.054C656.125 283.742 658.374 287.408 659.313 291.493L678.995 377.063C679.029 377.218 679.087 377.366 679.167 377.504C679.303 377.74 679.557 378.177 679.919 378.8C680.869 380.44 682.559 383.4 684.799 387.39C701.509 417.05 748.699 503.83 747.049 534.3Z" fill="#2F2E41"/>
<path id="grg" d="M540.549 301.8L532.549 296.8C532.549 296.8 514.549 307.8 514.549 317.8C514.549 327.8 490.549 366.8 490.549 366.8L438.549 407.8L466.549 430.8L559.549 363.8L540.549 301.8Z" fill="#2F2E41"/>
<path id="cee" d="M554.269 194.6C562.156 194.6 568.549 188.207 568.549 180.32C568.549 172.433 562.156 166.04 554.269 166.04C546.383 166.04 539.989 172.433 539.989 180.32C539.989 188.207 546.383 194.6 554.269 194.6Z" fill="#2F2E41"/>
<path id="vq3" d="M537.269 178.28C537.27 174.729 538.594 171.305 540.983 168.677C543.371 166.05 546.654 164.406 550.189 164.069C549.741 164.026 549.288 164 548.829 164C545.042 164 541.41 165.505 538.732 168.183C536.054 170.861 534.549 174.493 534.549 178.28C534.549 182.067 536.054 185.699 538.732 188.377C541.41 191.056 545.042 192.56 548.829 192.56C549.288 192.56 549.741 192.534 550.189 192.491C546.654 192.153 543.371 190.51 540.983 187.883C538.594 185.255 537.27 181.831 537.269 178.28Z" fill="#2F2E41"/>
<path id="bw" d="M619.922 214.45L625.85 216.606C627.687 215.453 631.784 213.173 631.942 213.083C631.569 210.293 627.135 196.204 625.881 193.99C617.781 191.143 609.545 188.556 601.05 187.415C591.311 186.094 581.099 186.749 572.174 190.883C563.261 195.007 555.827 202.949 553.783 212.551C552.777 217.251 552.958 222.459 550.133 226.345C549.567 227.12 548.902 227.819 548.156 228.424C551.124 236.859 556.41 244.287 563.408 249.854C567.469 253.092 572.038 255.634 576.93 257.378L577.608 257.615C577.608 257.57 577.597 257.514 577.597 257.469C577.563 257.141 577.54 256.813 577.506 256.486C577.337 254.599 577.156 252.735 576.987 250.849C576.795 248.634 576.603 246.33 577.416 244.262C578.241 242.195 580.398 240.478 582.567 240.941C584.748 241.404 585.855 244.737 584.013 245.979C586.341 247.821 589.877 247.256 592.283 245.539C594.701 243.81 596.282 241.201 597.932 238.738C604.5 228.904 614.05 224.408 623.901 217.861L619.922 214.45Z" fill="#2F2E41"/>
<path id="hwr" d="M584.709 410.91L585.049 406.3C584.809 406.18 584.569 406.05 584.319 405.9C604.909 400.82 660.659 386.76 679.919 378.8C680.869 380.44 682.559 383.4 684.799 387.39C660.549 392.75 605.499 405.08 584.709 410.91Z" fill="#CFCCE0"/>
<path id="gg" d="M594.204 454.162L363.667 428.156L351 540.444L581.538 566.45L594.204 454.162Z" fill="#3F3D56"/>
<g id="twoLeaf">
<path id="Vector" d="M462.789 514.729C466.308 537.718 485.42 553.866 485.42 553.866C485.42 553.866 498.828 532.741 495.309 509.752C491.791 486.762 472.679 470.614 472.679 470.614C472.679 470.614 459.271 491.739 462.789 514.729Z" fill="white"/>
<path id="Vector_2" d="M472.198 510.935C486.939 528.923 486.166 553.932 486.166 553.932C486.166 553.932 461.493 549.776 446.752 531.787C432.01 513.799 432.783 488.79 432.783 488.79C432.783 488.79 457.456 492.946 472.198 510.935Z" fill="#F2A194"/>
</g>
<path id="heh" opacity="0.1" d="M634.549 328.8L646.549 373.8L624.549 407.8L634.549 373.8V328.8Z" fill="black"/>
<g id="collar">
<path id="Vector_3" d="M568.549 266.8C568.549 266.8 557.549 282.8 559.549 284.8C561.549 286.8 584.549 290.8 584.549 290.8V284.8L568.549 266.8Z" fill="#CFCCE0"/>
<path id="Vector_4" d="M609.549 266.8C609.549 266.8 620.549 282.8 618.549 284.8C616.549 286.8 584.549 290.8 584.549 290.8V284.8L609.549 266.8Z" fill="#CFCCE0"/>
</g>
<path id="vff" d="M666.549 527.8C669.863 527.8 672.549 525.114 672.549 521.8C672.549 518.486 669.863 515.8 666.549 515.8C663.236 515.8 660.549 518.486 660.549 521.8C660.549 525.114 663.236 527.8 666.549 527.8Z" fill="#CFCCE0"/>
<path id="tvw" d="M659.549 504.8C662.863 504.8 665.549 502.114 665.549 498.8C665.549 495.486 662.863 492.8 659.549 492.8C656.236 492.8 653.549 495.486 653.549 498.8C653.549 502.114 656.236 504.8 659.549 504.8Z" fill="#CFCCE0"/>
<path id="cfw" d="M653.549 481.8C656.863 481.8 659.549 479.114 659.549 475.8C659.549 472.486 656.863 469.8 653.549 469.8C650.236 469.8 647.549 472.486 647.549 475.8C647.549 479.114 650.236 481.8 653.549 481.8Z" fill="#CFCCE0"/>
<path id="dfe" d="M647.549 457.8C650.863 457.8 653.549 455.114 653.549 451.8C653.549 448.486 650.863 445.8 647.549 445.8C644.236 445.8 641.549 448.486 641.549 451.8C641.549 455.114 644.236 457.8 647.549 457.8Z" fill="#CFCCE0"/>
<path id="fdf" d="M639.549 434.8C642.863 434.8 645.549 432.114 645.549 428.8C645.549 425.486 642.863 422.8 639.549 422.8C636.236 422.8 633.549 425.486 633.549 428.8C633.549 432.114 636.236 434.8 639.549 434.8Z" fill="#CFCCE0"/>
<path id="hand" d="M634.049 410.3L601.049 438.3C601.049 438.3 565.049 469.3 581.049 477.3C597.049 485.3 616.049 445.3 616.049 445.3L660.049 413.3L634.049 410.3Z" fill="#A0616A"/>
<path id="sds" d="M645.049 280.3C648.456 279.36 652.067 279.472 655.408 280.621C658.75 281.769 661.667 283.901 663.776 286.737C666.305 289.979 668.413 293.528 670.049 297.3C673.049 305.3 679.049 422.3 679.049 422.3L624.049 414.3L645.049 373.3V280.3Z" fill="#2F2E41"/>
</g>
<g id="mobile">
<g id="mobile_2">
<path id="ervh" d="M817.254 462.473H815.254V514.062H817.254V462.473Z" fill="#3F3D56"/>
<path id="sq" d="M1143.22 820.592H863.029C850.361 820.576 838.217 815.535 829.26 806.576C820.304 797.617 815.267 785.472 815.254 772.804V605.314H817.254V772.804C817.266 784.941 822.092 796.579 830.674 805.163C839.255 813.747 850.891 818.576 863.029 818.592H1143.22C1155.36 818.578 1167 813.75 1175.58 805.166C1184.17 796.582 1188.99 784.943 1189.01 772.804V602.917H1191.01V772.804C1190.99 785.474 1185.95 797.62 1177 806.579C1168.04 815.538 1155.89 820.578 1143.22 820.592V820.592Z" fill="#3F3D56"/>
<path id="wety" d="M1191.01 462.614H1189.01V512.999H1191.01V462.614Z" fill="#3F3D56"/>
<path id="klo" d="M1191.01 372.473H1189.01V323.385H1192.14C1192.67 323.385 1193.18 323.174 1193.56 322.798C1193.93 322.423 1194.14 321.914 1194.15 321.384V235.304C1194.14 234.774 1193.93 234.265 1193.56 233.89C1193.18 233.515 1192.67 233.304 1192.14 233.303H1189.01V106.775C1188.99 94.6371 1184.16 83.001 1175.58 74.4195C1167 65.838 1155.36 61.0119 1143.22 61H863.029C850.893 61.0138 839.258 65.8409 830.676 74.4224C822.095 83.0039 817.268 94.6389 817.254 106.775V372.331H815.254V106.775C815.269 94.1087 820.307 81.9653 829.263 73.0089C838.219 64.0524 850.363 59.0144 863.029 59H1143.22C1155.89 59.0125 1168.03 64.0496 1176.99 73.006C1185.95 81.9624 1190.99 94.1068 1191.01 106.775V231.303H1192.14C1193.2 231.304 1194.22 231.726 1194.97 232.476C1195.72 233.227 1196.14 234.243 1196.15 235.304V321.384C1196.14 322.445 1195.72 323.462 1194.97 324.212C1194.22 324.962 1193.2 325.384 1192.14 325.385H1191.01V372.473Z" fill="#3F3D56"/>
<path id="mhy" d="M1017.41 83.9927H970.305C968.901 83.9927 967.763 85.1307 967.763 86.5346V92.0488C967.763 93.4526 968.901 94.5906 970.305 94.5906H1017.41C1018.82 94.5906 1019.95 93.4526 1019.95 92.0488V86.5346C1019.95 85.1307 1018.82 83.9927 1017.41 83.9927Z" fill="white"/>
<path id="vrty" d="M1033.86 95.303C1037.18 95.303 1039.87 92.6116 1039.87 89.2917C1039.87 85.9718 1037.18 83.2805 1033.86 83.2805C1030.54 83.2805 1027.85 85.9718 1027.85 89.2917C1027.85 92.6116 1030.54 95.303 1033.86 95.303Z" fill="white"/>
<path id="cwr" d="M1167.6 116.027V776.682C1167.6 784.553 1164.47 792.1 1158.9 797.664C1153.34 803.228 1145.79 806.354 1137.92 806.354H869.706C865.807 806.361 861.945 805.598 858.341 804.109C854.738 802.621 851.463 800.436 848.705 797.679C845.948 794.923 843.761 791.649 842.271 788.046C840.781 784.443 840.016 780.581 840.022 776.682V116.027C840.021 112.129 840.789 108.269 842.281 104.667C843.773 101.066 845.959 97.7932 848.716 95.0367C851.472 92.2802 854.745 90.0936 858.346 88.6018C861.948 87.1101 865.808 86.3424 869.706 86.3425H909.85V91.4931C909.85 97.9757 912.425 104.193 917.009 108.777C921.593 113.36 927.81 115.936 934.292 115.936H1070.7C1077.18 115.936 1083.4 113.36 1087.98 108.777C1092.57 104.193 1095.14 97.9757 1095.14 91.4931V86.3425H1137.92C1141.82 86.3413 1145.68 87.1082 1149.28 88.5996C1152.88 90.0909 1156.15 92.2774 1158.91 95.0342C1161.67 97.7909 1163.85 101.064 1165.35 104.666C1166.84 108.268 1167.6 112.129 1167.6 116.027Z" fill="white"/>
<path id="vce" opacity="0.2" d="M1118.93 643H886.929V756H1118.93V643Z" fill="black"/>
<path id="bux" d="M1207.62 463.635H800V371.32H1207.62V463.635ZM802.398 461.237H1205.23V373.718H802.398V461.237Z" fill="#3F3D56"/>
<g id="mobileUpBox">
<path id="Vector_5" d="M877.928 402.491H832.37V448.049H877.928V402.491Z" fill="#F2A194"/>
<path id="Vector_6" d="M871.934 442.054H823.978V394.099H871.934V442.054ZM826.376 439.657H869.536V396.496H826.376V439.657Z" fill="#3F3D56"/>
</g>
<path id="brh" d="M1160.87 403.69H947.464V406.088H1160.87V403.69Z" fill="#3F3D56"/>
<path id="vbr" d="M1160.87 420.475H947.464V422.872H1160.87V420.475Z" fill="#3F3D56"/>
<path id="tbv" d="M1160.87 437.259H947.464V439.657H1160.87V437.259Z" fill="#3F3D56"/>
<path id="rty" d="M1207.62 605.315H800V513H1207.62V605.315ZM802.398 602.917H1205.23V515.397H802.398V602.917Z" fill="#3F3D56"/>
<g id="mobileDownBox">
<path id="Vector_7" d="M1129.7 589.729H1175.25V544.171H1129.7V589.729Z" fill="#F2A194"/>
<path id="Vector_8" d="M1183.65 583.734H1135.69V535.778H1183.65V583.734ZM1138.09 581.336H1181.25V538.176H1138.09L1138.09 581.336Z" fill="#3F3D56"/>
</g>
<path id="tbr" d="M1060.16 545.37H846.757V547.767H1060.16V545.37Z" fill="#3F3D56"/>
<path id="kum" d="M1060.16 562.154H846.757V564.552H1060.16V562.154Z" fill="#3F3D56"/>
<path id="yn" d="M1060.16 578.939H846.757V581.337H1060.16V578.939Z" fill="#3F3D56"/>
<path id="ki" d="M1110.06 224.08H896.66V226.477H1110.06V224.08Z" fill="#3F3D56"/>
<path id="yh" d="M1110.06 240.864H896.66V243.262H1110.06V240.864Z" fill="#3F3D56"/>
<path id="ef" d="M1110.06 257.649H896.66V260.046H1110.06V257.649Z" fill="#3F3D56"/>
</g>
</g>
<g id="ri">
<g id="orangeRight">
<path id="Vector_9" d="M1358 126H1466V18H1358V126Z" fill="#FF7053"/>
</g>
<g id="redRight">
<path id="Vector_10" d="M1253 234H1361V126H1253V234Z" fill="#FF4852"/>
</g>
<g id="blankRight">
<path id="Vector_11" d="M1290 56H1432V198H1290V56ZM1430 58H1292V196H1430V58Z" fill="#3F3D56"/>
</g>
<g id="rightLine">
<line id="Line 16" x1="1391" y1="1" x2="1575" y2="1" stroke="black" stroke-width="2"/>
<line id="Line 17" x1="1483" y1="71" x2="1667" y2="71" stroke="black" stroke-width="2"/>
<line id="Line 18" x1="1446" y1="153" x2="1630" y2="153" stroke="black" stroke-width="2"/>
<line id="Line 19" x1="1383" y1="221" x2="1567" y2="221" stroke="black" stroke-width="2"/>
</g>
</g>
<g id="le">
<g id="orangeLeft">
<path id="Vector_12" d="M309 683H201V575H309V683Z" fill="#FF7053"/>
</g>
<g id="redLeft">
<path id="Vector_13" d="M414 791H306V683H414V791Z" fill="#FF4852"/>
</g>
<g id="blankleft">
<path id="Vector_14" d="M377 613H235V755H377V613ZM237 615H375V753H237V615Z" fill="#3F3D56"/>
</g>
<g id="leftLine">
<line id="Line 20" y1="-1" x2="184" y2="-1" transform="matrix(-1 0 0 1 276 559)" stroke="black" stroke-width="2"/>
<line id="Line 21" y1="-1" x2="184" y2="-1" transform="matrix(-1 0 0 1 184 629)" stroke="black" stroke-width="2"/>
<line id="Line 22" y1="-1" x2="184" y2="-1" transform="matrix(-1 0 0 1 221 711)" stroke="black" stroke-width="2"/>
<line id="Line 23" y1="-1" x2="184" y2="-1" transform="matrix(-1 0 0 1 284 779)" stroke="black" stroke-width="2"/>
</g>
</g>
</g>
</svg>
