<svg width="1064" height="742" viewBox="0 0 1064 742" fill="none" xmlns="http://www.w3.org/2000/svg">
<g id="beautifulUi">
<g id="undraw_composition_oskp 1">
<path id="Vector" d="M698 740.999C723.405 740.999 744 720.404 744 694.999C744 669.594 723.405 648.999 698 648.999C672.595 648.999 652 669.594 652 694.999C652 720.404 672.595 740.999 698 740.999Z" fill="#3F3D56"/>
<path id="Vector_2" d="M698.192 708.847L675.172 685.827C674.421 685.077 674 684.06 674 682.999C674 681.938 674.421 680.92 675.172 680.17C675.922 679.42 676.939 678.999 678 678.999C679.061 678.999 680.079 679.42 680.829 680.17L697.809 697.15L751.993 635.362C752.339 634.967 752.76 634.644 753.231 634.412C753.702 634.179 754.214 634.042 754.739 634.008C755.263 633.973 755.788 634.042 756.286 634.211C756.783 634.38 757.243 634.645 757.638 634.992C758.032 635.338 758.355 635.759 758.588 636.23C758.82 636.701 758.957 637.213 758.992 637.737C759.026 638.261 758.957 638.787 758.788 639.285C758.619 639.782 758.354 640.241 758.008 640.636L698.192 708.847Z" fill="#F2A194"/>
<path id="Vector_3" d="M742 31.4805H254V611.52H742V31.4805Z" fill="#3F3D56"/>
<path id="Vector_4" d="M469.967 159.494H587.995V341.011H441.896V187.565C441.896 183.878 442.623 180.228 444.033 176.823C445.444 173.417 447.512 170.322 450.118 167.716C452.725 165.109 455.819 163.042 459.225 161.631C462.631 160.22 466.281 159.494 469.967 159.494V159.494Z" fill="#2F2E41"/>
<path id="Vector_5" d="M452.609 296.383C452.609 296.383 425.382 294.682 406.663 311.699C387.944 328.716 382.839 335.523 382.839 335.523C382.839 335.523 285.841 393.381 321.577 413.802C357.313 434.222 401.558 459.748 401.558 459.748C401.558 459.748 401.558 510.8 420.277 509.098C438.996 507.396 421.978 449.538 421.978 449.538L357.313 400.188L421.978 362.75L444.101 384.873C444.101 384.873 462.82 316.804 452.609 296.383Z" fill="#FFB8B8"/>
<path id="Vector_6" d="M615.187 611.52H322.567C340.027 541.11 376.927 500.78 403.077 480.02C410.197 474.314 417.773 469.2 425.727 464.73C429.817 462.46 432.187 461.45 432.187 461.45L433.767 451.96L435.587 441.03L553.007 468.26L552.127 477.9L551.307 486.98L615.187 611.52Z" fill="#2F2E41"/>
<path id="Vector_7" d="M592.15 332.119C592.15 332.119 624.483 342.329 621.079 371.259C617.676 400.188 609.167 502.291 609.167 502.291L656.816 606.096C656.816 606.096 706.165 663.954 677.236 674.165C648.307 684.375 632.991 609.499 632.991 609.499L568.326 514.203L573.431 412.1L578.536 355.943L592.15 332.119Z" fill="#FFB8B8"/>
<path id="Vector_8" d="M522.38 264.05C550.575 264.05 573.431 241.194 573.431 212.999C573.431 184.804 550.575 161.947 522.38 161.947C494.185 161.947 471.328 184.804 471.328 212.999C471.328 241.194 494.185 264.05 522.38 264.05Z" fill="#FFB8B8"/>
<path id="Vector_9" d="M498.556 243.63C498.556 243.63 522.38 287.875 462.82 298.085L456.013 332.119L512.169 432.521L578.536 374.662L592.15 335.523C592.15 335.523 525.783 304.892 549.607 243.63H498.556Z" fill="#FFB8B8"/>
<path id="Vector_10" d="M517.275 395.083L474.732 337.225L462.82 291.278H442.399L449.206 342.33L439.565 357.48C435.094 364.506 432.13 372.383 430.861 380.613C429.591 388.843 430.043 397.247 432.189 405.293V405.293L430.487 451.24L554.713 478.467L573.432 447.836C573.432 447.836 574.094 447.364 575.173 446.458C582.466 440.278 587.626 431.956 589.917 422.675C592.209 413.394 591.517 403.627 587.938 394.762L581.94 379.768L604.063 330.418L583.642 323.611L566.625 367.856L517.275 395.083Z" fill="#6C63FF"/>
<path id="Vector_11" d="M526.014 129.041C526.014 129.041 468.46 125.473 455.178 161.262C441.896 197.052 418.653 215.842 418.653 215.842C418.653 215.842 382.04 241.292 400.347 286.725C400.347 286.725 343.39 325 381.022 359.001C381.022 359.001 378.808 393.001 400.944 416.264C400.944 416.264 418.653 425.211 412.012 430.58C405.372 435.948 456.285 432.369 451.858 384.053C447.43 335.737 477.314 301.703 477.314 301.703C477.314 301.703 448.537 239.059 461.819 217.585C469.883 204.548 473.346 194.825 480.04 189.198C483.768 186.139 487.225 182.765 490.374 179.113C494.496 174.215 502.841 167.544 516.052 171.105C535.975 176.473 540.402 192.578 540.402 192.578C540.402 192.578 554.791 231.052 579.141 248.947C603.49 266.842 560.325 298.158 560.325 298.158C560.325 298.158 567.828 335.028 587.319 356.856C606.811 378.685 581.702 397.712 580.247 400.159C576.927 405.743 563.666 441.004 618.443 441.161C618.443 441.161 631.16 414.475 648.869 398.369C666.578 382.264 653.297 335.737 653.297 335.737C653.297 335.737 679.86 319.632 651.083 280.263C651.083 280.263 659.937 244.474 635.588 221.21C635.588 221.21 601.277 116.514 526.014 129.041Z" fill="#2F2E41"/>
<path id="Vector_12" d="M470.301 223.856C473.672 223.856 476.405 219.483 476.405 214.09C476.405 208.696 473.672 204.323 470.301 204.323C466.93 204.323 464.197 208.696 464.197 214.09C464.197 219.483 466.93 223.856 470.301 223.856Z" fill="#FFB8B8"/>
<path id="Vector_13" d="M266 31H1V612H266V31Z" fill="#E7D0CD"/>
<path id="Vector_14" d="M999 31H734V612H999V31Z" fill="#E7D0CD"/>
<path id="Vector_15" d="M780 740H617V742H780V740Z" fill="#3F3D56"/>
<path id="Vector_16" d="M879.429 355.661C857.663 356.128 840.349 371.901 840.349 371.901C840.349 371.901 858.324 386.917 880.089 386.45C901.855 385.984 919.17 370.21 919.17 370.21C919.17 370.21 901.195 355.194 879.429 355.661Z" fill="#F2A194"/>
<path id="Vector_17" d="M988.856 281.362C969.191 290.705 946.643 284.369 946.643 284.369C946.643 284.369 955.976 262.888 975.641 253.545C995.305 244.203 1017.85 250.538 1017.85 250.538C1017.85 250.538 1008.52 272.02 988.856 281.362Z" fill="#F2A194"/>
<path id="Vector_18" d="M986.857 272.079C965.176 270.098 946.199 283.826 946.199 283.826C946.199 283.826 962.373 300.767 984.054 302.748C1005.73 304.729 1024.71 291.001 1024.71 291.001C1024.71 291.001 1008.54 274.061 986.857 272.079Z" fill="#3F3D56"/>
<path id="Vector_19" d="M907.383 275.832C909.461 297.504 895.818 316.542 895.818 316.542C895.818 316.542 878.805 300.443 876.727 278.772C874.649 257.1 888.292 238.062 888.292 238.062C888.292 238.062 905.305 254.161 907.383 275.832Z" fill="#3F3D56"/>
<path id="Vector_20" d="M805.279 408.743C816.65 427.308 812.738 450.4 812.738 450.4C812.738 450.4 790.389 443.394 779.017 424.829C767.646 406.264 771.558 383.171 771.558 383.171C771.558 383.171 793.907 390.178 805.279 408.743Z" fill="#3F3D56"/>
<path id="Vector_21" d="M838.27 610.591L836.612 609.471C842.454 600.994 845.643 590.972 845.775 580.678C845.729 565.621 838.333 551.693 831.18 538.225C829.853 535.725 828.529 533.232 827.256 530.742C821.913 520.587 817.655 509.897 814.552 498.85C803.458 457.62 814.381 408.976 843.772 368.728C867.087 336.799 901.843 308.879 950.025 283.372L950.961 285.14C903.053 310.501 868.52 338.229 845.387 369.907C816.35 409.671 805.545 457.68 816.484 498.33C819.55 509.242 823.758 519.801 829.037 529.832C830.306 532.313 831.624 534.795 832.947 537.287C840.213 550.97 847.728 565.12 847.775 580.672C847.643 591.367 844.334 601.781 838.27 610.591V610.591Z" fill="#3F3D56"/>
<path id="Vector_22" d="M1045 286C1055.49 286 1064 277.493 1064 267C1064 256.507 1055.49 248 1045 248C1034.51 248 1026 256.507 1026 267C1026 277.493 1034.51 286 1045 286Z" fill="#3F3D56"/>
<path id="Vector_23" d="M1000 32H0V0H1000V32ZM2 30H998V2H2V30Z" fill="#E7D0CD"/>
<path id="Vector_24" d="M22 26C20.0222 26 18.0888 25.4135 16.4443 24.3147C14.7998 23.2159 13.5181 21.6541 12.7612 19.8268C12.0043 17.9996 11.8063 15.9889 12.1922 14.0491C12.578 12.1093 13.5304 10.3275 14.9289 8.92894C16.3275 7.53041 18.1093 6.578 20.0491 6.19215C21.9889 5.8063 23.9996 6.00434 25.8268 6.76121C27.6541 7.51809 29.2159 8.79981 30.3147 10.4443C31.4135 12.0888 32 14.0222 32 16C31.9971 18.6513 30.9425 21.1931 29.0678 23.0678C27.1931 24.9425 24.6513 25.9971 22 26V26ZM22 8C20.4178 8 18.871 8.4692 17.5554 9.34825C16.2398 10.2273 15.2145 11.4767 14.609 12.9385C14.0035 14.4003 13.845 16.0089 14.1537 17.5607C14.4624 19.1126 15.2243 20.538 16.3432 21.6569C17.462 22.7757 18.8874 23.5376 20.4393 23.8463C21.9911 24.155 23.5997 23.9965 25.0615 23.391C26.5233 22.7855 27.7727 21.7602 28.6518 20.4446C29.5308 19.129 30 17.5823 30 16C29.9976 13.879 29.1539 11.8456 27.6542 10.3458C26.1544 8.84606 24.121 8.00243 22 8V8Z" fill="#3F3D56"/>
<path id="Vector_25" d="M49 26C47.0222 26 45.0888 25.4135 43.4443 24.3147C41.7998 23.2159 40.5181 21.6541 39.7612 19.8268C39.0043 17.9996 38.8063 15.9889 39.1922 14.0491C39.578 12.1093 40.5304 10.3275 41.9289 8.92894C43.3275 7.53041 45.1093 6.578 47.0491 6.19215C48.9889 5.8063 50.9996 6.00434 52.8268 6.76121C54.6541 7.51809 56.2159 8.79981 57.3147 10.4443C58.4135 12.0888 59 14.0222 59 16C58.9971 18.6513 57.9425 21.1931 56.0678 23.0678C54.1931 24.9425 51.6513 25.9971 49 26V26ZM49 8C47.4178 8 45.871 8.4692 44.5554 9.34825C43.2398 10.2273 42.2145 11.4767 41.609 12.9385C41.0035 14.4003 40.845 16.0089 41.1537 17.5607C41.4624 19.1126 42.2243 20.538 43.3432 21.6569C44.462 22.7757 45.8874 23.5376 47.4393 23.8463C48.9911 24.155 50.5997 23.9965 52.0615 23.391C53.5233 22.7855 54.7727 21.7602 55.6518 20.4446C56.5308 19.129 57 17.5823 57 16C56.9976 13.879 56.1539 11.8456 54.6542 10.3458C53.1544 8.84606 51.121 8.00243 49 8V8Z" fill="#3F3D56"/>
<path id="Vector_26" d="M76 26C74.0222 26 72.0888 25.4135 70.4443 24.3147C68.7998 23.2159 67.5181 21.6541 66.7612 19.8268C66.0043 17.9996 65.8063 15.9889 66.1922 14.0491C66.578 12.1093 67.5304 10.3275 68.9289 8.92894C70.3275 7.53041 72.1093 6.578 74.0491 6.19215C75.9889 5.8063 77.9996 6.00434 79.8268 6.76121C81.6541 7.51809 83.2159 8.79981 84.3147 10.4443C85.4135 12.0888 86 14.0222 86 16C85.9971 18.6513 84.9425 21.1931 83.0678 23.0678C81.1931 24.9425 78.6513 25.9971 76 26V26ZM76 8C74.4178 8 72.871 8.4692 71.5554 9.34825C70.2398 10.2273 69.2145 11.4767 68.609 12.9385C68.0035 14.4003 67.845 16.0089 68.1537 17.5607C68.4624 19.1126 69.2243 20.538 70.3431 21.6569C71.462 22.7757 72.8874 23.5376 74.4393 23.8463C75.9911 24.155 77.5997 23.9965 79.0615 23.391C80.5233 22.7855 81.7727 21.7602 82.6518 20.4446C83.5308 19.129 84 17.5823 84 16C83.9976 13.879 83.1539 11.8456 81.6542 10.3458C80.1544 8.84606 78.121 8.00243 76 8V8Z" fill="#3F3D56"/>
<path id="Vector_27" d="M238 444H13.5V485H238V444Z" fill="#F2A194"/>
<path id="Vector_28" d="M254.5 486H12.5V431H254.5V486ZM14.5 484H252.5V433H14.5V484Z" fill="#3F3D56"/>
<path id="Vector_29" d="M159.359 155.194C153.674 176.209 134.201 189.225 134.201 189.225C134.201 189.225 123.946 168.167 129.631 147.152C135.316 126.136 154.789 113.121 154.789 113.121C154.789 113.121 165.044 134.178 159.359 155.194Z" fill="#F2A194"/>
<path id="Vector_30" d="M107.641 155.194C113.326 176.209 132.798 189.225 132.798 189.225C132.798 189.225 143.054 168.167 137.369 147.152C131.684 126.136 112.211 113.121 112.211 113.121C112.211 113.121 101.956 134.178 107.641 155.194Z" fill="#F2A194"/>
<path id="Vector_31" d="M115.995 150.677C131.595 165.863 133.5 189.207 133.5 189.207C133.5 189.207 110.113 187.93 94.5131 172.744C78.9131 157.558 77.0078 134.214 77.0078 134.214C77.0078 134.214 100.395 135.491 115.995 150.677Z" fill="#3F3D56"/>
<path id="Vector_32" d="M151.005 150.677C135.405 165.863 133.5 189.207 133.5 189.207C133.5 189.207 156.887 187.93 172.487 172.744C188.087 157.558 189.992 134.214 189.992 134.214C189.992 134.214 166.605 135.491 151.005 150.677Z" fill="#3F3D56"/>
<path id="Vector_33" d="M217.5 76.5H49.5V86.5H217.5V76.5Z" fill="#3F3D56"/>
<path id="Vector_34" d="M217.5 226.5H49.5V236.5H217.5V226.5Z" fill="#3F3D56"/>
<path id="Vector_35" d="M217.5 248.5H49.5V258.5H217.5V248.5Z" fill="#3F3D56"/>
<path id="Vector_36" d="M217.5 270.5H49.5V280.5H217.5V270.5Z" fill="#3F3D56"/>
<path id="Vector_37" d="M950.5 76.5H782.5V86.5H950.5V76.5Z" fill="#3F3D56"/>
<path id="Vector_38" d="M950.5 98.5H782.5V108.5H950.5V98.5Z" fill="#3F3D56"/>
<path id="Vector_39" d="M950.5 120.5H782.5V130.5H950.5V120.5Z" fill="#3F3D56"/>
</g>
</g>
</svg>
