<svg width="888" height="652" viewBox="0 0 888 652" fill="none" xmlns="http://www.w3.org/2000/svg">
<g id="component">
<g id="Group 21">
<path id="Vector" d="M96.6795 651.8C149.891 651.8 193.028 642.842 193.028 631.793C193.028 620.743 149.891 611.786 96.6795 611.786C43.4677 611.786 0.331055 620.743 0.331055 631.793C0.331055 642.842 43.4677 651.8 96.6795 651.8Z" fill="#E6E6E6"/>
<path id="Vector_2" d="M55.0791 174.764C73.4236 174.764 88.2949 160.834 88.2949 143.651C88.2949 126.467 73.4236 112.537 55.0791 112.537C36.7345 112.537 21.8633 126.467 21.8633 143.651C21.8633 160.834 36.7345 174.764 55.0791 174.764Z" fill="#2F2E41"/>
<path id="Vector_3" d="M151.784 337.479L160.193 349.252C160.193 349.252 200.556 357.661 185.42 370.275C170.284 382.888 148.42 358.502 148.42 358.502L136.647 343.366L151.784 337.479Z" fill="#FFB8B8"/>
<path id="Vector_4" d="M108.057 203.775C108.057 203.775 118.988 203.775 121.511 218.912C124.034 234.048 126.557 284.502 126.557 284.502C126.557 284.502 161.875 330.752 155.988 336.639C150.102 342.525 143.375 353.457 139.17 351.775C134.966 350.093 98.8066 300.48 98.8066 300.48L108.057 203.775Z" fill="#E6E6E6"/>
<path id="Vector_5" d="M74.4202 160.889C74.4202 160.889 75.2611 193.685 85.352 195.366C95.4429 197.048 92.0793 207.98 92.0793 207.98C92.0793 207.98 59.2839 227.321 37.4203 207.98L33.2158 197.889C33.2158 197.889 48.3521 186.957 41.6249 171.821L74.4202 160.889Z" fill="#FFB8B8"/>
<path id="Vector_6" d="M130.761 362.707C130.761 362.707 180.375 455.206 161.875 483.797C143.375 512.388 115.625 571.251 111.42 571.251C107.216 571.251 83.6703 559.479 85.3522 551.91C87.034 544.342 112.261 488.002 118.988 482.956C125.716 477.911 122.352 464.456 121.511 463.615C120.67 462.774 92.9203 418.206 92.9203 418.206C92.9203 418.206 93.7612 488.842 90.3976 499.774C87.034 510.706 91.2385 588.91 87.034 592.274C82.8294 595.638 63.4886 601.524 60.125 596.478C56.7613 591.433 46.6705 514.911 53.3977 497.251L40.7842 376.161L130.761 362.707Z" fill="#2F2E41"/>
<path id="Vector_7" d="M85.3518 587.229L106.374 625.91C106.374 625.91 136.647 647.774 115.624 651.137C94.6019 654.501 81.9882 646.092 81.9882 646.092L63.4883 632.637V593.956L85.3518 587.229Z" fill="#2F2E41"/>
<path id="Vector_8" d="M113.942 565.365L103.011 591.433C103.011 591.433 98.8061 602.365 103.011 604.888C107.215 607.411 118.988 622.547 111.42 624.229C109.897 624.527 108.35 624.681 106.799 624.688C100.497 624.794 94.2383 623.624 88.4002 621.248C82.5622 618.873 77.2652 615.34 72.8279 610.864L66.0107 604.047C66.0107 604.047 89.3627 550.272 89.039 550.671C88.7152 551.07 113.942 565.365 113.942 565.365Z" fill="#2F2E41"/>
<path id="Vector_9" d="M53.3975 181.071C69.1877 181.071 81.9883 168.27 81.9883 152.48C81.9883 136.69 69.1877 123.889 53.3975 123.889C37.6072 123.889 24.8066 136.69 24.8066 152.48C24.8066 168.27 37.6072 181.071 53.3975 181.071Z" fill="#FFB8B8"/>
<path id="Vector_10" d="M37.0003 192.423L45.8298 201.253C45.8298 201.253 72.7388 211.344 85.3524 201.253C85.3524 201.253 80.7274 191.582 80.7274 192.423C80.7274 193.264 117.307 198.73 120.67 213.867C124.034 229.003 118.148 255.071 118.148 255.071C118.148 255.071 141.693 366.071 132.443 368.593C123.193 371.116 36.5798 392.139 37.4207 376.161C38.2616 360.184 30.6934 294.594 30.6934 294.594L1.26172 238.253C1.26172 238.253 5.46624 219.753 15.5571 213.867C25.648 207.98 37.0003 192.423 37.0003 192.423Z" fill="#E6E6E6"/>
<path id="Vector_11" d="M74.4202 356.82L85.3519 363.548C85.3519 363.548 127.397 392.138 105.534 397.184C83.6701 402.229 71.0565 377.002 71.0565 377.002L62.6475 366.911L74.4202 356.82Z" fill="#FFB8B8"/>
<path id="Vector_12" opacity="0.1" d="M12.1928 233.207L4.62464 240.775C4.62464 240.775 -0.420792 311.411 9.67008 325.707C19.7609 340.002 66.0108 378.684 68.5335 376.161C71.0562 373.638 87.0334 361.025 83.6698 359.343C80.3062 357.661 35.5844 310.932 35.5844 310.932L39.1018 245.821L12.1928 233.207Z" fill="black"/>
<path id="Vector_13" d="M8.82952 230.685L1.26136 238.253C1.26136 238.253 -3.78408 308.889 6.3068 323.184C16.3977 337.48 62.6475 376.161 65.1702 373.639C67.693 371.116 83.6702 358.502 80.3065 356.82C76.9429 355.139 32.2211 308.41 32.2211 308.41L35.7385 243.298L8.82952 230.685Z" fill="#E6E6E6"/>
<path id="Vector_14" d="M65.2216 111.869C65.2216 111.869 74.9404 108.334 88.1933 115.844L81.1251 117.611C81.1251 117.611 91.7274 118.495 93.0527 132.631H88.1933C88.1933 132.631 91.2856 145.001 88.1933 148.535L86.2054 144.78L80.4624 156.266L79.1372 150.523L76.4866 151.406L74.7195 142.129C74.7195 142.129 70.3019 148.756 66.7678 149.197V143.455C66.7678 143.455 57.049 154.499 53.9567 154.057L58.3743 147.872L52.1896 149.197L54.8402 144.78L38.9368 149.197L42.4709 144.78L31.4268 148.314L26.1257 150.523C26.1257 150.523 18.6157 133.294 29.218 121.366C39.8203 109.439 55.282 106.788 65.2216 111.869Z" fill="#2F2E41"/>
<path id="Vector_15" d="M865.747 68.9912H221.886V481.349H865.747V68.9912Z" fill="#E6E6E6"/>
<path id="Vector_16" d="M847.336 120.711H240.297V456.953H847.336V120.711Z" fill="white"/>
<path id="Vector_17" d="M865.472 68.626H221.61V95.9796H865.472V68.626Z" fill="#F2A194"/>
<path id="Vector_18" d="M241.938 87.6806C244.738 87.6806 247.008 85.4108 247.008 82.6108C247.008 79.8108 244.738 77.541 241.938 77.541C239.138 77.541 236.868 79.8108 236.868 82.6108C236.868 85.4108 239.138 87.6806 241.938 87.6806Z" fill="white"/>
<path id="Vector_19" d="M261.181 87.6806C263.981 87.6806 266.251 85.4108 266.251 82.6108C266.251 79.8108 263.981 77.541 261.181 77.541C258.381 77.541 256.111 79.8108 256.111 82.6108C256.111 85.4108 258.381 87.6806 261.181 87.6806Z" fill="white"/>
<path id="Vector_20" d="M280.424 87.6806C283.224 87.6806 285.494 85.4108 285.494 82.6108C285.494 79.8108 283.224 77.541 280.424 77.541C277.624 77.541 275.354 79.8108 275.354 82.6108C275.354 85.4108 277.624 87.6806 280.424 87.6806Z" fill="white"/>
<path id="Vector_21" d="M451.435 155.599H295.454V422.065H451.435V155.599Z" fill="#E6E6E6"/>
<path id="Vector_22" d="M608.344 155.599H478.36V228.947H608.344V155.599Z" fill="#F2A194"/>
<path id="Vector_23" d="M608.344 249.373H478.36V328.292H608.344V249.373Z" fill="#E6E6E6"/>
<path id="Vector_24" d="M608.344 348.718H478.36V422.066H608.344V348.718Z" fill="#E6E6E6"/>
<path id="Vector_25" d="M792.178 155.599H636.197V271.723H792.178V155.599Z" fill="#E6E6E6"/>
<path id="Vector_26" d="M792.178 305.941H636.197V422.066H792.178V305.941Z" fill="#F2A194"/>
<path id="Vector_27" d="M544.691 188.755L542.655 188.214L587.089 21.0601H844.827V23.1661H588.708L544.691 188.755Z" fill="#3F3D56"/>
<path id="Vector_28" d="M865.887 44.2255C861.514 44.2255 857.238 42.9286 853.602 40.4988C849.966 38.0691 847.131 34.6155 845.458 30.5749C843.784 26.5344 843.346 22.0882 844.199 17.7988C845.053 13.5093 847.159 9.5692 850.251 6.47668C853.344 3.38416 857.284 1.27812 861.573 0.424899C865.863 -0.428326 870.309 0.00958407 874.349 1.68325C878.39 3.35691 881.843 6.19115 884.273 9.82757C886.703 13.464 888 17.7393 888 22.1128C887.993 27.9754 885.661 33.596 881.516 37.7415C877.37 41.887 871.75 44.2188 865.887 44.2255V44.2255ZM865.887 2.10599C861.93 2.10599 858.062 3.27936 854.772 5.47773C851.482 7.67611 848.918 10.8007 847.403 14.4565C845.889 18.1123 845.493 22.135 846.265 26.0159C847.037 29.8968 848.942 33.4617 851.74 36.2597C854.538 39.0577 858.103 40.9632 861.984 41.7351C865.865 42.5071 869.888 42.1109 873.543 40.5966C877.199 39.0824 880.324 36.518 882.522 33.2279C884.721 29.9378 885.894 26.0697 885.894 22.1128C885.888 16.8085 883.778 11.7232 880.027 7.9725C876.277 4.22181 871.191 2.11201 865.887 2.10599V2.10599Z" fill="#3F3D56"/>
<path id="Vector_29" d="M865.887 30.5368C870.539 30.5368 874.311 26.7653 874.311 22.1129C874.311 17.4605 870.539 13.689 865.887 13.689C861.234 13.689 857.463 17.4605 857.463 22.1129C857.463 26.7653 861.234 30.5368 865.887 30.5368Z" fill="#F2A194"/>
<path id="Vector_30" d="M672.947 530.706H415.208V528.6H671.328L715.345 363.01L717.381 363.551L672.947 530.706Z" fill="#3F3D56"/>
<path id="Vector_31" d="M394.149 551.766C389.775 551.766 385.5 550.469 381.864 548.039C378.227 545.609 375.393 542.156 373.719 538.115C372.046 534.074 371.608 529.628 372.461 525.339C373.314 521.049 375.42 517.109 378.513 514.017C381.605 510.924 385.545 508.818 389.835 507.965C394.124 507.112 398.57 507.55 402.611 509.223C406.652 510.897 410.105 513.731 412.535 517.368C414.965 521.004 416.262 525.279 416.262 529.653C416.255 535.515 413.923 541.136 409.778 545.282C405.632 549.427 400.012 551.759 394.149 551.766ZM394.149 509.646C390.192 509.646 386.324 510.819 383.034 513.018C379.744 515.216 377.179 518.341 375.665 521.997C374.151 525.652 373.755 529.675 374.527 533.556C375.299 537.437 377.204 541.002 380.002 543.8C382.8 546.598 386.365 548.503 390.246 549.275C394.127 550.047 398.149 549.651 401.805 548.137C405.461 546.622 408.586 544.058 410.784 540.768C412.982 537.478 414.156 533.61 414.156 529.653C414.15 524.349 412.04 519.263 408.289 515.513C404.538 511.762 399.453 509.652 394.149 509.646V509.646Z" fill="#3F3D56"/>
<path id="Vector_32" d="M394.148 538.077C398.801 538.077 402.572 534.305 402.572 529.653C402.572 525.001 398.801 521.229 394.148 521.229C389.496 521.229 385.725 525.001 385.725 529.653C385.725 534.305 389.496 538.077 394.148 538.077Z" fill="#F2A194"/>
</g>
</g>
</svg>
