<svg width="600" height="411" viewBox="0 0 600 411" fill="none" xmlns="http://www.w3.org/2000/svg">
<g id="design">
<g id="design_2">
<g id="Group 20">
<rect id="Rectangle 1" width="600" height="411" rx="20" fill="#313C4E"/>
<g id="Group 18">
<rect id="Rectangle 2" x="48" y="43" width="187" height="65" rx="5" fill="#5E697A"/>
<g id="Group 12">
<circle id="Ellipse 8" cx="76" cy="68" r="16" fill="#313C4E"/>
<path id="Vector" d="M76.0003 68C78.526 68 80.5717 65.9543 80.5717 63.4285C80.5717 60.9028 78.526 58.8571 76.0003 58.8571C73.4746 58.8571 71.4289 60.9028 71.4289 63.4285C71.4289 65.9543 73.4746 68 76.0003 68ZM76.0003 70.2857C72.9489 70.2857 66.8574 71.8171 66.8574 74.8571V77.1428H85.1431V74.8571C85.1431 71.8171 79.0517 70.2857 76.0003 70.2857Z" fill="#ABB3C0"/>
</g>
<rect id="Rectangle 3" x="107" y="52" width="113" height="17" rx="3" fill="#ABB3C0"/>
<rect id="Rectangle 4" x="107" y="76" width="74" height="7" rx="2" fill="#ABB3C0"/>
</g>
<g id="Group 16">
<rect id="Rectangle 6" x="287" y="346" width="286" height="24" rx="5" fill="#5E697A"/>
<circle id="Ellipse 11" cx="306" cy="358" r="6" fill="#313C4E"/>
<rect id="Rectangle 5" x="321" y="354" width="74" height="7" rx="2" fill="#313C4E"/>
</g>
<g id="Group 15">
<rect id="Rectangle 5_2" x="287" y="311" width="286" height="24" rx="5" fill="#5E697A"/>
<circle id="Ellipse 10" cx="306" cy="323" r="6" fill="#313C4E"/>
<rect id="Rectangle 7" x="321" y="319" width="74" height="7" rx="2" fill="#313C4E"/>
</g>
<g id="Group 14">
<rect id="Rectangle 4_2" x="287" y="276" width="286" height="24" rx="5" fill="#5E697A"/>
<circle id="Ellipse 9" cx="306" cy="288" r="6" fill="#313C4E"/>
<rect id="Rectangle 8" x="321" y="285" width="74" height="7" rx="2" fill="#313C4E"/>
</g>
<g id="Group 17">
<rect id="Rectangle 2_2" x="48" y="136" width="187" height="215" rx="5" fill="#5E697A"/>
<circle id="Ellipse 13" cx="73" cy="238" r="6" fill="#313C4E"/>
<rect id="Rectangle 13" x="67" y="288" width="124" height="7" rx="2" fill="#313C4E"/>
<rect id="Rectangle 14" x="67" y="308" width="124" height="7" rx="2" fill="#313C4E"/>
<rect id="Rectangle 15" x="67" y="328" width="124" height="7" rx="2" fill="#313C4E"/>
<g id="Group 13">
<circle id="Ellipse 12" cx="73" cy="264" r="6" fill="#313C4E"/>
<rect id="Rectangle 11" x="88" y="261" width="48" height="7" rx="2" fill="#313C4E"/>
</g>
<rect id="Rectangle 12" x="88" y="235" width="48" height="7" rx="2" fill="#313C4E"/>
<rect id="Rectangle 9" x="67" y="151" width="124" height="17" rx="2" fill="#313C4E"/>
<rect id="Rectangle 10" x="67" y="175" width="124" height="43" rx="3" fill="#ABB3C0"/>
</g>
<g id="Group 19">
<rect id="Rectangle 3_2" x="287" y="43" width="286" height="215" rx="5" fill="#5E697A"/>
<rect id="Rectangle 18" x="306" y="218" width="245" height="7" rx="2" fill="#313C4E"/>
<rect id="Rectangle 19" x="306" y="231" width="245" height="7" rx="2" fill="#313C4E"/>
<rect id="Rectangle 20" x="306" y="244" width="245" height="7" rx="2" fill="#313C4E"/>
<rect id="Rectangle 17" x="306" y="175" width="245" height="30" rx="2" fill="#313C4E"/>
<rect id="Rectangle 16" x="308" y="61" width="243" height="97" rx="3" fill="#ABB3C0"/>
</g>
</g>
</g>
</g>
</svg>
