<svg width="1009" height="748" viewBox="0 0 1009 748" fill="none" xmlns="http://www.w3.org/2000/svg">
<g id="expert">
<g id="Girl">
<g id="Group 3">
<path id="Vector" d="M159.27 742.507H0.857422V744.382H159.27V742.507Z" fill="#3F3D56"/>
<path id="Vector_2" d="M308.27 572.507H149.857V574.382H308.27V572.507Z" fill="#3F3D56"/>
<path id="Vector_3" d="M99.3138 131.295H99.3138C69.1325 139.471 52.0212 173.251 61.0948 206.746L72.6227 249.301L85.7107 245.756L89.0168 227.936L91.3937 244.216L175.519 221.427L178.524 205.228L180.685 220.028L190.156 217.462L181.105 184.048C170.664 145.505 134.045 121.886 99.3138 131.295Z" fill="#2F2E41"/>
<path id="Vector_4" d="M37.5 652.332L50.5 698.332L48.5 715.332L86.5 707.332C86.5 707.332 70.5 680.332 72.5 666.332L37.5 652.332Z" fill="#FFB8B8"/>
<path id="Vector_5" d="M209.5 487.332L199.5 541.332L232.5 536.332L234 479.832L209.5 487.332Z" fill="#FFB8B8"/>
<path id="Vector_6" d="M110.5 227.332C130.382 227.332 146.5 211.214 146.5 191.332C146.5 171.45 130.382 155.332 110.5 155.332C90.6177 155.332 74.5 171.45 74.5 191.332C74.5 211.214 90.6177 227.332 110.5 227.332Z" fill="#FFB8B8"/>
<path id="Vector_7" d="M99 217.832L97 237.832L81 246.832L123 339.832L155 262.832L134 246.832L132 208.832L99 217.832Z" fill="#FFB8B8"/>
<path id="Vector_8" d="M128.5 317.332L87.5447 243.15C87.5447 243.15 54.4999 245.332 46.4999 252.332L62.4999 354.332L57.4999 367.332C57.4999 367.332 16.4999 409.332 24.4999 500.332C32.4999 591.332 32.4999 662.332 32.4999 662.332C32.4999 662.332 61.4999 696.332 121.5 662.332V481.332L206.5 474.332V496.332C206.5 496.332 294.5 474.332 296.5 441.332L273.862 402.013C269.488 394.417 262.679 388.518 254.537 385.272C246.395 382.026 237.396 381.623 228.995 384.126L154.5 406.332L146.5 376.332L154.5 354.332C154.5 354.332 175.5 338.332 175.5 317.332C175.5 296.332 181.5 271.332 181.5 271.332L142.601 253.385L128.5 317.332Z" fill="#2F2E41"/>
<path id="Vector_9" d="M199.5 309.332L215.5 348.332C215.5 348.332 232.5 368.332 235.5 390.332L240.5 416.332C240.5 416.332 252.5 462.332 233.5 460.332C214.5 458.332 219.5 414.332 219.5 414.332L216.5 401.332L199.5 373.332L174.416 325.652L199.5 309.332Z" fill="#FFB8B8"/>
<path id="Vector_10" d="M202.5 532.332C202.5 532.332 231.114 535.139 236.807 522.235L265.5 545.332C265.5 545.332 317.465 559.248 288.5 571.332C261.5 582.595 234.5 570.57 234.5 573.332C234.5 573.332 226.5 566.332 217.5 571.332C208.5 576.332 181.5 571.332 182.5 563.332C183.5 555.332 187.5 526.332 202.5 532.332Z" fill="#2F2E41"/>
<path id="Vector_11" d="M49.5 703.332C49.5 703.332 78.1145 706.139 83.8072 693.235L112.5 716.332C112.5 716.332 164.666 730.741 135.5 742.332C108.528 753.051 81.5137 741.735 81.5 744.332C81.5 744.332 73.5 737.332 64.5 742.332C55.5 747.332 28.5 742.332 29.5 734.332C30.5 726.332 34.5 697.332 49.5 703.332Z" fill="#2F2E41"/>
<path id="Vector_12" d="M168.5 267.332L181.5 271.332L209.5 313.332L158.5 347.332L168.5 267.332Z" fill="#2F2E41"/>
<path id="Vector_13" d="M119.375 143.792C111.974 138.214 102.669 135.931 93.6351 138.378L92.5622 138.669C71.8759 144.273 60.1772 167.534 66.4323 190.625V190.625L73.3638 188.748L72.175 179.924L76.1245 188L117.234 176.863L118.726 168.722L119.818 176.163L127.905 173.973C136.756 191.692 136.411 211.904 126.869 234.606L140.646 230.874L143.629 214.591L145.812 229.474L172.074 222.36L168.258 187.801C161.531 162.968 141.397 145.818 119.375 143.792Z" fill="#2F2E41"/>
<path id="Vector_14" d="M128 139.832C137.941 139.832 146 131.773 146 121.832C146 111.891 137.941 103.832 128 103.832C118.059 103.832 110 111.891 110 121.832C110 131.773 118.059 139.832 128 139.832Z" fill="#2F2E41"/>
<path id="Vector_15" d="M127 131.832C122.785 131.834 118.704 130.357 115.467 127.657C112.23 124.957 110.044 121.207 109.29 117.06C108.536 112.913 109.262 108.634 111.341 104.967C113.42 101.301 116.721 98.4814 120.667 97C118.147 97.3233 115.725 98.1766 113.559 99.5035C111.393 100.831 109.532 102.601 108.1 104.699C106.668 106.797 105.696 109.174 105.248 111.675C104.801 114.175 104.888 116.742 105.504 119.206C106.121 121.67 107.252 123.976 108.823 125.972C110.395 127.968 112.371 129.608 114.622 130.785C116.873 131.962 119.348 132.648 121.884 132.8C124.419 132.951 126.958 132.564 129.333 131.664C128.56 131.77 127.781 131.826 127 131.832Z" fill="#2F2E41"/>
<path id="Vector_16" d="M133.5 197.832C135.985 197.832 138 194.922 138 191.332C138 187.742 135.985 184.832 133.5 184.832C131.015 184.832 129 187.742 129 191.332C129 194.922 131.015 197.832 133.5 197.832Z" fill="#FFB8B8"/>
<path id="Vector_17" d="M35.4999 312.332L32.4999 352.332C32.4999 352.332 18.4999 374.332 15.4999 421.332L14.4999 450.332C14.4999 450.332 -6.50008 491.332 10.4999 490.332C27.4999 489.332 26.4999 451.332 26.4999 451.332L56.4999 364.332V322.332L35.4999 312.332Z" fill="#FFB8B8"/>
<path id="Vector_18" d="M53.5 253.332H46.5C46.5 253.332 35.5 260.332 26.5 290.332C17.5 320.332 16.5 321.332 16.5 321.332L63.5 332.332L53.5 253.332Z" fill="#2F2E41"/>
</g>
</g>
<path id="bght" d="M1008.83 0H308V747H1008.83V0Z" fill="#3F3D56"/>
<path id="zxw" d="M1008.83 40.2505H347.066V747H1008.83V40.2505Z" fill="white"/>
<path id="cdf" d="M540.032 140.876H332.861V162.186H540.032V140.876Z" fill="#3F3D56"/>
<path id="kli" d="M540.032 192.965H332.861V214.274H540.032V192.965Z" fill="#3F3D56"/>
<path id="nbg" d="M540.032 245.054H332.861V266.363H540.032V245.054Z" fill="#3F3D56"/>
<path id="opl" d="M606.326 169.288C616.134 169.288 624.084 161.338 624.084 151.531C624.084 141.724 616.134 133.773 606.326 133.773C596.519 133.773 588.569 141.724 588.569 151.531C588.569 161.338 596.519 169.288 606.326 169.288Z" fill="#3F3D56"/>
<path id="jki" d="M606.326 221.377C616.134 221.377 624.084 213.427 624.084 203.62C624.084 193.812 616.134 185.862 606.326 185.862C596.519 185.862 588.569 193.812 588.569 203.62C588.569 213.427 596.519 221.377 606.326 221.377Z" fill="#3F3D56"/>
<path id="vdw" d="M606.326 273.466C616.134 273.466 624.084 265.516 624.084 255.708C624.084 245.901 616.134 237.951 606.326 237.951C596.519 237.951 588.569 245.901 588.569 255.708C588.569 265.516 596.519 273.466 606.326 273.466Z" fill="#3F3D56"/>
<path id="csda" d="M937.208 387.114H418.688V693.727H937.208V387.114Z" fill="#FBF2EB"/>
<path id="kli_2" d="M423.921 693.727C432.042 691.762 440.068 689.892 448 688.116L437.038 647.084C440.85 644.717 457.376 668.464 457.376 668.464L443.454 549.785C462.526 554.532 471.357 675.591 471.357 675.591L492.998 635.258L482.331 680.93C569.698 663.847 645.073 658.556 708.432 659.822L699.044 624.698C702.856 622.33 719.382 646.066 719.382 646.066L705.461 527.387C724.532 532.146 733.364 653.205 733.364 653.205L755.016 612.86L743.71 661.243C796.805 664.499 840.074 672.3 873.447 680.824C864.094 626.237 831.338 573.746 831.338 573.746C856.542 588.402 869.647 612.256 876.418 634.358C877.508 551.713 872.769 469.093 862.236 387.114C858.779 360.371 854.517 332.681 849.32 304.411C849.604 305.607 857.418 338.754 866.379 387.114C880.325 462.323 897.005 574.373 892.341 660.414L891.358 685.713C900.651 688.424 908.974 691.135 916.325 693.727H423.921Z" fill="#3F3D56"/>
<path id="jui" d="M508.068 499.578C535.528 499.578 557.789 477.318 557.789 449.857C557.789 422.397 535.528 400.136 508.068 400.136C480.608 400.136 458.347 422.397 458.347 449.857C458.347 477.318 480.608 499.578 508.068 499.578Z" fill="#F2A194"/>
<path id="wc" d="M606.326 158.634C610.249 158.634 613.429 155.454 613.429 151.531C613.429 147.608 610.249 144.428 606.326 144.428C602.404 144.428 599.223 147.608 599.223 151.531C599.223 155.454 602.404 158.634 606.326 158.634Z" fill="#FF4852"/>
<path id="ntf" d="M606.326 210.723C610.249 210.723 613.429 207.542 613.429 203.62C613.429 199.697 610.249 196.517 606.326 196.517C602.404 196.517 599.223 199.697 599.223 203.62C599.223 207.542 602.404 210.723 606.326 210.723Z" fill="#FF4852"/>
<path id="ngr" d="M606.326 262.811C610.249 262.811 613.429 259.631 613.429 255.708C613.429 251.786 610.249 248.605 606.326 248.605C602.404 248.605 599.223 251.786 599.223 255.708C599.223 259.631 602.404 262.811 606.326 262.811Z" fill="#FF4852"/>
<path id="bgr" d="M976.254 531.864H951.239V534.254H976.254V531.864Z" fill="#3F3D56"/>
<path id="vfr" d="M990.681 533.059C983.892 535.578 975.47 539.876 970.249 544.428L974.361 533.059L970.249 521.693C975.47 526.245 983.892 530.543 990.681 533.059Z" fill="#3F3D56"/>
<path id="kuh" d="M403.837 531.864H378.822V534.254H403.837V531.864Z" fill="#3F3D56"/>
<path id="nj" d="M364.396 533.059C371.184 530.54 379.607 526.243 384.828 521.691L380.716 533.059L384.828 544.425C379.607 539.873 371.184 535.576 364.396 533.059Z" fill="#3F3D56"/>
<path id="bt6" d="M333.321 28.6848C337.941 28.6848 341.687 24.9391 341.687 20.3184C341.687 15.6978 337.941 11.952 333.321 11.952C328.7 11.952 324.954 15.6978 324.954 20.3184C324.954 24.9391 328.7 28.6848 333.321 28.6848Z" fill="#FF4852"/>
<path id="hh" d="M364.396 28.6848C369.017 28.6848 372.762 24.9391 372.762 20.3184C372.762 15.6978 369.017 11.952 364.396 11.952C359.775 11.952 356.03 15.6978 356.03 20.3184C356.03 24.9391 359.775 28.6848 364.396 28.6848Z" fill="#FF7053"/>
<path id="vwf" d="M395.471 28.6848C400.092 28.6848 403.838 24.9391 403.838 20.3184C403.838 15.6978 400.092 11.952 395.471 11.952C390.851 11.952 387.105 15.6978 387.105 20.3184C387.105 24.9391 390.851 28.6848 395.471 28.6848Z" fill="#EAB84E"/>
<path id="dfw" d="M988.29 9.56152H953.63V14.3423H988.29V9.56152Z" fill="#F2F2F2"/>
<path id="efg" d="M988.29 17.928H953.63V22.7088H988.29V17.928Z" fill="#F2F2F2"/>
<path id="we" d="M988.29 26.2944H953.63V31.0752H988.29V26.2944Z" fill="#F2F2F2"/>
</g>
</svg>
