<svg width="1042" height="555" viewBox="0 0 1042 555" fill="none" xmlns="http://www.w3.org/2000/svg">
<g id="fastdevelopment">
<g id="Group 26">
<g id="Group 23">
<path id="Vector" opacity="0.1" d="M961.469 438.175C960.309 440.675 959.153 443.142 957.999 445.575C956.199 449.355 954.423 453.062 952.669 456.695C951.889 458.305 951.109 459.885 950.349 461.465C941.749 479.035 933.719 494.575 926.899 507.355C920.711 518.935 911.522 528.638 900.296 535.446C889.069 542.255 876.218 545.919 863.089 546.055L711.439 547.705H709.839L696.839 547.845L685.719 547.965L651.619 548.335H650.239L632.879 548.525H632.349L525.349 549.685L429.839 550.685L418.729 550.805L349.729 551.555H349.649L304.899 552.035H304.419L162.919 553.565L120.589 554.025C111.556 554.127 102.561 552.839 93.9193 550.205C78.8813 545.663 65.3666 537.106 54.8292 525.455C36.6492 505.425 23.3992 482.055 14.4992 456.695C13.2126 453.035 12.0126 449.328 10.8992 445.575C-19.9108 341.425 17.6493 207.055 85.2493 117.135C88.0826 113.375 90.9626 109.708 93.8893 106.135L93.9592 106.055C114.749 80.5351 138.059 59.2151 162.889 44.0551C206.889 17.1451 255.639 9.56509 303.589 32.1551C344.159 51.2751 382.039 60.2651 418.759 62.7051C422.469 62.9451 426.179 63.1251 429.869 63.2351C514.099 65.8851 593.039 35.5351 685.739 15.9451C689.429 15.1651 693.129 14.3951 696.859 13.6651C762.989 0.505089 836.349 -6.43491 923.589 8.15509C932.653 9.63576 941.596 11.7747 950.349 14.5551C954.196 15.7951 957.903 17.1284 961.469 18.5551C1003.11 35.4951 1025.82 66.7951 1035.47 106.015C1036.38 109.655 1037.17 113.358 1037.84 117.125C1054.95 211.465 1004.84 345.285 961.469 438.175Z" fill="#E7D0CD"/>
<g id="Group" opacity="0.1">
<path id="Vector_2" opacity="0.1" d="M162.89 44.0547V553.675L120.56 554.135C111.526 554.237 102.531 552.948 93.8896 550.315V106.055H93.9596C114.75 80.5047 138.06 59.1847 162.89 44.0547Z" fill="#E7D0CD"/>
<path id="Vector_3" opacity="0.1" d="M1037.89 117.135H85.249C88.0824 113.375 90.9624 109.708 93.889 106.135V106.055H1035.52C1036.43 109.675 1037.22 113.368 1037.89 117.135Z" fill="#E7D0CD"/>
<path id="Vector_4" opacity="0.1" d="M961.47 18.5644V445.564H958C956.2 449.344 954.423 453.051 952.67 456.684C951.89 458.294 951.11 459.874 950.35 461.454V14.5244C954.196 15.7644 957.903 17.1111 961.47 18.5644Z" fill="#E7D0CD"/>
<path id="Vector_5" opacity="0.1" d="M696.859 13.6348V547.885L685.739 548.005V15.9148C689.429 15.1348 693.129 14.3648 696.859 13.6348Z" fill="#E7D0CD"/>
<path id="Vector_6" opacity="0.1" d="M429.87 63.2048V550.785L418.76 550.905V62.6748C422.47 62.9148 426.18 63.0548 429.87 63.2048Z" fill="#E7D0CD"/>
<path id="Vector_7" opacity="0.1" d="M957.999 445.575C956.199 449.355 954.423 453.062 952.669 456.695H14.4994C13.2127 453.035 12.0127 449.329 10.8994 445.575H957.999Z" fill="#E7D0CD"/>
</g>
<path id="Vector_8" d="M230.589 265.795H211.589V323.455H230.589V265.795Z" fill="#3F3D56"/>
<path id="Vector_9" d="M741.919 262.795H722.919V323.795H741.919V262.795Z" fill="#3F3D56"/>
<path id="Vector_10" d="M863.089 533.615V546.615L711.169 548.015L709.549 548.045L651.809 548.575L650.429 548.595L632.879 548.745H632.359L525.379 549.735L349.769 551.365H349.619L304.969 551.785L304.489 551.795L106.089 553.615V538.615L152.739 510.615L246.339 509.835L248.339 509.825L248.999 509.815L250.999 509.785L295.939 509.415L297.949 509.405L298.589 509.395L300.589 509.385L314.999 509.265L315.379 509.255L350.929 508.955H351.219L628.619 506.615L635.409 506.565H636.089L641.269 506.515L678.919 506.205L680.919 506.175L682.769 506.155H683.729L695.439 506.065L697.759 506.035L700.869 506.015L710.619 505.925L726.089 505.795L728.089 505.775L731.569 505.755H732.219L806.929 505.115L863.089 533.615Z" fill="#65617D"/>
<path id="Vector_11" opacity="0.2" d="M863.089 533.615V546.615L711.169 548.015L709.549 548.045L651.809 548.575L650.429 548.595L632.879 548.745H632.359L525.379 549.735L349.769 551.365H349.619L304.969 551.785L304.489 551.795L106.089 553.615V538.615L152.739 510.615L246.339 509.835L248.339 509.825L248.999 509.815L250.999 509.785L295.939 509.415L297.949 509.405L298.589 509.395L300.589 509.385L314.999 509.265L315.379 509.255L350.929 508.955H351.219L628.619 506.615L635.409 506.565H636.089L641.269 506.515L678.919 506.205L680.919 506.175L682.769 506.155H683.729L695.439 506.065L697.759 506.035L700.869 506.015L710.619 505.925L726.089 505.795L728.089 505.775L731.569 505.755H732.219L806.929 505.115L863.089 533.615Z" fill="black"/>
<path id="Vector_12" d="M296.089 483.625V508.115C296.09 509.275 295.761 510.411 295.141 511.392C294.522 512.373 293.637 513.157 292.589 513.655C291.809 514.033 290.956 514.238 290.089 514.255L255.189 514.995C254.257 515.017 253.332 514.822 252.489 514.425C251.423 513.936 250.519 513.151 249.886 512.164C249.254 511.176 248.918 510.028 248.919 508.855V483.625H296.089Z" fill="#3F3D56"/>
<path id="Vector_13" opacity="0.1" d="M296.089 483.625V508.115C296.09 509.275 295.761 510.411 295.141 511.392C294.522 512.373 293.637 513.157 292.589 513.655C291.809 514.033 290.956 514.238 290.089 514.255L255.189 514.995C254.257 515.017 253.332 514.822 252.489 514.425C251.423 513.936 250.519 513.151 249.886 512.164C249.254 511.176 248.918 510.028 248.919 508.855V483.625H296.089Z" fill="black"/>
<path id="Vector_14" d="M298.089 483.625V508.115C298.09 509.275 297.761 510.411 297.141 511.392C296.522 512.373 295.637 513.157 294.589 513.655C293.809 514.033 292.956 514.238 292.089 514.255L257.189 514.995C256.257 515.017 255.332 514.822 254.489 514.425C253.423 513.936 252.519 513.151 251.886 512.164C251.254 511.176 250.918 510.028 250.919 508.855V483.625H298.089Z" fill="#3F3D56"/>
<path id="Vector_15" d="M728.089 483.625H680.919V515.125H728.089V483.625Z" fill="#3F3D56"/>
<path id="Vector_16" opacity="0.1" d="M728.089 483.625H680.919V515.125H728.089V483.625Z" fill="black"/>
<path id="Vector_17" d="M726.089 483.625H678.919V515.125H726.089V483.625Z" fill="#3F3D56"/>
<path id="Vector_18" opacity="0.1" d="M230.589 265.785V271.515L211.589 271.025V265.785H230.589Z" fill="black"/>
<path id="Vector_19" d="M355.65 104.365L332.82 268.365C332.675 269.412 332.149 270.37 331.343 271.054C330.537 271.738 329.507 272.102 328.45 272.075L145.65 267.335L142.18 267.245C141.575 267.23 140.981 267.089 140.435 266.829C139.889 266.57 139.404 266.198 139.012 265.739C138.619 265.279 138.328 264.742 138.157 264.162C137.986 263.583 137.939 262.974 138.02 262.375L163.65 90.6946C163.815 89.6311 164.373 88.6683 165.213 87.9962C166.054 87.3242 167.116 86.9917 168.19 87.0646L351.65 99.4845C352.241 99.5188 352.82 99.6755 353.348 99.9445C353.877 100.214 354.343 100.589 354.719 101.048C355.095 101.506 355.372 102.038 355.532 102.609C355.692 103.18 355.732 103.777 355.65 104.365V104.365Z" fill="#65617D"/>
<path id="Vector_20" d="M175.919 99.125L156.589 250.455L324.589 255.785L345.249 109.785L175.919 99.125Z" fill="#F2A194"/>
<path id="Vector_21" d="M583.929 96.7852H389.919C386.975 96.7852 384.589 99.1715 384.589 102.115V264.785C384.589 267.729 386.975 270.115 389.919 270.115H583.929C586.873 270.115 589.259 267.729 589.259 264.785V102.115C589.259 99.1715 586.873 96.7852 583.929 96.7852Z" fill="#65617D"/>
<path id="Vector_22" d="M580.249 108.455H394.249V252.785H580.249V108.455Z" fill="#F2A194"/>
<path id="Vector_23" opacity="0.1" d="M741.919 262.785V266.575L722.919 266.965V262.785H741.919Z" fill="black"/>
<path id="Vector_24" d="M827.649 259.585C827.676 260 827.619 260.415 827.481 260.807C827.344 261.199 827.128 261.559 826.848 261.865C826.568 262.171 826.229 262.418 825.851 262.59C825.473 262.762 825.064 262.856 824.649 262.865L637.449 266.735C636.671 266.751 635.916 266.473 635.336 265.955C634.755 265.438 634.392 264.72 634.319 263.945L618.229 96.6654C618.189 96.2504 618.234 95.8317 618.361 95.4345C618.488 95.0374 618.694 94.6701 618.967 94.3551C619.24 94.04 619.574 93.7836 619.949 93.6014C620.324 93.4193 620.732 93.3152 621.149 93.2954L806.929 84.0554L808.929 83.9554C809.724 83.9135 810.504 84.1821 811.105 84.7045C811.706 85.2269 812.08 85.9623 812.149 86.7554L827.649 259.585Z" fill="#65617D"/>
<path id="Vector_25" d="M628.919 103.125L798.589 94.7852L812.919 246.785L644.589 250.785L628.919 103.125Z" fill="#F2A194"/>
<path id="Vector_26" opacity="0.1" d="M827.65 259.585C827.677 260 827.62 260.415 827.482 260.807C827.345 261.199 827.129 261.559 826.849 261.865C826.569 262.171 826.229 262.418 825.852 262.59C825.474 262.762 825.065 262.856 824.65 262.865L806.93 84.0554L808.93 83.9554C809.725 83.9135 810.505 84.1821 811.106 84.7045C811.706 85.2269 812.081 85.9623 812.15 86.7554L827.65 259.585Z" fill="black"/>
<path id="Vector_27" opacity="0.1" d="M168.22 87.0548L145.65 267.335L142.18 267.245C141.575 267.231 140.981 267.089 140.435 266.83C139.889 266.57 139.404 266.198 139.012 265.739C138.619 265.279 138.328 264.742 138.157 264.163C137.986 263.583 137.939 262.974 138.02 262.375L163.65 90.6948C163.813 89.6241 164.374 88.6543 165.221 87.9795C166.069 87.3047 167.139 86.9744 168.22 87.0548V87.0548Z" fill="black"/>
<path id="Vector_28" opacity="0.1" d="M230.589 306.375H211.589V323.455H230.589V306.375Z" fill="black"/>
<path id="Vector_29" opacity="0.1" d="M298.089 483.615V488.585L250.919 489.845V483.615H298.089Z" fill="black"/>
<path id="Vector_30" d="M381.339 312.325V480.525C381.327 481.552 380.92 482.534 380.204 483.27C379.487 484.005 378.515 484.437 377.489 484.475L185.839 489.575H185.789C184.745 489.562 183.748 489.142 183.01 488.404C182.272 487.666 181.852 486.669 181.839 485.625V312.325C181.852 311.281 182.272 310.284 183.01 309.546C183.748 308.808 184.745 308.388 185.789 308.375H377.389C378.432 308.388 379.43 308.808 380.168 309.546C380.906 310.284 381.326 311.281 381.339 312.325V312.325Z" fill="#65617D"/>
<path id="Vector_31" opacity="0.1" d="M185.839 308.375V489.575H185.789C184.745 489.562 183.748 489.142 183.01 488.404C182.272 487.666 181.852 486.669 181.839 485.625V312.325C181.852 311.281 182.272 310.284 183.01 309.546C183.748 308.808 184.745 308.388 185.789 308.375H185.839Z" fill="black"/>
<path id="Vector_32" d="M194.589 319.115H372.089V467.365L194.589 471.365V319.115Z" fill="#E7D0CD"/>
<path id="Vector_33" opacity="0.1" d="M741.919 306.375H722.919V323.795H741.919V306.375Z" fill="black"/>
<path id="Vector_34" opacity="0.1" d="M726.089 483.615V490.025L678.919 488.765V483.615H726.089Z" fill="black"/>
<path id="Vector_35" d="M788.339 312.325V485.625C788.326 486.677 787.898 487.682 787.15 488.421C786.401 489.161 785.391 489.575 784.339 489.575V489.575L592.649 484.475C591.623 484.437 590.651 484.005 589.934 483.27C589.217 482.534 588.811 481.552 588.799 480.525V312.325C588.812 311.281 589.232 310.284 589.97 309.546C590.708 308.808 591.705 308.388 592.749 308.375H784.349C785.399 308.378 786.407 308.793 787.153 309.532C787.9 310.271 788.326 311.275 788.339 312.325V312.325Z" fill="#65617D"/>
<path id="Vector_36" opacity="0.1" d="M788.339 312.325V485.625C788.326 486.677 787.899 487.682 787.15 488.421C786.401 489.161 785.391 489.575 784.339 489.575V489.575V308.375C785.391 308.375 786.401 308.789 787.15 309.529C787.899 310.268 788.326 311.273 788.339 312.325Z" fill="black"/>
<path id="Vector_37" d="M775.589 319.115H598.089V467.365L775.589 471.365V319.115Z" fill="#E7D0CD"/>
<path id="Vector_38" d="M583.839 312.325V480.525C583.827 481.552 583.42 482.534 582.704 483.27C581.987 484.005 581.015 484.437 579.989 484.475L388.339 489.575C387.287 489.575 386.277 489.161 385.528 488.421C384.779 487.682 384.352 486.677 384.339 485.625V312.325C384.352 311.281 384.772 310.284 385.51 309.546C386.248 308.808 387.245 308.388 388.289 308.375H579.889C580.932 308.388 581.93 308.808 582.668 309.546C583.406 310.284 583.826 311.281 583.839 312.325V312.325Z" fill="#65617D"/>
<path id="Vector_39" d="M397.089 319.115H574.589V467.365L397.089 471.365V319.115Z" fill="#E7D0CD"/>
<path id="Vector_40" opacity="0.1" d="M863.089 533.615V546.615L711.169 548.015L709.549 548.045L651.809 548.575L650.429 548.595L632.879 548.745H632.359L525.379 549.735L349.769 551.365H349.619L304.969 551.785L304.489 551.795L106.089 553.615V538.615L308.599 537.285H309.079L350.069 537.005H350.259L633.339 535.135H633.629L633.799 535.125H634.269L639.059 535.095H640.519L715.009 534.595L719.409 534.575L720.389 534.565L863.089 533.615Z" fill="black"/>
<path id="Vector_41" d="M487.249 323.455C515.598 323.455 538.579 300.474 538.579 272.125C538.579 243.776 515.598 220.795 487.249 220.795C458.9 220.795 435.919 243.776 435.919 272.125C435.919 300.474 458.9 323.455 487.249 323.455Z" fill="#FBBEBE"/>
<path id="Vector_42" d="M538.59 377.125C538.59 377.125 439.09 389.125 448.59 377.125C452.03 372.785 452.98 359.925 452.79 345.275C452.73 340.825 452.57 336.215 452.34 331.625C451.24 309.625 448.59 288.125 448.59 288.125C448.59 288.125 535.59 247.125 525.59 279.625C521.59 292.755 522.9 311.195 525.94 328.505C526.83 333.555 527.86 338.505 528.94 343.205C531.575 354.669 534.796 365.99 538.59 377.125V377.125Z" fill="#FBBEBE"/>
<path id="Vector_43" opacity="0.1" d="M538.59 377.125C538.59 377.125 439.09 389.125 448.59 377.125C452.03 372.785 452.98 359.925 452.79 345.275C467.96 338.795 487.26 343.625 487.26 343.625C507.58 339.575 520.61 340.365 528.94 343.205C531.575 354.669 534.796 365.99 538.59 377.125V377.125Z" fill="black"/>
<path id="Vector_44" d="M349.729 552.495V551.655L525.349 549.745L632.349 548.745H632.649L632.539 550.225L632.689 548.745H632.879V548.575L634.249 535.125L634.769 530.035L634.929 528.445L635.069 527.115L641.249 506.505L647.429 485.925L652.629 468.595L660.569 442.115C660.569 442.115 656.069 431.615 653.569 428.615C651.069 425.615 648.569 405.115 648.569 405.115C648.569 405.115 627.229 384.785 617.899 382.445C613.989 381.445 606.269 380.115 598.069 378.445C594.999 377.825 591.849 377.165 588.819 376.445C587.109 376.055 585.429 375.645 583.819 375.235C580.686 374.452 577.598 373.497 574.569 372.375C572.981 371.798 571.47 371.029 570.069 370.085C562.719 364.695 544.299 364.085 543.589 364.085C543.587 364.062 543.587 364.038 543.589 364.015V363.925C543.615 363.505 543.615 363.085 543.589 362.665C543.589 362.265 543.589 361.795 543.499 361.265C543.499 361.105 543.499 360.935 543.429 360.765C543.379 360.405 543.319 360.025 543.229 359.625C543.199 359.446 543.159 359.269 543.109 359.095C542.82 357.89 542.4 356.72 541.859 355.605C541.789 355.445 541.699 355.275 541.619 355.115C541.129 354.191 540.56 353.311 539.919 352.485C539.789 352.315 539.649 352.135 539.499 351.965C538.68 350.999 537.769 350.115 536.779 349.325C536.509 349.115 536.229 348.895 535.939 348.695C535.778 348.564 535.607 348.443 535.429 348.335L534.539 347.755L533.709 347.275C532.979 346.875 532.209 346.485 531.369 346.115C531.109 345.995 530.829 345.885 530.549 345.775C530.269 345.665 529.829 345.495 529.459 345.355H529.399L528.649 345.055C528.079 344.865 527.499 344.695 526.889 344.525L525.959 344.285L524.959 344.055L523.959 343.845C522.959 343.645 521.889 343.465 520.769 343.325L519.629 343.185L518.459 343.065L517.249 342.965L515.529 342.865L513.529 342.795C504.709 342.794 495.913 343.729 487.289 345.585C481.299 344.252 475.163 343.687 469.029 343.905H468.159L467.159 343.965H466.519L465.229 344.085C464.799 344.085 464.359 344.175 463.929 344.235C463.499 344.295 463.049 344.345 462.619 344.415L461.959 344.525C461.309 344.635 460.649 344.755 459.959 344.895C459.739 344.935 459.519 344.985 459.299 345.045C458.429 345.235 457.559 345.465 456.699 345.725C456.269 345.845 455.839 345.985 455.409 346.135C455.189 346.195 454.979 346.275 454.769 346.355L454.129 346.585L453.499 346.835L452.749 347.135C452.369 347.295 451.999 347.465 451.629 347.645C451.419 347.735 451.209 347.835 451.009 347.945C450.809 348.055 450.599 348.145 450.409 348.255C448.148 349.423 446.059 350.897 444.199 352.635L443.689 353.125L443.189 353.635C443.019 353.805 442.859 353.985 442.699 354.165C442.048 354.877 441.44 355.629 440.879 356.415C440.719 356.625 440.569 356.835 440.419 357.055C439.785 357.991 439.21 358.966 438.699 359.975C438.569 360.215 438.449 360.465 438.329 360.705C437.513 362.394 436.844 364.151 436.329 365.955C436.143 366.622 435.973 367.288 435.819 367.955C435.819 367.955 414.649 377.295 397.089 384.055C392.419 385.855 388.019 387.485 384.339 388.715C383.269 389.075 382.269 389.405 381.339 389.715C379.321 390.444 377.223 390.928 375.089 391.155C374.084 391.171 373.081 391.265 372.089 391.435C364.019 392.745 350.189 398.435 348.679 404.145C348.557 404.601 348.523 405.076 348.579 405.545C348.579 405.545 348.579 405.615 348.579 405.655C349.579 412.655 342.579 411.655 342.579 411.655C342.579 411.655 340.079 430.155 336.579 435.155C334.049 438.755 332.319 446.785 332.099 452.845C331.974 454.733 332.122 456.629 332.539 458.475C332.539 458.525 332.539 458.575 332.539 458.615C332.939 459.955 331.979 463.615 330.349 468.305C328.579 473.455 325.999 479.855 323.519 485.895C319.779 495.015 316.259 503.295 316.039 505.115C315.949 505.925 315.689 507.375 315.329 509.245C313.869 516.865 310.629 531.375 309.029 537.245C307.839 541.625 306.109 547.625 304.919 551.745C304.919 551.865 304.849 551.985 304.819 552.095L349.649 551.655V552.495H349.789H349.729Z" fill="#6C63FF"/>
<path id="Vector_45" opacity="0.1" d="M366.089 434.625C366.089 434.625 423.089 464.125 443.589 460.625L366.089 434.625Z" fill="black"/>
<path id="Vector_46" opacity="0.1" d="M482.089 422.625C482.089 422.625 537.589 440.625 556.089 443.125C574.589 445.625 482.089 422.625 482.089 422.625Z" fill="black"/>
<path id="Vector_47" opacity="0.1" d="M543.649 364.705C514.649 370.045 460.049 368.895 436.449 368.085C445.099 337.085 487.279 347.625 487.279 347.625C539.489 337.205 543.489 358.825 543.649 364.705Z" fill="black"/>
<path id="Vector_48" d="M543.649 362.705C514.649 368.045 460.049 366.895 436.449 366.085C445.099 335.085 487.279 345.625 487.279 345.625C539.489 335.205 543.489 356.825 543.649 362.705Z" fill="#6C63FF"/>
<path id="Vector_49" d="M697.589 499.375C697.589 499.375 731.749 494.125 732.419 509.125C733.089 524.125 714.999 534.604 714.999 534.604L697.589 499.375Z" fill="#FBBEBE"/>
<path id="Vector_50" opacity="0.1" d="M525.939 328.505C524.47 329.161 522.968 329.742 521.439 330.245C510.659 333.965 499.789 337.715 488.439 339.075C477.089 340.435 465.179 339.235 455.279 333.575C454.24 332.988 453.238 332.336 452.279 331.625C451.179 309.625 448.529 288.125 448.529 288.125C448.529 288.125 535.529 247.125 525.529 279.625C521.549 292.755 522.899 311.195 525.939 328.505Z" fill="black"/>
<path id="Vector_51" d="M473.169 191.895C471.742 192.272 470.246 192.31 468.802 192.006C467.357 191.703 466.004 191.065 464.849 190.145L466.929 193.035C465.703 193.177 464.461 193.049 463.29 192.66C462.119 192.271 461.047 191.632 460.149 190.785C459.96 193.372 460.068 195.973 460.469 198.535C457.027 198.701 453.639 197.638 450.909 195.535C450.856 196.437 451.08 197.334 451.552 198.105C452.024 198.876 452.721 199.483 453.549 199.845C450.092 199.432 446.602 200.291 443.732 202.262C440.861 204.233 438.806 207.18 437.949 210.555L443.169 211.035C439.067 211.911 435.385 214.158 432.729 217.405C431.129 219.405 429.909 221.965 430.609 224.405C431.309 226.845 434.689 228.405 436.529 226.665C433.912 229.789 432.009 233.448 430.956 237.385C429.902 241.322 429.722 245.442 430.429 249.455C430.904 251.166 431.06 252.949 430.889 254.715C430.559 256.365 429.519 257.795 428.999 259.405C427.999 262.325 428.949 265.495 429.839 268.405L434.529 283.825C436.229 289.395 437.919 294.975 440.139 300.365C441.711 303.773 443.048 307.285 444.139 310.875C445.399 315.715 445.449 321.015 448.139 325.245C449.983 327.907 452.447 330.08 455.319 331.575C465.209 337.235 477.159 338.435 488.479 337.075C499.799 335.715 510.659 331.965 521.429 328.245C523.822 327.525 526.118 326.517 528.269 325.245C535.719 320.365 537.379 310.385 538.769 301.595C540.319 291.795 542.389 282.015 546.059 272.795C548.239 267.305 551.059 261.735 550.579 255.855C549.969 248.045 543.789 241.715 542.259 234.035C541.747 231.468 541.771 228.823 542.329 226.265C542.804 224.742 543.069 223.16 543.119 221.565C542.949 218.345 540.309 215.865 537.829 213.795C532.449 209.302 526.896 205.055 521.169 201.055C520.879 199.055 523.599 198.195 524.829 196.615C526.569 194.385 524.769 190.845 522.129 189.805C519.489 188.765 516.529 189.445 513.779 190.135C513.958 188.728 513.678 187.3 512.981 186.064C512.283 184.828 511.206 183.851 509.908 183.277C508.611 182.703 507.162 182.563 505.779 182.878C504.395 183.193 503.15 183.946 502.229 185.025C501.499 183.351 500.332 181.903 498.851 180.833C497.37 179.764 495.628 179.112 493.809 178.945C487.179 178.425 487.049 183.495 482.809 186.285C478.569 189.075 475.069 185.395 471.809 182.715C471.21 184.23 471.02 185.876 471.259 187.488C471.498 189.099 472.157 190.619 473.169 191.895V191.895Z" fill="#3F3D56"/>
<path id="Vector_52" d="M722.919 529.375C722.919 529.375 722.029 531.495 720.389 534.565C717.908 539.288 714.888 543.707 711.389 547.735L711.119 548.025H709.499L651.759 548.555H650.379L650.209 548.355L639.009 535.065L634.789 530.055L634.619 529.845L634.259 529.425L634.059 529.185L633.799 528.875L625.589 519.135L628.589 506.635L633.699 485.575L633.829 485.065L634.829 481.065L635.539 478.065L637.919 468.285L646.079 434.635L660.579 442.135L675.869 469.135L684.079 483.635H688.579C689.429 483.635 691.379 485.275 693.339 487.165C694.039 487.835 694.739 488.545 695.339 489.165C697.119 491.005 698.529 492.585 698.529 492.585C698.529 492.585 705.819 492.745 707.779 498.485C707.88 498.763 707.964 499.046 708.029 499.335C708.679 501.591 709.526 503.786 710.559 505.895C711.849 508.705 713.469 511.895 715.109 515.085C718.159 520.935 721.259 526.505 722.399 528.525L722.539 528.775L722.919 529.375Z" fill="#6C63FF"/>
<path id="Vector_53" opacity="0.1" d="M637.019 484.225L636.919 485.655V485.755L636.749 488.055L635.419 506.565L633.809 528.865L633.349 535.145L632.349 548.585V548.755L525.349 549.755L349.759 551.655V552.495H349.619V551.655V551.375L350.069 537.015L350.929 508.955L351.669 485.165L351.739 482.795C351.783 481.365 352.118 479.958 352.723 478.661C353.329 477.365 354.192 476.205 355.261 475.253C356.33 474.301 357.582 473.577 358.939 473.126C360.297 472.674 361.733 472.503 363.159 472.625C367.879 473.025 374.009 473.515 381.339 474.035L384.339 474.255C426.669 477.195 504.899 480.995 583.839 476.255C585.499 476.165 587.169 476.065 588.839 475.945C601.079 475.175 613.309 474.185 625.419 472.945C626.95 472.785 628.497 472.962 629.952 473.464C631.407 473.966 632.735 474.782 633.841 475.852C634.947 476.923 635.804 478.223 636.353 479.661C636.903 481.099 637.13 482.64 637.019 484.175V484.225Z" fill="black"/>
<path id="Vector_54" d="M349.729 552.495V551.655L525.35 549.745L632.35 548.745H632.65V548.575L633.65 535.135L634.079 529.135L635.72 506.525L637.009 488.625V488.185C637.069 487.36 637.032 486.531 636.9 485.715C636.905 485.681 636.905 485.648 636.9 485.615C636.625 483.927 635.938 482.333 634.9 480.975C633.798 479.563 632.356 478.454 630.708 477.755C629.059 477.055 627.26 476.786 625.48 476.975C613.37 478.215 601.14 479.205 588.9 479.975C587.23 480.095 585.56 480.195 583.9 480.285C504.96 484.975 426.73 481.175 384.4 478.285L381.4 478.065C374.07 477.545 367.94 477.065 363.22 476.655C360.623 476.435 358.037 477.186 355.962 478.761C353.886 480.336 352.467 482.625 351.979 485.185C351.879 485.726 351.818 486.274 351.799 486.825L351.12 508.985L350.19 537.055L349.75 551.415V551.695V552.535L349.729 552.495Z" fill="#3F3D56"/>
<path id="Vector_55" opacity="0.1" d="M637.319 491.235L636.089 506.565L634.259 529.415L633.799 535.135L632.799 547.945L632.739 548.585V548.755L632.589 550.235L632.699 548.755H632.409L525.409 549.755L349.759 551.655V551.375L350.249 537.015L351.249 508.955L351.889 490.305C351.92 489.244 352.217 488.208 352.751 487.291C353.286 486.374 354.041 485.605 354.949 485.055C356.081 484.361 357.405 484.046 358.729 484.155C360.829 484.325 363.409 484.525 366.419 484.745C371.309 485.105 377.339 485.525 384.359 485.965C397.359 486.785 413.669 487.665 432.359 488.385C484.359 490.385 554.559 491.055 621.239 485.215C624.239 484.955 627.339 484.665 630.369 484.375C631.568 484.255 632.777 484.485 633.849 485.035C634.153 485.186 634.441 485.367 634.709 485.575C635.579 486.206 636.269 487.054 636.709 488.035C636.811 488.23 636.895 488.434 636.959 488.645C637.259 489.474 637.382 490.356 637.319 491.235V491.235Z" fill="black"/>
<path id="Vector_56" opacity="0.1" d="M298.089 504.925V508.115C298.09 509.275 297.761 510.411 297.141 511.392C296.522 512.372 295.637 513.157 294.589 513.655L254.489 514.425C253.423 513.936 252.519 513.151 251.886 512.164C251.254 511.176 250.918 510.028 250.919 508.855V505.855L298.089 504.925Z" fill="black"/>
<path id="Vector_57" d="M298.589 515.535L246.339 516.535V507.865L298.589 506.865V515.535Z" fill="#3F3D56"/>
<path id="Vector_58" opacity="0.1" d="M298.589 515.535L246.339 516.535V507.865L298.589 506.865V515.535Z" fill="black"/>
<path id="Vector_59" d="M300.589 515.535L248.339 516.535V507.865L300.589 506.865V515.535Z" fill="#3F3D56"/>
<g id="Group_2" opacity="0.1">
<path id="Vector_60" opacity="0.1" d="M473.58 188.615C472.603 187.346 471.954 185.855 471.69 184.275C471.449 185.82 471.593 187.4 472.11 188.875C472.606 188.83 473.098 188.743 473.58 188.615Z" fill="black"/>
<path id="Vector_61" opacity="0.1" d="M460.879 195.256C460.69 194.03 460.567 192.795 460.509 191.556C460.509 192.786 460.509 194.026 460.509 195.266L460.879 195.256Z" fill="black"/>
<path id="Vector_62" opacity="0.1" d="M542.379 228.626C542.435 227.735 542.555 226.849 542.739 225.976C543.212 224.455 543.481 222.877 543.539 221.286C543.517 220.928 543.463 220.574 543.379 220.226C543.209 221.146 542.939 222.066 542.739 222.976C542.34 224.831 542.219 226.735 542.379 228.626Z" fill="black"/>
<path id="Vector_63" opacity="0.1" d="M521.579 197.725L522.669 198.515C523.588 197.851 524.448 197.108 525.239 196.295C525.615 195.775 525.849 195.165 525.915 194.526C525.982 193.887 525.88 193.242 525.619 192.655C525.519 192.884 525.392 193.099 525.239 193.295C524.009 194.875 521.289 195.745 521.579 197.725Z" fill="black"/>
<path id="Vector_64" opacity="0.1" d="M439.409 207.346C439.044 208.075 438.753 208.839 438.539 209.626C440.103 208.753 441.788 208.116 443.539 207.736L439.409 207.346Z" fill="black"/>
<path id="Vector_65" opacity="0.1" d="M453.199 196.465C452.542 196.103 451.914 195.692 451.319 195.235C451.294 195.631 451.324 196.028 451.409 196.415C452.006 196.387 452.605 196.404 453.199 196.465V196.465Z" fill="black"/>
<path id="Vector_66" opacity="0.1" d="M550.969 255.386C550.559 260.236 548.299 264.906 546.469 269.506C542.799 278.726 540.729 288.506 539.179 298.316C537.789 307.106 536.179 317.086 528.679 321.956C526.536 323.236 524.242 324.244 521.849 324.956C511.069 328.686 500.199 332.426 488.849 333.786C477.499 335.146 465.589 333.956 455.689 328.296C452.819 326.798 450.355 324.626 448.509 321.966C445.839 317.736 445.789 312.436 444.509 307.596C443.418 304.002 442.081 300.487 440.509 297.076C438.299 291.696 436.599 286.076 434.909 280.546C433.343 275.406 431.779 270.262 430.219 265.116C429.705 263.568 429.324 261.979 429.079 260.366C428.689 262.926 429.449 265.606 430.219 268.116C431.779 273.269 433.343 278.412 434.909 283.546C436.599 289.116 438.299 294.696 440.509 300.076C442.081 303.487 443.418 307.002 444.509 310.596C445.769 315.436 445.819 320.736 448.509 324.966C450.355 327.626 452.819 329.798 455.689 331.296C465.589 336.956 477.529 338.146 488.849 336.786C500.169 335.426 511.029 331.686 521.849 327.956C524.242 327.244 526.536 326.236 528.679 324.956C536.129 320.086 537.789 310.106 539.179 301.316C540.729 291.506 542.799 281.726 546.469 272.506C548.649 267.026 551.469 261.456 550.989 255.566C550.989 255.506 550.969 255.446 550.969 255.386Z" fill="black"/>
<path id="Vector_67" opacity="0.1" d="M431.279 251.515C431.279 251.515 431.279 251.445 431.279 251.405C431.46 249.642 431.303 247.86 430.819 246.155C430.62 245.058 430.489 243.949 430.429 242.835C430.314 244.95 430.445 247.071 430.819 249.155C430.979 249.935 431.159 250.725 431.279 251.515Z" fill="black"/>
<path id="Vector_68" opacity="0.1" d="M434.33 227.056C435.099 225.763 435.971 224.536 436.939 223.385C435.109 225.135 431.73 223.576 431.02 221.146C430.758 222.128 430.758 223.163 431.02 224.146C431.266 224.879 431.702 225.535 432.283 226.046C432.864 226.557 433.57 226.905 434.33 227.056V227.056Z" fill="black"/>
</g>
<path id="Vector_69" opacity="0.1" d="M684.09 483.625C684.09 483.625 687.26 495.125 684.09 505.125C680.92 515.125 684.09 483.625 684.09 483.625Z" fill="black"/>
<path id="Vector_70" opacity="0.1" d="M697.589 495.355C697.589 495.355 698.919 509.955 695.919 512.545C692.919 515.135 697.589 495.355 697.589 495.355Z" fill="black"/>
<path id="Vector_71" d="M198.979 342.824L300.589 341.824" stroke="black" stroke-width="2" stroke-miterlimit="10"/>
<path id="Vector_72" d="M198.979 355.295L300.589 354.305" stroke="black" stroke-width="2" stroke-miterlimit="10"/>
<path id="Vector_73" d="M198.979 367.775L300.589 366.775" stroke="black" stroke-width="2" stroke-miterlimit="10"/>
</g>
</g>
</g>
</svg>
