<svg width="1108" height="619" viewBox="0 0 1108 619" fill="none" xmlns="http://www.w3.org/2000/svg">
<g id="Group 2">
<g id="base">
<path id="Vector" opacity="0.5" d="M243 402.52C220.07 403.52 195.59 408.29 179.62 424.78C153 452.25 164.14 502.18 194.78 525.11C225.42 548.04 267.78 548.75 304.86 539.23C324.79 534.11 345.31 526.29 365.35 530.99C390.6 536.91 408.16 561.25 433.19 568.06C466.82 577.25 499 552.55 531.4 539.6C586.7 517.47 654.72 532 696.16 574.79C707.73 586.73 717.64 600.85 732.09 609.06C746.7 617.37 764.2 618.62 781 618.49C831.47 618.09 881.16 606.93 930.39 595.83C961.65 588.83 993.49 581.51 1021.13 565.29C1048.77 549.07 1072.05 522.15 1075.66 490.29C1076.29 484.74 1076.27 478.88 1073.82 473.85C1069.77 465.52 1060.3 461.58 1051.63 458.33C1025.87 448.68 996.92 439.05 971.63 449.97C965 452.84 958.85 457.07 951.77 458.53C931.56 462.68 915.05 443.87 899.31 430.53C850.59 389.25 779.59 393.02 717.41 378.25C645 361.11 568.12 347.09 492.84 358C454.96 363.49 425.84 389.21 389.65 399.15C341.94 412.25 291.56 400.45 243 402.52Z" fill="#FF5E45"/>
</g>
<g id="bigLeaf">
<path id="Vector_2" d="M290.37 353.25C301.37 393.48 254.44 508.08 254.44 508.08C254.44 508.08 155.7 433.33 144.7 393.08C142.015 383.494 141.253 373.471 142.456 363.589C143.66 353.707 146.805 344.16 151.712 335.498C156.619 326.836 163.191 319.23 171.048 313.118C178.906 307.005 187.894 302.506 197.497 299.881C207.1 297.255 217.127 296.554 227.002 297.818C236.876 299.083 246.403 302.287 255.035 307.247C263.666 312.207 271.232 318.825 277.296 326.72C283.36 334.615 287.803 343.631 290.37 353.25Z" fill="#FF4852"/>
<path id="Vector_3" d="M198 300.6C198 300.6 259.47 393.39 254.83 508.35" stroke="#535461" stroke-miterlimit="10"/>
<path id="Vector_4" opacity="0.1" d="M290.37 353.25C301.37 393.48 254.44 508.08 254.44 508.08C254.44 508.08 155.7 433.33 144.7 393.08C142.015 383.494 141.253 373.471 142.456 363.589C143.66 353.707 146.805 344.16 151.712 335.498C156.619 326.836 163.191 319.23 171.048 313.118C178.906 307.005 187.894 302.506 197.497 299.881C207.1 297.255 217.127 296.554 227.002 297.818C236.876 299.083 246.403 302.287 255.035 307.247C263.666 312.207 271.232 318.825 277.296 326.72C283.36 334.615 287.803 343.631 290.37 353.25Z" fill="url(#paint0_linear)"/>
</g>
<path id="Vector_5" opacity="0.1" d="M891.1 279.6C891.22 279.45 891.28 279.35 891.28 279.35L891.1 279.6Z" fill="url(#paint1_linear)"/>
<path id="Vector_6" d="M817.61 307.57L817.44 307.8L817.61 307.57Z" fill="#D39999"/>
<g id="bigTree">
<path id="Vector_7" d="M1012 512.63C1012 512.63 993.26 449 1015.51 402.18C1024.96 382.611 1027.81 360.507 1023.64 339.18C1021.57 329.065 1018.58 319.16 1014.71 309.59" stroke="#535461" stroke-width="2" stroke-miterlimit="10"/>
<path id="Vector_8" d="M1028.6 279.94C1028.6 287.74 1014.48 310.35 1014.48 310.35C1014.48 310.35 1000.36 287.74 1000.36 279.94C1000.36 276.195 1001.85 272.604 1004.5 269.956C1007.14 267.308 1010.74 265.82 1014.48 265.82C1018.22 265.82 1021.82 267.308 1024.46 269.956C1027.11 272.604 1028.6 276.195 1028.6 279.94Z" fill="#FF4852"/>
<path id="Vector_9" d="M1051.94 323.14C1047.7 329.69 1023.56 340.99 1023.56 340.99C1023.56 340.99 1024 314.34 1028.24 307.79C1030.3 304.709 1033.49 302.563 1037.13 301.816C1040.76 301.068 1044.54 301.779 1047.65 303.794C1050.76 305.81 1052.96 308.968 1053.76 312.588C1054.56 316.208 1053.91 319.998 1051.94 323.14Z" fill="#FF4852"/>
<path id="Vector_10" d="M1050.92 396.94C1043.92 400.45 1017.41 398.03 1017.41 398.03C1017.41 398.03 1031.24 375.24 1038.21 371.73C1039.87 370.845 1041.69 370.301 1043.56 370.13C1045.44 369.958 1047.33 370.163 1049.12 370.732C1050.91 371.3 1052.57 372.221 1054.01 373.441C1055.44 374.661 1056.61 376.155 1057.46 377.834C1058.31 379.514 1058.81 381.346 1058.94 383.223C1059.07 385.1 1058.82 386.983 1058.21 388.763C1057.6 390.543 1056.64 392.183 1055.39 393.587C1054.14 394.992 1052.62 396.131 1050.92 396.94Z" fill="#FF4852"/>
<path id="Vector_11" d="M1037.57 452.62C1031.3 457.26 1004.73 459.35 1004.73 459.35C1004.73 459.35 1014.51 434.55 1020.78 429.92C1022.27 428.774 1023.97 427.937 1025.78 427.456C1027.6 426.976 1029.49 426.862 1031.35 427.122C1033.21 427.382 1035 428.01 1036.61 428.969C1038.23 429.929 1039.63 431.2 1040.75 432.71C1041.87 434.219 1042.67 435.936 1043.11 437.76C1043.56 439.584 1043.64 441.478 1043.34 443.332C1043.04 445.186 1042.38 446.962 1041.39 448.557C1040.4 450.152 1039.1 451.533 1037.57 452.62Z" fill="#FF4852"/>
<path id="Vector_12" d="M993.91 342.5C999.5 347.93 1025.56 353.56 1025.56 353.56C1025.56 353.56 1019.18 327.68 1013.56 322.24C1010.86 319.687 1007.27 318.298 1003.56 318.375C999.846 318.452 996.313 319.988 993.725 322.651C991.137 325.314 989.702 328.889 989.731 332.602C989.76 336.316 991.251 339.868 993.88 342.49L993.91 342.5Z" fill="#FF4852"/>
<path id="Vector_13" d="M979.13 407.81C986.13 411.32 1012.64 408.9 1012.64 408.9C1012.64 408.9 998.81 386.11 991.84 382.6C988.509 381.014 984.689 380.795 981.198 381.99C977.708 383.184 974.823 385.698 973.162 388.992C971.501 392.287 971.196 396.101 972.311 399.617C973.427 403.134 975.874 406.075 979.13 407.81Z" fill="#FF4852"/>
<path id="Vector_14" d="M973.47 473.25C979.74 477.89 1006.31 479.98 1006.31 479.98C1006.31 479.98 996.53 455.18 990.26 450.55C987.245 448.41 983.511 447.537 979.86 448.12C976.21 448.703 972.933 450.695 970.734 453.667C968.536 456.64 967.591 460.356 968.102 464.017C968.614 467.679 970.541 470.994 973.47 473.25Z" fill="#FF4852"/>
</g>
<g id="smallTree">
<path id="Vector_15" d="M943.16 477.47C943.16 477.47 931.38 437.47 945.37 408.03C951.316 395.721 953.109 381.815 950.48 368.4C949.182 362.042 947.304 355.816 944.87 349.8" stroke="#535461" stroke-width="2" stroke-miterlimit="10"/>
<path id="Vector_16" d="M953.57 331.19C953.57 336.09 944.69 350.31 944.69 350.31C944.69 350.31 935.81 336.09 935.81 331.19C935.887 328.888 936.856 326.706 938.512 325.104C940.168 323.503 942.381 322.608 944.685 322.608C946.989 322.608 949.202 323.503 950.858 325.104C952.514 326.706 953.483 328.888 953.56 331.19H953.57Z" fill="#FF4852"/>
<path id="Vector_17" d="M968.25 358.34C965.59 362.45 950.41 369.56 950.41 369.56C950.41 369.56 950.69 352.8 953.35 348.69C953.966 347.673 954.78 346.791 955.743 346.094C956.706 345.398 957.799 344.902 958.958 344.636C960.116 344.37 961.316 344.339 962.487 344.546C963.657 344.752 964.775 345.191 965.772 345.838C966.77 346.484 967.628 347.324 968.295 348.307C968.962 349.291 969.425 350.399 969.656 351.565C969.887 352.731 969.881 353.931 969.64 355.095C969.398 356.259 968.926 357.362 968.25 358.34Z" fill="#FF4852"/>
<path id="Vector_18" d="M967.6 404.74C963.22 406.95 946.53 405.42 946.53 405.42C946.53 405.42 955.23 391.09 959.6 388.89C961.694 387.898 964.092 387.763 966.284 388.515C968.475 389.266 970.286 390.845 971.33 392.913C972.374 394.982 972.569 397.376 971.872 399.586C971.175 401.795 969.642 403.645 967.6 404.74Z" fill="#FF4852"/>
<path id="Vector_19" d="M959.21 439.74C955.27 442.66 938.56 443.97 938.56 443.97C938.56 443.97 944.71 428.38 948.65 425.47C950.546 424.151 952.882 423.623 955.162 423.998C957.441 424.372 959.485 425.621 960.859 427.478C962.233 429.334 962.829 431.654 962.522 433.943C962.214 436.233 961.026 438.312 959.21 439.74Z" fill="#FF4852"/>
<path id="Vector_20" d="M931.77 370.51C935.29 373.93 951.67 377.51 951.67 377.51C951.67 377.51 947.67 361.24 944.14 357.82C943.314 356.962 942.324 356.279 941.228 355.812C940.133 355.344 938.955 355.102 937.764 355.1C936.573 355.097 935.393 355.334 934.296 355.796C933.198 356.259 932.205 356.937 931.375 357.791C930.545 358.645 929.895 359.658 929.465 360.768C929.034 361.878 928.831 363.064 928.868 364.254C928.905 365.445 929.181 366.615 929.679 367.697C930.178 368.779 930.889 369.749 931.77 370.55V370.51Z" fill="#FF4852"/>
<path id="Vector_21" d="M922.47 411.57C926.85 413.78 943.54 412.25 943.54 412.25C943.54 412.25 934.84 397.92 930.47 395.72C928.376 394.728 925.978 394.593 923.786 395.345C921.595 396.097 919.784 397.675 918.74 399.743C917.696 401.812 917.502 404.206 918.198 406.416C918.895 408.625 920.428 410.475 922.47 411.57Z" fill="#FF4852"/>
<path id="Vector_22" d="M918.92 452.71C922.86 455.63 939.57 456.94 939.57 456.94C939.57 456.94 933.42 441.35 929.48 438.44C928.546 437.706 927.474 437.166 926.328 436.853C925.182 436.541 923.985 436.461 922.807 436.619C921.63 436.778 920.496 437.171 919.473 437.775C918.451 438.379 917.559 439.183 916.853 440.138C916.146 441.093 915.638 442.18 915.359 443.335C915.08 444.49 915.036 445.689 915.228 446.861C915.421 448.033 915.847 449.155 916.481 450.16C917.115 451.164 917.945 452.032 918.92 452.71Z" fill="#FF4852"/>
</g>
<g id="rightOne">
<path id="Vector_23" d="M966.407 35.079L941 54.5332L960.454 79.9405L985.862 60.4863L966.407 35.079Z" fill="#FF7053"/>
<path id="Vector_24" d="M968.071 81.6654L947.401 54.6701L974.397 34L995.067 60.9953L968.071 81.6654ZM950.205 55.0422L968.444 78.8616L992.263 60.6233L974.025 36.8039L950.205 55.0422Z" fill="#3F3D56"/>
<line id="Line 1" x1="995" y1="40" x2="1049" y2="40" stroke="black" stroke-width="2"/>
<line id="Line 3" x1="1006" y1="57" x2="1102" y2="57" stroke="black" stroke-width="2"/>
<line id="Line 2" x1="977" y1="79" x2="1108" y2="79" stroke="black" stroke-width="2"/>
</g>
<g id="leftOne">
<path id="Vector_25" d="M141.593 62.079L167 81.5332L147.546 106.941L122.138 87.4863L141.593 62.079Z" fill="#FF7053"/>
<path id="Vector_26" d="M139.929 108.665L160.599 81.6701L133.603 61L112.933 87.9953L139.929 108.665ZM157.795 82.0422L139.556 105.862L115.737 87.6233L133.975 63.8039L157.795 82.0422Z" fill="#3F3D56"/>
<line id="Line 10" y1="-1" x2="54" y2="-1" transform="matrix(-1 0 0 1 113 68)" stroke="black" stroke-width="2"/>
<line id="Line 12" y1="-1" x2="96" y2="-1" transform="matrix(-1 0 0 1 107 85)" stroke="black" stroke-width="2"/>
<line id="Line 14" y1="-1" x2="131" y2="-1" transform="matrix(-1 0 0 1 131 107)" stroke="black" stroke-width="2"/>
</g>
<g id="rightTwo">
<path id="Vector_27" d="M948.407 126.079L923 145.533L942.454 170.941L967.862 151.487L948.407 126.079Z" fill="#FF4852"/>
<path id="Vector_28" d="M950.072 172.665L929.401 145.67L956.397 125L977.067 151.995L950.072 172.665ZM932.205 146.042L950.444 169.862L974.263 151.623L956.025 127.804L932.205 146.042Z" fill="#3F3D56"/>
<line id="Line 7" x1="882" y1="125" x2="936" y2="125" stroke="black" stroke-width="2"/>
<line id="Line 8" x1="851" y1="141" x2="919" y2="141" stroke="black" stroke-width="2"/>
<line id="Line 9" x1="833" y1="165" x2="931" y2="165" stroke="black" stroke-width="2"/>
</g>
<g id="window">
<path id="Vector_29" d="M269.8 0V26.92V486.08H826.08V26.92V0H269.8Z" fill="url(#paint2_linear)"/>
<path id="Vector_30" d="M822.53 0H273.36V15.55H822.53V0Z" fill="#535461"/>
<path id="Vector_31" d="M822.17 15.11H273V475.55H822.17V15.11Z" fill="white"/>
<path id="Vector_32" d="M283.58 10.22C285.055 10.22 286.25 9.02461 286.25 7.55C286.25 6.0754 285.055 4.88 283.58 4.88C282.105 4.88 280.91 6.0754 280.91 7.55C280.91 9.02461 282.105 10.22 283.58 10.22Z" fill="#FA595F"/>
<path id="Vector_33" d="M291.57 10.22C293.045 10.22 294.24 9.02461 294.24 7.55C294.24 6.0754 293.045 4.88 291.57 4.88C290.095 4.88 288.9 6.0754 288.9 7.55C288.9 9.02461 290.095 10.22 291.57 10.22Z" fill="#FFC74C"/>
<path id="Vector_34" d="M299.57 10.22C301.045 10.22 302.24 9.02461 302.24 7.55C302.24 6.0754 301.045 4.88 299.57 4.88C298.095 4.88 296.9 6.0754 296.9 7.55C296.9 9.02461 298.095 10.22 299.57 10.22Z" fill="#85D459"/>
<path id="Vector_35" d="M659.8 219H444.75V227.89H659.8V219Z" fill="#FBF2EB"/>
<path id="Vector_36" d="M552.05 301.74H337V310.63H552.05V301.74Z" fill="#FBF2EB"/>
<path id="Vector_37" d="M552.05 321.29H337V330.18H552.05V321.29Z" fill="#FBF2EB"/>
<path id="Vector_38" d="M552.05 340.84H337V349.73H552.05V340.84Z" fill="#FBF2EB"/>
<path id="Vector_39" d="M552.05 360.39H337V369.28H552.05V360.39Z" fill="#FBF2EB"/>
<path id="Vector_40" d="M552.05 379.94H337V388.83H552.05V379.94Z" fill="#FBF2EB"/>
<path id="Vector_41" d="M552.05 399.49H337V408.38H552.05V399.49Z" fill="#FBF2EB"/>
<path id="Vector_42" d="M552.05 419.04H337V427.93H552.05V419.04Z" fill="#FBF2EB"/>
<path id="Vector_43" d="M598.48 236.77H506.06V245.66H598.48V236.77Z" fill="#FBF2EB"/>
<path id="Vector_44" d="M758.22 320.4H651.58V391.49H758.22V320.4Z" fill="#FBF2EB"/>
<path id="Vector_45" d="M716.269 215.706H379.731C378.211 215.704 376.755 215.1 375.68 214.025C374.606 212.951 374.002 211.494 374 209.975V46.7306C374.002 45.2113 374.606 43.7547 375.68 42.6804C376.755 41.606 378.211 41.0017 379.731 41H716.269C717.789 41.0017 719.245 41.606 720.32 42.6803C721.394 43.7547 721.998 45.2113 722 46.7306V209.975C721.998 211.494 721.394 212.951 720.32 214.025C719.245 215.1 717.789 215.704 716.269 215.706Z" fill="white"/>
<path id="Vector_46" d="M465.362 73.0388H405.46C403.94 73.0398 402.483 73.6439 401.409 74.7183C400.334 75.7928 399.73 77.2498 399.729 78.7694V118.142C399.73 119.662 400.334 121.119 401.409 122.193C402.483 123.268 403.94 123.872 405.46 123.873H465.362C466.881 123.871 468.337 123.266 469.411 122.192C470.486 121.118 471.09 119.661 471.092 118.142V78.7694C471.09 77.2502 470.486 75.7938 469.411 74.7196C468.337 73.6453 466.881 73.0409 465.362 73.0388Z" fill="#FBF2EB"/>
<path id="Vector_47" d="M577.951 73.0388H518.05C516.53 73.0398 515.073 73.6439 513.999 74.7183C512.924 75.7928 512.32 77.2498 512.319 78.7694V118.142C512.32 119.662 512.924 121.119 513.999 122.193C515.073 123.268 516.53 123.872 518.05 123.873H577.951C579.471 123.871 580.927 123.266 582.001 122.192C583.076 121.118 583.68 119.661 583.682 118.142V78.7694C583.68 77.2502 583.076 75.7938 582.001 74.7196C580.927 73.6453 579.471 73.0409 577.951 73.0388Z" fill="#FBF2EB"/>
<path id="Vector_48" d="M690.541 73.0388H630.639C629.12 73.0398 627.663 73.6439 626.588 74.7183C625.514 75.7928 624.91 77.2498 624.909 78.7694V118.142C624.91 119.662 625.514 121.119 626.588 122.193C627.663 123.268 629.12 123.872 630.639 123.873H690.541C692.061 123.871 693.517 123.266 694.591 122.192C695.665 121.118 696.27 119.661 696.272 118.142V78.7694C696.27 77.2502 695.665 75.7938 694.591 74.7196C693.517 73.6453 692.061 73.0409 690.541 73.0388Z" fill="#FBF2EB"/>
<path id="Vector_49" d="M456.887 142.48H413.934C413.09 142.48 412.279 142.816 411.682 143.413C411.085 144.011 410.749 144.821 410.749 145.666C410.749 146.511 411.085 147.321 411.682 147.918C412.279 148.516 413.09 148.851 413.934 148.851H456.887C457.732 148.851 458.542 148.516 459.14 147.918C459.737 147.321 460.073 146.511 460.073 145.666C460.073 144.821 459.737 144.011 459.14 143.413C458.542 142.816 457.732 142.48 456.887 142.48Z" fill="#FBF2EB"/>
<path id="Vector_50" d="M456.887 159.888H413.935C413.205 159.887 412.498 160.136 411.93 160.593C411.363 161.051 410.97 161.69 410.816 162.402C410.663 163.115 410.759 163.859 411.089 164.51C411.418 165.16 411.961 165.678 412.626 165.976C413.037 166.163 413.483 166.26 413.935 166.259H456.887C457.732 166.259 458.542 165.923 459.14 165.326C459.737 164.729 460.073 163.918 460.073 163.074C460.073 162.229 459.737 161.418 459.14 160.821C458.542 160.224 457.732 159.888 456.887 159.888Z" fill="#FBF2EB"/>
<path id="Vector_51" d="M456.887 177.296H413.934C413.09 177.296 412.279 177.631 411.682 178.229C411.085 178.826 410.749 179.636 410.749 180.481C410.749 181.326 411.085 182.136 411.682 182.734C412.279 183.331 413.09 183.667 413.934 183.667H456.887C457.732 183.667 458.542 183.331 459.14 182.734C459.737 182.136 460.073 181.326 460.073 180.481C460.073 179.636 459.737 178.826 459.14 178.229C458.542 177.631 457.732 177.296 456.887 177.296Z" fill="#FBF2EB"/>
<path id="Vector_52" d="M569.477 142.48H526.524C525.679 142.48 524.869 142.816 524.272 143.413C523.674 144.011 523.339 144.821 523.339 145.666C523.339 146.511 523.674 147.321 524.272 147.918C524.869 148.516 525.679 148.851 526.524 148.851H569.477C570.322 148.851 571.132 148.516 571.73 147.918C572.327 147.321 572.663 146.511 572.663 145.666C572.663 144.821 572.327 144.011 571.73 143.413C571.132 142.816 570.322 142.48 569.477 142.48Z" fill="#FBF2EB"/>
<path id="Vector_53" d="M569.477 159.888H526.524C525.679 159.888 524.869 160.224 524.272 160.821C523.674 161.418 523.339 162.229 523.339 163.074C523.339 163.918 523.674 164.729 524.272 165.326C524.869 165.923 525.679 166.259 526.524 166.259H569.477C570.322 166.259 571.132 165.923 571.73 165.326C572.327 164.729 572.663 163.918 572.663 163.074C572.663 162.229 572.327 161.418 571.73 160.821C571.132 160.224 570.322 159.888 569.477 159.888Z" fill="#FBF2EB"/>
<path id="Vector_54" d="M569.477 177.296H526.524C525.767 177.295 525.034 177.564 524.457 178.054C523.88 178.545 523.497 179.225 523.376 179.972C523.255 180.72 523.404 181.486 523.797 182.133C524.19 182.781 524.801 183.267 525.52 183.505C525.843 183.614 526.183 183.668 526.524 183.667H569.477C570.322 183.667 571.132 183.331 571.73 182.734C572.327 182.136 572.663 181.326 572.663 180.481C572.663 179.636 572.327 178.826 571.73 178.229C571.132 177.631 570.322 177.296 569.477 177.296Z" fill="#FBF2EB"/>
<path id="Vector_55" d="M682.067 142.48H639.114C638.269 142.48 637.459 142.816 636.862 143.413C636.264 144.011 635.929 144.821 635.929 145.666C635.929 146.511 636.264 147.321 636.862 147.918C637.459 148.516 638.269 148.851 639.114 148.851H682.067C682.912 148.851 683.722 148.516 684.319 147.918C684.917 147.321 685.252 146.511 685.252 145.666C685.252 144.821 684.917 144.011 684.319 143.413C683.722 142.816 682.912 142.48 682.067 142.48Z" fill="#FBF2EB"/>
<path id="Vector_56" d="M682.067 159.888H639.114C638.385 159.887 637.678 160.136 637.11 160.593C636.542 161.051 636.149 161.69 635.996 162.402C635.843 163.115 635.939 163.859 636.268 164.51C636.598 165.16 637.141 165.678 637.806 165.976C638.217 166.163 638.663 166.26 639.114 166.259H682.067C682.912 166.259 683.722 165.923 684.319 165.326C684.917 164.729 685.252 163.918 685.252 163.074C685.252 162.229 684.917 161.418 684.319 160.821C683.722 160.224 682.912 159.888 682.067 159.888Z" fill="#FBF2EB"/>
<path id="Vector_57" d="M682.067 177.296H639.114C638.269 177.296 637.459 177.631 636.862 178.229C636.264 178.826 635.929 179.636 635.929 180.481C635.929 181.326 636.264 182.136 636.862 182.734C637.459 183.331 638.269 183.667 639.114 183.667H682.067C682.912 183.667 683.722 183.331 684.319 182.734C684.917 182.136 685.252 181.326 685.252 180.481C685.252 179.636 684.917 178.826 684.319 178.229C683.722 177.631 682.912 177.296 682.067 177.296Z" fill="#FBF2EB"/>
<path id="Vector_58" d="M444.664 142.48H413.935C413.09 142.48 412.279 142.816 411.682 143.413C411.085 144.011 410.749 144.821 410.749 145.666C410.749 146.511 411.085 147.321 411.682 147.918C412.279 148.516 413.09 148.851 413.935 148.851H444.024C444.632 148.602 445.162 148.192 445.555 147.664C445.949 147.137 446.191 146.513 446.257 145.858C446.323 145.204 446.209 144.543 445.929 143.948C445.648 143.353 445.211 142.846 444.664 142.48Z" fill="#E9D5C6"/>
<path id="Vector_59" d="M430.472 159.888H413.935C413.205 159.887 412.498 160.136 411.93 160.593C411.363 161.051 410.97 161.69 410.816 162.402C410.663 163.115 410.759 163.859 411.089 164.51C411.418 165.16 411.961 165.678 412.626 165.976H427.816C428.778 165.976 429.7 165.593 430.38 164.913C431.061 164.233 431.443 163.311 431.443 162.349C431.448 161.434 431.101 160.553 430.472 159.888Z" fill="#E9D5C6"/>
<path id="Vector_60" d="M453.678 177.296H413.935C413.09 177.296 412.279 177.631 411.682 178.229C411.085 178.826 410.749 179.636 410.749 180.481C410.749 181.326 411.085 182.136 411.682 182.734C412.279 183.331 413.09 183.667 413.935 183.667H453.934C454.497 183.334 454.96 182.855 455.273 182.281C455.586 181.707 455.737 181.058 455.711 180.405C455.685 179.751 455.482 179.117 455.124 178.569C454.766 178.022 454.266 177.582 453.678 177.296Z" fill="#E9D5C6"/>
<path id="Vector_61" d="M649.692 142.48H639.114C638.409 142.48 637.723 142.713 637.165 143.144C636.606 143.575 636.206 144.179 636.028 144.861C635.85 145.544 635.904 146.266 636.18 146.915C636.457 147.564 636.941 148.103 637.557 148.447H646.928C647.89 148.447 648.812 148.064 649.492 147.384C650.173 146.704 650.555 145.782 650.555 144.82C650.558 143.962 650.252 143.131 649.692 142.48Z" fill="#E9D5C6"/>
<path id="Vector_62" d="M657.674 159.888H639.114C638.385 159.887 637.678 160.136 637.11 160.593C636.542 161.051 636.149 161.69 635.996 162.402C635.843 163.115 635.939 163.859 636.268 164.51C636.598 165.16 637.141 165.678 637.806 165.976H655.018C655.98 165.976 656.902 165.593 657.583 164.913C658.263 164.233 658.645 163.311 658.645 162.349C658.65 161.434 658.303 160.553 657.674 159.888Z" fill="#E9D5C6"/>
<path id="Vector_63" d="M670.767 177.296H639.114C638.269 177.296 637.459 177.631 636.862 178.229C636.264 178.826 635.929 179.636 635.929 180.481C635.929 181.326 636.264 182.136 636.862 182.734C637.459 183.331 638.269 183.667 639.114 183.667H671.023C671.587 183.334 672.05 182.855 672.362 182.281C672.675 181.707 672.827 181.058 672.8 180.405C672.774 179.751 672.571 179.117 672.213 178.569C671.855 178.022 671.356 177.582 670.767 177.296Z" fill="#E9D5C6"/>
<path id="Vector_64" d="M566.49 159.888H526.524C525.68 159.888 524.869 160.224 524.272 160.821C523.674 161.418 523.339 162.229 523.339 163.074C523.339 163.918 523.674 164.729 524.272 165.326C524.869 165.923 525.68 166.259 526.524 166.259H566.308C566.892 165.966 567.386 165.52 567.737 164.969C568.088 164.417 568.284 163.781 568.302 163.128C568.321 162.475 568.162 161.828 567.843 161.258C567.524 160.687 567.057 160.214 566.49 159.888Z" fill="#E9D5C6"/>
<path id="Vector_65" d="M530.812 177.296H526.524C525.767 177.295 525.034 177.564 524.457 178.054C523.88 178.545 523.497 179.225 523.376 179.972C523.255 180.72 523.404 181.486 523.797 182.133C524.19 182.781 524.801 183.267 525.52 183.505H528.27C529.232 183.505 530.155 183.122 530.835 182.442C531.515 181.762 531.897 180.84 531.898 179.878C531.899 179.397 531.804 178.92 531.618 178.476C531.431 178.033 531.157 177.631 530.812 177.296Z" fill="#E9D5C6"/>
<path id="Vector_66" d="M549.838 142.48H526.524C525.679 142.48 524.869 142.816 524.272 143.413C523.674 144.011 523.339 144.821 523.339 145.666C523.339 146.511 523.674 147.321 524.272 147.918C524.869 148.516 525.679 148.851 526.524 148.851H549.197C549.806 148.602 550.336 148.192 550.729 147.664C551.122 147.137 551.365 146.513 551.431 145.858C551.497 145.204 551.383 144.543 551.102 143.948C550.822 143.353 550.385 142.846 549.838 142.48Z" fill="#E9D5C6"/>
</g>
<g id="leftTwo">
<path id="Vector_67" d="M114.659 169.079L140.067 188.533L120.613 213.941L95.2053 194.487L114.659 169.079Z" fill="#FF4852"/>
<path id="Vector_68" d="M112.995 215.665L133.665 188.67L106.67 168L86 194.995L112.995 215.665ZM130.862 189.042L112.623 212.862L88.8039 194.623L107.042 170.804L130.862 189.042Z" fill="#3F3D56"/>
<line id="Line 11" y1="-1" x2="54" y2="-1" transform="matrix(-1 0 0 1 176 168)" stroke="black" stroke-width="2"/>
<line id="Line 13" x1="221" y1="185" x2="140" y2="185" stroke="black" stroke-width="2"/>
<line id="Line 15" x1="258.008" y1="209" x2="131.008" y2="210" stroke="black" stroke-width="2"/>
</g>
<g id="smallLeaf">
<path id="Vector_69" d="M304.298 426.744C304.298 426.744 248.558 396.424 255.618 508.344C255.618 508.344 302.118 506.684 318.618 468.754C321.85 461.374 322.26 453.065 319.772 445.403C317.283 437.74 312.069 431.257 305.118 427.184L304.298 426.744Z" fill="#E5414A"/>
<path id="Vector_70" d="M307 427C307 427 299.8 485.1 257.41 508.41" stroke="#535461" stroke-miterlimit="10"/>
</g>
</g>
<defs>
<linearGradient id="paint0_linear" x1="216.971" y1="297.207" x2="242" y2="502" gradientUnits="userSpaceOnUse">
<stop stop-color="#F84650"/>
<stop offset="0.536368" stop-color="#FF7053"/>
</linearGradient>
<linearGradient id="paint1_linear" x1="1049.94" y1="384.438" x2="1049.94" y2="384.378" gradientUnits="userSpaceOnUse">
<stop stop-color="#808080" stop-opacity="0.25"/>
<stop offset="0.54" stop-color="#808080" stop-opacity="0.12"/>
<stop offset="1" stop-color="#808080" stop-opacity="0.1"/>
</linearGradient>
<linearGradient id="paint2_linear" x1="547.94" y1="486.08" x2="547.94" y2="0" gradientUnits="userSpaceOnUse">
<stop stop-color="#808080" stop-opacity="0.25"/>
<stop offset="0.54" stop-color="#808080" stop-opacity="0.12"/>
<stop offset="1" stop-color="#808080" stop-opacity="0.1"/>
</linearGradient>
</defs>
</svg>
