<svg width="957" height="845" viewBox="0 0 957 845" fill="none" xmlns="http://www.w3.org/2000/svg">
<g id="idea">
<g id="girl">
<path id="tys4tyzy" d="M387.612 844.996L272.401 837.315L267.281 775.869L241.679 829.634L129.028 814.273C131.589 716.984 172.552 622.255 175.113 609.454C177.673 596.653 183.792 543.759 183.792 543.759C194.98 520.025 253.609 517.798 299.565 519.948C318.614 520.819 335.511 522.457 345.931 523.635C352.818 524.403 356.889 524.967 356.889 524.967C375.246 543.887 387.074 569.668 394.345 598.471C420.562 702.237 387.612 844.996 387.612 844.996Z" fill="#2F2E41"/>
<path id="yshxyhs" d="M259.601 251.021C294.95 251.021 323.606 222.365 323.606 187.016C323.606 151.666 294.95 123.01 259.601 123.01C224.251 123.01 195.595 151.666 195.595 187.016C195.595 222.365 224.251 251.021 259.601 251.021Z" fill="#A0616A"/>
<path id="e4tzgxdrhs" d="M216.077 202.377C216.077 202.377 198.155 281.744 169.993 304.786C141.83 327.828 280.083 304.786 280.083 304.786C280.083 304.786 249.36 253.582 272.402 230.539C295.444 207.497 216.077 202.377 216.077 202.377Z" fill="#A0616A"/>
<path id="bhw4yzy" d="M346.648 530.086L304.174 534.797L185.354 548.008C185.354 548.008 184.79 546.497 183.792 543.758C175.164 520.229 133.611 405.736 129.028 371.352C123.908 332.948 177.673 286.864 177.673 286.864C177.673 286.864 228.877 276.623 244.239 276.623C259.6 276.623 321.046 299.665 321.046 299.665L343.96 505.789L345.931 523.634L346.648 530.086Z" fill="#D0CDE1"/>
<path id="je5hxg34" opacity="0.15" d="M394.345 598.47L308.245 548.008C308.245 548.008 306.734 543.092 304.174 534.797C302.894 530.65 301.332 525.632 299.566 519.948C289.632 488.047 272.965 435.409 259.6 396.954C239.119 338.069 338.968 501.924 338.968 501.924L343.96 505.79L345.931 523.635C352.818 524.403 356.889 524.966 356.889 524.966C375.246 543.886 387.074 569.668 394.345 598.47Z" fill="black"/>
<g id="ideaHand">
<path id="Vector" d="M479.78 609.453C479.78 609.453 541.226 612.013 541.226 627.375C541.226 642.736 472.1 627.375 472.1 627.375L479.78 609.453Z" fill="#A0616A"/>
<path id="Vector_2" d="M280.082 304.786C280.082 304.786 254.48 338.069 274.961 396.954C295.443 455.839 323.606 548.008 323.606 548.008L472.099 635.056L492.581 609.453L354.329 501.923C354.329 501.923 349.208 307.346 323.606 299.665C298.004 291.984 280.082 304.786 280.082 304.786Z" fill="#D0CDE1"/>
</g>
<path id="ujxg3yxh" d="M153.351 528.806C153.351 528.806 189.194 603.053 204.555 595.372C219.917 587.692 166.152 510.885 166.152 510.885L153.351 528.806Z" fill="#A0616A"/>
<path id="ne5hxhat" d="M149.51 325.268L13.8181 437.918C13.8181 437.918 -37.3866 473.761 57.3421 499.363C152.071 524.966 159.751 540.327 159.751 540.327C159.751 540.327 169.992 507.044 182.793 512.165L72.7034 458.4L162.312 404.635L149.51 325.268Z" fill="#D0CDE1"/>
<path id="gyhcjdhsyus" d="M94.9739 239.549C102.096 236.022 117.822 228.904 131.217 220.329C130.278 192.431 133.713 167.106 143.77 153.682C149.414 140.866 161.267 128.034 170.551 117.929C193.349 93.1137 243.76 79.262 252.702 91.6606C320.327 92.9957 327.446 146.004 327.446 146.004C327.094 168.176 304.051 168.877 283.864 168.069C285.672 183.206 280.855 198.933 266.905 205.908C240.229 219.246 232.226 236.586 245.564 248.59C258.902 260.594 282.911 292.606 250.899 300.608C218.888 308.611 214.887 324.617 224.223 331.286C233.56 337.955 202.882 319.282 202.882 319.282C202.882 319.282 197.547 351.293 169.537 343.29C167.027 342.573 164.518 340.735 162.052 337.987C154.487 346.299 147.739 351.213 142.652 351.24C113.522 351.395 117.015 319.131 117.015 319.131C117.015 319.131 82.4392 328.841 93.2281 324.936C104.017 321.032 104.479 304.54 75.8112 288.203C47.1432 271.865 78.8932 247.513 94.9739 239.549Z" fill="#2F2E41"/>
</g>
<g id="ideaCircle">
<path id="kutkvjs" d="M956.999 270.31C956.999 305.48 948.669 334.43 934.219 359.23C929.449 367.399 924.036 375.173 918.029 382.48C864.909 447.45 766.149 483.01 676.889 540.61C413.409 710.63 384.869 438.19 396.769 270.31C401.569 202.57 427.949 140.52 469.859 93.01C478.66 83.0179 488.168 73.6705 498.309 65.04C545.889 24.52 607.359 0 676.889 0C796.179 0 898.049 71.95 938.439 173.34C950.718 204.194 957.017 237.102 956.999 270.31V270.31Z" fill="#F2A194"/>
<path id="nstzxgvzg" d="M736.568 60.9199L469.858 93.0099C478.66 83.0178 488.168 73.6704 498.308 65.0399L736.568 60.9199Z" fill="#D0CDE1"/>
<path id="ouhol" d="M934.218 359.23C929.449 367.399 924.035 375.173 918.028 382.48L689.568 355L934.218 359.23Z" fill="#D0CDE1"/>
<path id="yxgey" d="M947.758 201.22L560.568 151L938.438 173.34C942.067 182.45 945.179 191.759 947.758 201.22V201.22Z" fill="#D0CDE1"/>
<path id="agaegz" d="M452.384 323.182L451.919 323.121L453.052 327.427C454.123 333.435 455.678 339.347 457.702 345.104L490.929 471.412C491.989 475.443 494.203 479.077 497.3 481.868C500.396 484.658 504.24 486.485 508.359 487.122L576.119 497.604C580.5 498.282 584.984 497.583 588.951 495.603C592.918 493.624 596.173 490.461 598.265 486.553L662.659 366.276C664.671 362.944 666.51 359.51 668.167 355.988L670.354 351.904L670.013 351.859C676.839 335.712 679.843 318.206 678.792 300.706C677.742 283.206 672.663 266.185 663.954 250.971C655.244 235.756 643.138 222.758 628.58 212.991C614.022 203.223 597.404 196.95 580.023 194.659C562.642 192.369 544.967 194.124 528.376 199.787C511.784 205.449 496.725 214.867 484.371 227.307C472.017 239.746 462.703 254.87 457.155 271.5C451.606 288.13 449.974 305.817 452.384 323.182H452.384Z" fill="#3F3D56"/>
<path id="gyxgzsta" d="M580.278 505.856C579.085 505.856 577.893 505.764 576.714 505.582L505.886 494.624C501.387 493.929 497.189 491.935 493.808 488.887C490.427 485.84 488.009 481.871 486.852 477.468L452.121 345.443C449.999 339.398 448.367 333.193 447.243 326.886L446.365 321.111C444.002 302.658 445.96 283.91 452.085 266.344C458.21 248.779 468.334 232.878 481.659 219.896C494.983 206.914 511.142 197.207 528.861 191.541C546.58 185.875 565.373 184.405 583.757 187.247L583.451 189.224C565.267 186.422 546.679 187.908 529.172 193.564C511.664 199.22 495.721 208.89 482.613 221.801C469.505 234.712 459.597 250.508 453.677 267.929C447.758 285.349 445.992 303.912 448.52 322.136L449.195 326.457C450.311 332.71 451.928 338.863 454.032 344.857L488.786 476.96C489.844 480.986 492.055 484.615 495.147 487.402C498.239 490.188 502.078 492.012 506.192 492.647L577.019 503.605C581.394 504.277 585.87 503.577 589.83 501.601C593.79 499.624 597.041 496.469 599.133 492.569L600.897 493.512C598.896 497.241 595.922 500.357 592.291 502.53C588.661 504.704 584.509 505.853 580.278 505.856V505.856Z" fill="#D0CDE1"/>
<path id="tyxyatg" d="M598.244 351.89L555.147 469.561L557.576 470.45L600.673 352.78L598.244 351.89Z" fill="#D0CDE1"/>
<path id="fgatysx" d="M527.877 341.002L525.293 341.115L530.794 466.308L533.378 466.195L527.877 341.002Z" fill="#D0CDE1"/>
<path id="yxfyy" d="M574.289 565.711L483.532 551.671C482.857 551.562 482.253 551.191 481.851 550.638C481.448 550.086 481.281 549.396 481.386 548.721C481.49 548.045 481.858 547.439 482.408 547.033C482.959 546.628 483.647 546.457 484.323 546.557L575.08 560.598C575.418 560.648 575.742 560.764 576.034 560.94C576.326 561.116 576.581 561.348 576.783 561.623C576.985 561.897 577.131 562.209 577.212 562.54C577.294 562.871 577.309 563.215 577.256 563.552C577.204 563.889 577.086 564.213 576.908 564.504C576.731 564.795 576.498 565.048 576.222 565.249C575.946 565.449 575.633 565.593 575.302 565.673C574.97 565.752 574.626 565.765 574.289 565.711V565.711Z" fill="#3F3D56"/>
<path id="ysgsy" d="M576.617 546.438L485.86 532.398C485.522 532.348 485.198 532.231 484.906 532.055C484.614 531.88 484.36 531.648 484.157 531.373C483.955 531.099 483.809 530.787 483.728 530.456C483.647 530.124 483.632 529.78 483.684 529.443C483.736 529.106 483.854 528.783 484.032 528.492C484.209 528.201 484.443 527.948 484.718 527.747C484.994 527.546 485.307 527.402 485.638 527.323C485.97 527.244 486.314 527.231 486.651 527.285L577.408 541.325C577.745 541.375 578.069 541.492 578.361 541.667C578.654 541.843 578.908 542.075 579.11 542.35C579.313 542.624 579.459 542.936 579.54 543.267C579.621 543.598 579.636 543.942 579.584 544.279C579.532 544.616 579.414 544.94 579.236 545.231C579.058 545.522 578.825 545.775 578.549 545.976C578.274 546.176 577.961 546.321 577.629 546.4C577.298 546.479 576.954 546.492 576.617 546.438V546.438Z" fill="#3F3D56"/>
<path id="gagzyae" d="M578.944 527.164L488.186 513.124C487.512 513.015 486.907 512.644 486.505 512.092C486.103 511.539 485.936 510.849 486.04 510.174C486.145 509.499 486.512 508.892 487.063 508.486C487.613 508.081 488.301 507.91 488.977 508.011L579.735 522.051C580.41 522.159 581.014 522.531 581.416 523.083C581.818 523.636 581.986 524.325 581.881 525.001C581.777 525.676 581.409 526.283 580.859 526.688C580.308 527.094 579.62 527.265 578.944 527.164H578.944Z" fill="#3F3D56"/>
<path id="mfefga" d="M526.09 576.925C544.092 579.71 560.238 571.935 562.153 559.558L496.961 549.473C495.046 561.849 508.088 574.14 526.09 576.925Z" fill="#3F3D56"/>
<path id="eana" d="M558.713 327.1C554.841 326.501 551.637 323.441 549.881 321.389C549.305 320.716 548.744 320.019 548.182 319.319C546.136 316.773 544.205 314.369 541.515 313.115C535.579 310.345 528.583 314.214 522.527 318.364L521.063 316.231C527.722 311.666 535.487 307.449 542.609 310.77C545.844 312.279 548.058 315.034 550.198 317.699C550.743 318.377 551.287 319.054 551.845 319.707C553.672 321.839 557.314 325.295 561.217 324.498C562.862 324.019 564.391 323.209 565.712 322.118C566.719 321.367 567.783 320.696 568.894 320.111C571.147 319.03 573.67 318.641 576.145 318.99C578.619 319.34 580.935 320.414 582.801 322.076C583.466 322.707 584.096 323.373 584.688 324.072C585.852 325.399 586.95 326.651 588.38 327.106C590.495 327.782 592.729 326.573 595.097 325.297C597.539 323.979 600.064 322.616 602.927 322.952C603.02 322.963 603.114 322.976 603.206 322.99C608.302 323.778 610.651 329.414 611.98 333.619L609.513 334.398C607.707 328.681 605.507 325.839 602.624 325.522C600.573 325.28 598.51 326.394 596.326 327.573C593.588 329.051 590.755 330.579 587.595 329.571C585.48 328.898 584.088 327.312 582.743 325.779C582.213 325.151 581.649 324.552 581.055 323.986C579.569 322.684 577.736 321.844 575.78 321.568C573.824 321.291 571.831 321.591 570.042 322.429C569.052 322.956 568.104 323.558 567.206 324.23C565.601 325.539 563.737 326.494 561.736 327.033C560.741 327.236 559.717 327.258 558.713 327.1Z" fill="#D0CDE1"/>
</g>
</g>
</svg>
