<svg width="1012" height="794" viewBox="0 0 1012 794" fill="none" xmlns="http://www.w3.org/2000/svg">
<g id="performance">
<g id="performance_2" clip-path="url(#clip0)">
<path id="Vector" d="M329.31 196.137L209.381 295.596C214.326 301.026 218.119 307.402 220.53 314.34C222.94 321.277 223.919 328.632 223.406 335.959C222.894 343.285 220.9 350.432 217.547 356.966C214.194 363.5 209.55 369.286 203.896 373.975C198.243 378.663 191.697 382.156 184.656 384.243C177.614 386.329 170.222 386.966 162.927 386.115C155.632 385.263 148.585 382.94 142.214 379.288C135.842 375.635 130.277 370.728 125.856 364.864L18.334 454.032L190.69 661.863L501.666 403.968L329.31 196.137Z" fill="#F2F2F2"/>
<path id="Vector_2" d="M1012 497.262C1012 620.101 938.974 662.992 848.892 662.992C758.809 662.992 685.783 620.101 685.783 497.262C685.783 374.422 848.892 218.151 848.892 218.151C848.892 218.151 1012 374.422 1012 497.262Z" fill="#F2F2F2"/>
<path id="Vector_3" d="M842.95 644.201L844.62 541.396L914.141 414.211L844.882 525.269L845.633 479.043L893.547 387.026L845.832 466.81V466.811L847.182 383.672L898.489 310.415L847.395 370.598L848.239 218.151L842.935 419.964L843.371 411.638L791.207 331.793L842.535 427.62L837.674 520.472L837.53 518.007L777.394 433.981L837.347 526.714L836.74 538.326L836.631 538.5L836.68 539.453L824.349 775.026H840.825L842.801 653.348L902.608 560.843L842.95 644.201Z" fill="#3F3D56"/>
<path id="Vector_4" d="M707 794C832.921 794 935 786.389 935 777C935 767.611 832.921 760 707 760C581.079 760 479 767.611 479 777C479 786.389 581.079 794 707 794Z" fill="#3F3D56"/>
<path id="Vector_5" d="M728 0H692V782H728V0Z" fill="#3F3D56"/>
<path id="Vector_6" d="M914.473 749.111C914.473 771.58 901.117 779.425 884.64 779.425C884.258 779.425 883.877 779.421 883.496 779.412C882.733 779.396 881.977 779.36 881.23 779.309C866.359 778.256 854.806 770.008 854.806 749.111C854.806 727.486 882.44 700.199 884.516 698.18L884.52 698.176C884.6 698.098 884.64 698.06 884.64 698.06C884.64 698.06 914.473 726.643 914.473 749.111Z" fill="#F2A194"/>
<path id="Vector_7" d="M883.553 775.987L894.465 760.741L883.526 777.662L883.497 779.412C882.733 779.396 881.977 779.359 881.23 779.308L882.406 756.829L882.397 756.654L882.417 756.622L882.528 754.499L871.562 737.536L882.562 752.906L882.588 753.357L883.477 736.373L874.088 718.845L883.591 733.392L884.516 698.179L884.52 698.059V698.175L884.365 725.943L893.712 714.935L884.327 728.335L884.08 743.542L892.807 728.947L884.044 745.779L883.906 754.233L896.575 733.92L883.858 757.183L883.553 775.987Z" fill="#3F3D56"/>
<path id="Vector_8" d="M649.227 732.29L642.845 727.549C642.845 727.549 638.621 751.145 643.334 754.681C648.048 758.216 665.725 764.108 665.725 771.179C665.725 778.25 705.793 787.678 706.971 777.072C708.15 766.465 703.436 760.573 703.436 760.573C703.436 760.573 684.581 741.718 682.224 738.182C679.867 734.647 673.974 727.576 673.974 727.576L649.227 732.29Z" fill="#2F2E41"/>
<path id="Vector_9" d="M743.504 438.853C743.504 438.853 743.327 439.89 743.021 441.788C742.738 443.473 742.349 445.853 741.878 448.788C736.928 478.992 722.492 567.907 723.47 570.841C724.649 574.376 732.898 587.339 723.47 590.875C722.563 591.216 721.585 592.324 720.536 594.068C718.511 597.825 716.843 601.762 715.551 605.829C709.93 622.139 703.919 648.242 700.443 666.32C698.923 674.263 697.886 680.65 697.579 683.997C697.473 684.77 697.461 685.554 697.544 686.33C698.722 691.044 690.473 707.542 686.938 712.256C683.402 716.97 677.51 721.684 678.689 726.398C679.867 731.112 649.227 744.075 645.692 735.825C642.156 727.576 642.156 722.862 640.978 720.505C639.799 718.149 638.621 701.65 644.513 699.293C650.406 696.936 646.87 655.69 652.762 647.441C654.73 644.695 657.736 635.397 660.882 624.213C662.119 619.829 663.369 615.163 664.594 610.484C669.567 591.311 673.975 572.019 673.975 572.019L672.796 434.139L737.612 425.89L739.273 429.555L742.585 436.826L743.504 438.853Z" fill="#2F2E41"/>
<path id="Vector_10" d="M747.039 665.118C747.039 665.118 756.467 655.69 761.181 665.118C765.895 674.545 770.608 711.078 778.858 719.327C787.107 727.576 797.713 768.822 785.928 771.179C774.144 773.536 761.181 767.644 760.002 760.573C758.824 753.502 734.076 716.97 734.076 713.435C734.076 709.899 750.575 696.936 750.575 696.936L747.039 665.118Z" fill="#2F2E41"/>
<path id="Vector_11" d="M602.088 374.038C602.088 374.038 617.408 511.918 620.943 524.881C624.479 537.844 643.334 587.339 649.226 595.589C655.119 603.838 692.829 671.01 697.543 674.546C702.257 678.081 711.685 687.509 711.685 687.509C711.685 687.509 729.362 705.186 731.719 708.721C734.076 712.256 754.109 701.65 755.288 694.579C756.466 687.509 754.109 675.724 752.931 671.01C751.752 666.296 755.288 659.226 751.752 655.69C748.217 652.155 730.54 634.478 730.54 626.229C730.54 617.979 699.9 569.663 688.116 559.056C676.331 548.45 678.688 530.773 678.688 530.773V458.887L743.503 438.853C743.503 438.853 739.968 382.287 731.719 382.287C723.469 382.287 615.051 363.432 602.088 374.038Z" fill="#2F2E41"/>
<path id="Vector_12" d="M697.544 177.235C719.021 177.235 736.433 159.824 736.433 138.346C736.433 116.868 719.021 99.4565 697.544 99.4565C676.066 99.4565 658.654 116.868 658.654 138.346C658.654 159.824 676.066 177.235 697.544 177.235Z" fill="#9F616A"/>
<path id="Vector_13" d="M684.581 168.986C684.581 168.986 679.867 186.663 673.974 191.377C668.082 196.09 689.294 216.124 689.294 216.124L729.362 218.481L736.433 196.09C736.433 196.09 723.47 170.164 727.005 153.666C730.541 137.167 684.581 168.986 684.581 168.986Z" fill="#9F616A"/>
<path id="Vector_14" d="M668.082 189.02C668.082 189.02 678.688 190.198 681.045 193.733C683.402 197.269 699.901 207.875 712.864 205.518C725.827 203.161 734.076 199.626 736.433 200.804C738.79 201.983 743.504 226.73 743.504 226.73L730.541 264.441L732.898 368.146L736.433 396.429C736.433 396.429 743.504 387.001 715.221 392.893C686.938 398.786 650.405 388.179 638.621 387.001C626.836 385.823 606.802 382.287 605.624 375.216C604.445 368.146 609.159 342.219 609.159 342.219L628.014 263.263L639.799 220.838L668.082 189.02Z" fill="#3F3D56"/>
<path id="Vector_15" d="M679.229 183.701C679.229 183.701 669.261 178.414 665.725 183.127C662.19 187.841 617.408 194.912 617.408 198.447C617.408 201.983 607.981 297.438 610.338 305.687C612.695 313.937 605.624 323.364 605.624 323.364L597.375 358.718C597.375 358.718 574.984 425.89 584.412 428.247C593.839 430.604 602.089 428.247 605.624 428.247C609.159 428.247 607.981 383.466 617.408 371.681C626.836 359.897 639.799 330.435 642.156 324.543C644.513 318.65 673.975 237.337 672.796 227.909C671.618 218.481 679.229 183.701 679.229 183.701Z" fill="#D0CDE1"/>
<path id="Vector_16" d="M728.183 189.02C728.183 189.02 737.611 189.02 738.789 191.376C739.968 193.733 751.752 209.053 756.466 212.589C761.18 216.124 777.679 231.444 777.679 234.98C777.679 238.515 743.503 264.441 743.503 264.441C743.503 264.441 729.362 333.97 736.432 357.539C743.503 381.109 754.109 437.675 749.396 441.21C744.682 444.746 734.076 445.924 734.076 441.21C734.076 436.496 727.005 385.823 721.112 375.216C715.22 364.61 697.543 297.438 704.614 278.583C711.685 259.727 728.183 189.02 728.183 189.02Z" fill="#D0CDE1"/>
<path id="Vector_17" d="M572.627 305.687C572.627 305.687 571.448 342.219 584.411 361.075C597.374 379.93 605.623 401.142 605.623 401.142C605.623 401.142 626.836 395.25 630.371 388.179C633.907 381.109 656.297 387.001 656.297 384.644C656.297 382.287 629.193 370.502 626.836 368.145C624.479 365.789 616.23 365.789 611.516 361.075C606.802 356.361 605.623 345.755 605.623 345.755L600.91 315.115L572.627 305.687Z" fill="#9F616A"/>
<path id="Vector_18" d="M670.759 114.367C667.767 114.096 664.682 113.797 662.037 112.371C656.113 109.176 654.542 100.077 659.052 95.0801C660.295 93.8087 661.686 92.6903 663.195 91.7486L672.153 85.6515C676.115 82.9548 680.17 80.214 684.791 78.9427C688.97 77.7929 693.385 77.9111 697.711 78.18C706.11 78.702 714.56 79.7803 722.46 82.68C730.359 85.5797 737.728 90.4309 742.512 97.3533C750.097 108.328 750.201 123.128 746.024 135.797C741.846 148.466 733.911 159.499 726.093 170.307L722.036 150.513C721.674 148.749 721.207 146.817 719.741 145.774C716.096 143.18 711.638 148.505 707.165 148.471C704.291 148.448 701.878 146.084 700.789 143.425C699.699 140.765 699.628 137.819 699.376 134.956C698.842 128.892 696.722 120.454 690.98 117.11C685.628 113.993 676.774 114.914 670.759 114.367Z" fill="#2F2E41"/>
<path id="Vector_19" opacity="0.1" d="M672.94 439.804C672.94 439.804 676.921 554.932 679.278 558.467C681.634 562.002 679.278 439.442 679.278 439.442L672.94 439.804Z" fill="black"/>
<path id="Vector_20" d="M626.836 198.447H617.408C617.408 198.447 577.341 252.656 582.054 256.192C586.768 259.727 582.054 269.155 582.054 269.155L572.627 286.832C572.627 286.832 560.842 297.438 564.377 299.795C567.913 302.152 572.627 311.58 572.627 311.58C572.627 311.58 596.196 308.044 603.267 322.186L618.551 302.89L626.836 198.447Z" fill="#D0CDE1"/>
<path id="Vector_21" d="M734.076 299.795C734.076 299.795 708.15 300.973 678.689 282.118L649.227 269.155C649.227 269.155 623.301 229.087 620.944 236.158C618.587 243.229 624.48 257.37 624.48 257.37C624.48 257.37 588.925 273.825 588 276C587.076 278.175 607.981 272.69 607.981 272.69C607.981 272.69 604.446 295.081 624.48 296.259C644.513 297.438 650.406 292.724 650.406 292.724C650.406 292.724 735.255 363.432 749.396 341.041C763.538 318.65 734.076 299.795 734.076 299.795Z" fill="#9F616A"/>
<path id="Vector_22" d="M764.716 230.266L777.679 234.979V270.333L782.393 277.404C782.393 277.404 781.214 291.546 777.679 295.081C774.144 298.616 767.073 297.438 769.43 305.687C770.846 311.065 771.246 316.661 770.608 322.186C770.608 322.186 749.396 349.29 748.218 345.755C747.039 342.219 730.541 298.616 728.184 298.616C725.827 298.616 751.753 230.266 751.753 230.266H764.716Z" fill="#D0CDE1"/>
<path id="Vector_23" d="M609.749 408.803C609.749 408.803 597.564 397.018 603.656 396.429C609.749 395.84 630.961 384.055 634.496 389.947C638.032 395.84 609.749 408.803 609.749 408.803Z" fill="#2F2E41"/>
<path id="Vector_24" d="M423.717 755C444.902 719.655 456.062 679.208 456 638C456 512.079 353.921 410 228 410C102.079 410 0.000255193 512.079 0.000255193 638C-0.0615351 679.208 11.0988 719.655 32.2836 755H423.717Z" fill="#3F3D56"/>
<path id="Vector_25" d="M228 645C240.15 645 250 635.15 250 623C250 610.85 240.15 601 228 601C215.85 601 206 610.85 206 623C206 635.15 215.85 645 228 645Z" fill="#F2A194"/>
<path id="Vector_26" d="M53 670C59.0751 670 64 665.075 64 659C64 652.925 59.0751 648 53 648C46.9249 648 42 652.925 42 659C42 665.075 46.9249 670 53 670Z" fill="#F2A194"/>
<path id="Vector_27" d="M59.4541 574.727C65.5292 574.727 70.4541 569.802 70.4541 563.727C70.4541 557.651 65.5292 552.727 59.4541 552.727C53.379 552.727 48.4541 557.651 48.4541 563.727C48.4541 569.802 53.379 574.727 59.4541 574.727Z" fill="#F2A194"/>
<path id="Vector_28" d="M114.057 496.385C120.132 496.385 125.057 491.46 125.057 485.385C125.057 479.31 120.132 474.385 114.057 474.385C107.982 474.385 103.057 479.31 103.057 485.385C103.057 491.46 107.982 496.385 114.057 496.385Z" fill="#F2A194"/>
<path id="Vector_29" d="M201.208 457.356C207.283 457.356 212.208 452.431 212.208 446.356C212.208 440.281 207.283 435.356 201.208 435.356C195.133 435.356 190.208 440.281 190.208 446.356C190.208 452.431 195.133 457.356 201.208 457.356Z" fill="#F2A194"/>
<path id="Vector_30" d="M296.014 468.788C302.089 468.788 307.014 463.863 307.014 457.788C307.014 451.712 302.089 446.788 296.014 446.788C289.939 446.788 285.014 451.712 285.014 457.788C285.014 463.863 289.939 468.788 296.014 468.788Z" fill="#F2A194"/>
<path id="Vector_31" d="M371.39 527.415C377.465 527.415 382.39 522.49 382.39 516.415C382.39 510.339 377.465 505.415 371.39 505.415C365.315 505.415 360.39 510.339 360.39 516.415C360.39 522.49 365.315 527.415 371.39 527.415Z" fill="#F2A194"/>
<path id="Vector_32" d="M405.805 616.49C411.88 616.49 416.805 611.565 416.805 605.49C416.805 599.415 411.88 594.49 405.805 594.49C399.73 594.49 394.805 599.415 394.805 605.49C394.805 611.565 399.73 616.49 405.805 616.49Z" fill="#F2A194"/>
<path id="Vector_33" d="M389.427 710.567C395.502 710.567 400.427 705.642 400.427 699.567C400.427 693.492 395.502 688.567 389.427 688.567C383.352 688.567 378.427 693.492 378.427 699.567C378.427 705.642 383.352 710.567 389.427 710.567Z" fill="#F2A194"/>
<path id="Vector_34" d="M228 623L341 537" stroke="#F2A194" stroke-width="4" stroke-miterlimit="10"/>
<path id="Vector_35" d="M332.542 213.108C340.691 213.108 347.297 206.502 347.297 198.352C347.297 190.203 340.691 183.597 332.542 183.597C324.392 183.597 317.786 190.203 317.786 198.352C317.786 206.502 324.392 213.108 332.542 213.108Z" stroke="#3F3D56" stroke-width="2" stroke-miterlimit="10"/>
<path id="Vector_36" d="M416.542 385.108C424.691 385.108 431.297 378.502 431.297 370.352C431.297 362.203 424.691 355.597 416.542 355.597C408.392 355.597 401.786 362.203 401.786 370.352C401.786 378.502 408.392 385.108 416.542 385.108Z" fill="#3F3D56"/>
<path id="Vector_37" d="M168.223 373.943C191.849 373.943 211 354.791 211 331.166C211 307.541 191.849 288.389 168.223 288.389C144.598 288.389 125.446 307.541 125.446 331.166C125.446 354.791 144.598 373.943 168.223 373.943Z" fill="#F2F2F2"/>
</g>
</g>
<defs>
<clipPath id="clip0">
<rect width="1012" height="794" fill="white"/>
</clipPath>
</defs>
</svg>
