<svg width="1147" height="820" viewBox="0 0 1147 820" fill="none" xmlns="http://www.w3.org/2000/svg">
<g id="security">
<path id="Vector" opacity="0.1" d="M1127.99 551.217C1101.42 606.027 1047.47 642.677 991.559 666.847C916.289 699.397 833.399 712.307 751.649 706.847C737.323 705.894 723.039 704.37 708.799 702.277C659.343 695.062 611.127 681.021 565.529 660.557C552.369 654.63 539.476 648.16 526.849 641.147C505.76 629.458 485.552 616.242 466.389 601.607C461.569 597.927 456.816 594.154 452.129 590.287C448.879 587.607 445.659 584.867 442.389 582.207C435.489 576.597 428.389 571.267 420.469 567.277C418.08 566.072 415.63 564.991 413.129 564.037C388.049 554.497 359.129 558.097 333.019 565.537C313.159 571.197 293.799 578.947 273.959 584.477C265.134 587.012 256.142 588.923 247.049 590.197C226.748 592.767 206.132 590.956 186.589 584.887L184.919 584.367C182.119 583.487 179.343 582.524 176.589 581.477L174.919 580.837C172.253 579.81 169.643 578.707 167.089 577.527L165.419 576.767C162.753 575.527 160.143 574.217 157.589 572.837C156.669 572.357 155.759 571.837 154.859 571.347C140.332 563.233 127.127 552.952 115.699 540.857C115.369 540.527 115.059 540.187 114.699 539.857C113.109 538.137 111.549 536.387 110.039 534.597C109.479 533.937 108.919 533.277 108.369 532.597C106.576 530.41 104.846 528.174 103.179 525.887C102.929 525.557 102.689 525.217 102.449 524.887C95.6209 515.44 89.9598 505.203 85.5893 494.397C85.4493 494.067 85.3193 493.727 85.1993 493.397C83.866 489.964 82.6493 486.474 81.5493 482.927C81.0993 481.447 80.6693 479.927 80.2893 478.447C80.1593 478.007 80.0393 477.557 79.9293 477.117C74.4093 455.387 73.7793 432.797 73.7793 410.337C73.7793 407.717 73.7793 405.1 73.7793 402.487C73.9393 366.157 74.4993 329.207 79.8593 293.377C79.8593 293.127 79.9293 292.877 79.9693 292.637C81.7633 280.575 84.2034 268.618 87.2793 256.817C90.4985 244.435 94.6126 232.303 99.5893 220.517C111.919 191.517 129.849 165.127 149.759 140.667C199.909 79.117 265.679 27.447 342.659 8.10696C425.609 -12.723 517.799 7.23696 584.709 60.507C605.109 76.747 623.439 95.977 646.349 108.427C666.349 119.267 689.759 123.757 711.179 115.227C728.879 108.177 740.399 104.677 760.279 105.747C801.435 108.075 842.008 116.573 880.639 130.957C882.199 131.527 883.759 132.117 885.309 132.707C986.019 171.237 1072.59 247.787 1117.59 346.157C1118.78 348.757 1119.94 351.377 1121.06 354.017C1147.89 416.687 1157.59 490.137 1127.99 551.217Z" fill="#F2A194"/>
<path id="Vector_2" opacity="0.1" d="M120.859 742.987C169.615 742.987 209.139 736.638 209.139 728.807C209.139 720.976 169.615 714.627 120.859 714.627C72.1034 714.627 32.5791 720.976 32.5791 728.807C32.5791 736.638 72.1034 742.987 120.859 742.987Z" fill="#F2A194"/>
<path id="Vector_3" opacity="0.1" d="M912.82 819.907C999.269 819.907 1069.35 813.102 1069.35 804.707C1069.35 796.312 999.269 789.507 912.82 789.507C826.371 789.507 756.29 796.312 756.29 804.707C756.29 813.102 826.371 819.907 912.82 819.907Z" fill="#F2A194"/>
<path id="Vector_4" d="M1054.54 107.747H129.189C122.291 107.747 116.699 113.339 116.699 120.237V633.587C116.699 640.485 122.291 646.077 129.189 646.077H1054.54C1061.44 646.077 1067.03 640.485 1067.03 633.587V120.237C1067.03 113.339 1061.44 107.747 1054.54 107.747Z" fill="url(#paint0_linear)"/>
<path id="Vector_5" d="M1053.14 115.317H130.7C123.802 115.317 118.21 120.909 118.21 127.807V631.797C118.21 638.695 123.802 644.287 130.7 644.287H1053.14C1060.04 644.287 1065.63 638.695 1065.63 631.797V127.807C1065.63 120.909 1060.04 115.317 1053.14 115.317Z" fill="white"/>
<path id="Vector_6" d="M1053.14 115.317H130.7C123.802 115.317 118.21 120.909 118.21 127.807V631.797C118.21 638.695 123.802 644.287 130.7 644.287H1053.14C1060.04 644.287 1065.63 638.695 1065.63 631.797V127.807C1065.63 120.909 1060.04 115.317 1053.14 115.317Z" fill="white"/>
<path id="Vector_7" opacity="0.04" d="M1053.14 115.317H130.7C123.802 115.317 118.21 120.909 118.21 127.807V631.797C118.21 638.695 123.802 644.287 130.7 644.287H1053.14C1060.04 644.287 1065.63 638.695 1065.63 631.797V127.807C1065.63 120.909 1060.04 115.317 1053.14 115.317Z" fill="white"/>
<path id="Vector_8" d="M1060.82 109.247H123.02C121.744 109.247 120.521 109.754 119.619 110.656C118.717 111.558 118.21 112.781 118.21 114.057V134.387H1065.59V114.057C1065.59 112.788 1065.09 111.571 1064.2 110.67C1063.3 109.769 1062.09 109.258 1060.82 109.247Z" fill="#5A5773"/>
<g id="buttons">
<path id="Vector_9" d="M137.13 128.317C140.72 128.317 143.63 125.407 143.63 121.817C143.63 118.227 140.72 115.317 137.13 115.317C133.54 115.317 130.63 118.227 130.63 121.817C130.63 125.407 133.54 128.317 137.13 128.317Z" fill="white"/>
<path id="Vector_10" d="M154.63 128.317C158.22 128.317 161.13 125.407 161.13 121.817C161.13 118.227 158.22 115.317 154.63 115.317C151.04 115.317 148.13 118.227 148.13 121.817C148.13 125.407 151.04 128.317 154.63 128.317Z" fill="white"/>
<path id="Vector_11" d="M172.13 128.317C175.72 128.317 178.63 125.407 178.63 121.817C178.63 118.227 175.72 115.317 172.13 115.317C168.54 115.317 165.63 118.227 165.63 121.817C165.63 125.407 168.54 128.317 172.13 128.317Z" fill="white"/>
</g>
<path id="Vector_12" opacity="0.2" d="M450.489 181.667H196.239V203.247H450.489V181.667Z" fill="#F2A194"/>
<path id="Vector_13" opacity="0.1" d="M987.599 268.197H196.239V600.157H987.599V268.197Z" fill="#5A5773"/>
<path id="Vector_14" opacity="0.1" d="M659.589 289.847H646.039V263.527C646.039 233.827 622.359 209.137 592.659 208.687C585.498 208.612 578.392 209.955 571.751 212.638C565.111 215.322 559.067 219.293 553.969 224.323C548.87 229.352 544.817 235.342 542.044 241.945C539.27 248.548 537.831 255.635 537.809 262.797V289.847H524.289C518.314 289.866 512.589 292.247 508.364 296.472C504.139 300.697 501.758 306.422 501.739 312.397V420.617C501.758 426.592 504.139 432.317 508.364 436.542C512.589 440.767 518.314 443.149 524.289 443.167H659.589C665.563 443.149 671.287 440.767 675.511 436.541C679.734 432.316 682.113 426.591 682.129 420.617V312.397C682.113 306.423 679.734 300.698 675.511 296.473C671.287 292.248 665.563 289.866 659.589 289.847ZM599.839 360.197V398.957C599.852 401.009 599.085 402.99 597.692 404.498C596.3 406.005 594.386 406.927 592.339 407.077C591.271 407.127 590.203 406.96 589.201 406.585C588.199 406.211 587.283 405.637 586.509 404.899C585.735 404.16 585.119 403.272 584.698 402.289C584.277 401.306 584.059 400.247 584.059 399.177V360.177C580.401 358.393 577.455 355.422 575.703 351.748C573.951 348.075 573.495 343.916 574.41 339.95C575.326 335.984 577.559 332.445 580.744 329.912C583.929 327.378 587.879 325.998 591.949 325.998C596.019 325.998 599.969 327.378 603.155 329.912C606.34 332.445 608.572 335.984 609.488 339.95C610.403 343.916 609.948 348.075 608.195 351.748C606.443 355.422 603.498 358.393 599.839 360.177V360.197ZM630.279 289.847H553.589V262.797C553.589 252.631 557.628 242.882 564.816 235.694C572.004 228.505 581.754 224.467 591.919 224.467C602.085 224.467 611.834 228.505 619.023 235.694C626.211 242.882 630.249 252.631 630.249 262.797L630.279 289.847Z" fill="black"/>
<path id="Vector_15" d="M659.589 287.847H646.039V261.527C646.039 231.827 622.359 207.137 592.659 206.687C585.498 206.612 578.392 207.955 571.751 210.638C565.111 213.322 559.067 217.293 553.969 222.323C548.87 227.352 544.817 233.342 542.044 239.945C539.27 246.548 537.831 253.635 537.809 260.797V287.847H524.289C518.314 287.866 512.589 290.247 508.364 294.472C504.139 298.697 501.758 304.422 501.739 310.397V418.617C501.758 424.592 504.139 430.317 508.364 434.542C512.589 438.767 518.314 441.149 524.289 441.167H659.589C665.563 441.149 671.287 438.767 675.511 434.541C679.734 430.316 682.113 424.591 682.129 418.617V310.397C682.113 304.423 679.734 298.698 675.511 294.473C671.287 290.248 665.563 287.866 659.589 287.847V287.847ZM599.839 358.197V396.957C599.852 399.009 599.085 400.99 597.692 402.498C596.3 404.005 594.386 404.927 592.339 405.077C591.271 405.127 590.203 404.96 589.201 404.585C588.199 404.211 587.283 403.637 586.509 402.899C585.735 402.16 585.119 401.272 584.698 400.289C584.277 399.306 584.059 398.247 584.059 397.177V358.177C580.401 356.393 577.455 353.422 575.703 349.748C573.951 346.075 573.495 341.916 574.41 337.95C575.326 333.984 577.559 330.445 580.744 327.912C583.929 325.378 587.879 323.998 591.949 323.998C596.019 323.998 599.969 325.378 603.155 327.912C606.34 330.445 608.572 333.984 609.488 337.95C610.403 341.916 609.948 346.075 608.195 349.748C606.443 353.422 603.498 356.393 599.839 358.177V358.197ZM630.279 287.847H553.589V260.797C553.589 250.631 557.628 240.882 564.816 233.694C572.004 226.505 581.754 222.467 591.919 222.467C602.085 222.467 611.834 226.505 619.023 233.694C626.211 240.882 630.249 250.631 630.249 260.797L630.279 287.847Z" fill="#F2A194"/>
<path id="Vector_16" opacity="0.1" d="M987.6 236.247H907.5V255.157H987.6V236.247Z" fill="#5A5773"/>
<path id="Vector_17" d="M1014.86 809.287C1014.33 806.636 1013.43 804.074 1012.18 801.677L1000.18 783.757H1000.25C1000.25 783.757 998.36 774.757 1000.25 770.337C1002.14 765.917 993.51 755.047 993.51 755.047C993.51 755.047 992.46 752.317 995.2 748.957C997.94 745.597 993.51 735.757 993.51 735.757C993.51 735.757 991.41 715.207 991.2 712.067C990.99 708.927 989.3 691.527 989.3 691.527L985.3 654.637L978.18 556.867L978.05 555.037C978.93 554.607 979.4 554.337 979.4 554.337L977.98 500.277L979.21 499.167C989.95 489.447 1014.72 466.947 1014.47 466.457C1014.22 465.967 1011.47 428.887 1011.15 419.607C1010.87 413.012 1009.43 406.519 1006.89 400.427C1006.27 399.197 1004.48 391.087 1003.74 387.657C1003.54 386.717 1003.41 386.127 1003.41 386.127C1003.41 386.127 996.15 372.287 996.78 365.997C997.41 359.707 998.67 354.997 983.19 352.797C983.19 352.797 970.19 350.857 962.45 345.567C957.872 342.399 952.869 339.894 947.59 338.127C947.59 338.127 943.25 330.127 940.23 332.837C938.951 329.983 937.995 326.994 937.38 323.927L937.29 323.367C943.023 319.37 947.148 313.465 948.93 306.707C949.03 306.327 949.11 305.937 949.2 305.557C949.5 305.659 949.813 305.716 950.13 305.727C952.76 305.727 954.38 302.797 956.84 301.867C957.84 301.477 959.07 301.417 959.84 300.627C960.094 300.323 960.283 299.97 960.396 299.59C960.51 299.21 960.545 298.811 960.5 298.417C960.525 298.145 960.525 297.87 960.5 297.597C960.505 297.501 960.505 297.404 960.5 297.307V297.407C959.83 293.767 957.01 290.537 957.32 286.837C957.62 283.357 960.68 280.297 960.43 276.907C960.426 276.639 960.403 276.372 960.36 276.107V276.227C959.987 274.904 959.301 273.69 958.36 272.687C957.283 271.221 955.87 270.034 954.24 269.227C952.85 268.617 951.24 268.477 949.94 267.747C946.12 265.667 946.13 260.247 943.86 256.547C942.887 255.003 941.507 253.757 939.871 252.947C938.235 252.137 936.408 251.794 934.59 251.957C931.75 252.237 929.18 253.747 926.37 254.237C922.53 254.917 918.62 253.667 914.98 252.237C911.34 250.807 907.65 249.237 903.74 249.237C899.83 249.237 895.6 251.237 894.42 254.927C893.79 256.927 894.1 259.077 893.62 261.107C892.76 264.687 889.62 267.247 886.37 269.027C884.37 270.137 881.99 271.407 881.37 273.507C881.37 273.447 881.37 273.397 881.37 273.347C881.325 273.515 881.292 273.685 881.27 273.857C881.25 274.08 881.25 274.304 881.27 274.527C881.27 275.967 882.03 277.337 882.54 278.707C883.49 281.314 883.469 284.175 882.48 286.767C881.74 288.667 880.48 290.337 879.76 292.227C879.421 293.108 879.199 294.029 879.1 294.967V294.807C879.075 295.234 879.075 295.661 879.1 296.087C879.087 297.548 879.431 298.989 880.1 300.287C880.559 301.184 881.192 301.979 881.963 302.627C882.735 303.274 883.628 303.761 884.59 304.057C886.59 304.517 887.84 302.557 889.95 303.057C890.327 303.148 890.698 303.265 891.06 303.407C891.13 303.857 891.2 304.307 891.28 304.747C892.556 311.477 896.142 317.551 901.42 321.917C901.42 322.157 901.5 322.397 901.53 322.647C902.169 326.634 902.446 330.671 902.36 334.707C902.36 334.707 899.21 330.097 894.89 338.997C894.89 338.997 883.62 345.497 879.73 346.237C875.84 346.977 862.03 351.787 862.03 351.787C859.947 353.294 857.441 354.102 854.87 354.097C850.56 354.097 846.98 363.527 847.5 368.657C848.02 373.787 847.19 377.567 843.18 377.777C839.17 377.987 841.36 386.117 841.39 386.257L841.02 388.007C840.24 391.587 838.54 399.267 837.94 400.467C835.397 406.559 833.952 413.052 833.67 419.647C833.36 428.927 830.67 465.867 830.36 466.497C830.15 466.907 847.12 482.417 859.05 493.257L860.78 494.817L855.29 546.097C855.45 548.073 856.037 549.991 857.011 551.717C857.985 553.444 859.322 554.938 860.93 556.097C860.93 556.697 860.93 557.307 860.87 557.937C860.63 563.937 860.15 571.197 859.19 573.097C857.51 576.457 857.93 594.477 857.93 594.477C857.93 594.477 856.24 631.157 854.14 635.147C852.04 639.137 851.61 647.507 852.24 649.147C852.87 650.787 850.13 694.837 850.13 694.837L848.03 714.547C848.03 714.547 848.66 733.407 846.76 733.827C844.86 734.247 843.81 747.247 843.81 747.247C843.81 747.247 837.08 756.467 840.02 759.817C842.96 763.167 839.59 764.647 839.28 765.477C838.97 766.307 832.86 769.477 837.28 781.197C837.32 781.313 837.367 781.427 837.42 781.537C833.28 787.287 820.16 805.837 820.96 808.657C821.55 810.451 822.802 811.953 824.46 812.857C827.55 814.707 832.85 815.567 841.28 812.857C855.28 808.347 854.28 805.097 854.28 805.097C854.352 803.578 855.003 802.144 856.101 801.091C857.199 800.038 858.659 799.446 860.18 799.437C865.97 799.017 870.29 793.677 870.29 793.677L869.61 791.147L868.68 787.647C868.79 786.647 869.5 784.897 872.68 783.927C877.53 782.457 876.26 773.237 876.26 773.237C876.26 773.237 875.84 763.597 877.94 762.337C880.04 761.077 879.21 745.147 879.21 745.147C879.21 745.147 881.53 733.617 884.89 725.857C888.25 718.097 892.27 671.997 892.27 671.997C892.27 671.997 895 649.357 897.53 642.857C900.06 636.357 902.38 618.127 902.38 618.127C902.38 618.127 917.97 587.937 918.17 581.227C918.17 581.227 920.17 574.937 922.17 581.857C924.17 588.777 929.79 605.337 929.79 605.337L935.26 625.667L941.79 656.057L946.01 681.637C946.01 681.637 945.37 691.277 947.01 694.637C948.65 697.997 951.01 705.737 949.75 707.207C948.49 708.677 952.27 715.597 953.33 717.057C954.39 718.517 953.33 749.547 953.33 749.547C953.33 749.547 958.17 775.957 965.12 780.547C965.605 780.866 966.121 781.134 966.66 781.347C966.56 784.207 966.46 788.037 966.59 790.037C966.574 790.484 966.649 790.93 966.81 791.347C967.44 792.187 974.6 797.847 976.08 797.847C977.56 797.847 982.81 801.517 983.03 803.297C983.25 805.077 998.42 812.617 1000.57 812.837C1002.72 813.057 1013.14 814.927 1014.57 811.997C1014.92 811.14 1015.02 810.2 1014.86 809.287ZM977.59 431.567L978.67 432.497C978.67 432.497 979.78 441.147 980.57 443.737C981.36 446.327 980.41 451.367 980.41 451.367C980.483 453.248 980.857 455.105 981.52 456.867C982.46 458.757 979.62 462.867 979.62 462.867H977.09L976.3 430.487L977.59 431.567ZM902.36 334.887V334.697C902.34 334.757 902.33 334.827 902.33 334.887H902.36ZM863.51 459.537C863.121 458.7 863.063 457.745 863.35 456.867C863.575 456.393 863.752 455.897 863.88 455.387C864.191 454.074 864.385 452.735 864.46 451.387C864.461 451.371 864.461 451.354 864.46 451.337C864.37 450.857 863.56 446.217 864.31 443.757C865.06 441.297 866.2 432.517 866.2 432.517L866.92 431.907L868.59 430.457C868.59 430.457 868.59 429.917 868.71 429.027C869.06 436.627 869.34 445.027 868.89 445.447C868.05 446.277 864.99 454.447 865.73 454.767C865.97 454.877 865.64 458.147 865.08 462.547C864.451 461.603 863.925 460.594 863.51 459.537V459.537Z" fill="url(#paint1_linear)"/>
<path id="Vector_18" d="M944.109 342.877V355.317L918.589 368.147C918.589 368.147 893.249 352.817 899.499 346.717C903.499 342.857 902.729 332.257 901.649 324.967C901.019 320.727 900.289 317.617 900.289 317.617C900.289 317.617 945.809 304.617 938.929 314.487C936.629 317.787 936.449 322.057 937.219 326.287C938.779 334.677 944.109 342.877 944.109 342.877Z" fill="#BE6D94"/>
<path id="Vector_19" d="M874.2 464.527L870.91 505.047C870.91 505.047 865.98 500.577 859.6 494.757C847.77 483.967 830.97 468.537 831.17 468.127C831.48 467.497 834.17 430.737 834.46 421.497C834.733 414.938 836.162 408.479 838.68 402.417C839.28 401.217 840.97 393.577 841.68 390.007C841.92 388.897 842.07 388.177 842.07 388.177L847.59 385.957C847.59 385.957 870.59 411.617 870.59 412.087C870.59 412.557 869.02 432.267 869.02 432.267L867.39 433.687L866.68 434.297C866.68 434.297 865.58 442.907 864.8 445.487C864.02 448.067 864.86 452.547 864.95 453.027C864.876 454.374 864.685 455.713 864.38 457.027C864.249 457.532 864.072 458.025 863.85 458.497C863.568 459.372 863.625 460.322 864.01 461.157C864.454 462.316 865.031 463.42 865.73 464.447L874.2 464.527Z" fill="#3F3D56"/>
<path id="Vector_20" d="M1013.59 468.127C1013.83 468.617 989.3 491.007 978.67 500.677L973.85 505.047L970.59 464.527H979.04C979.04 464.527 981.86 460.457 980.92 458.577C980.265 456.824 979.896 454.977 979.83 453.107C979.83 453.107 980.76 448.107 979.98 445.517C979.2 442.927 978.1 434.327 978.1 434.327L977.03 433.407L975.76 432.297C975.76 432.297 974.19 412.587 974.19 412.117C974.19 411.647 997.19 385.987 997.19 385.987L1002.67 388.177C1002.67 388.177 1002.79 388.767 1002.99 389.707C1003.73 393.117 1005.5 401.187 1006.11 402.417C1008.63 408.48 1010.06 414.939 1010.33 421.497C1010.59 430.737 1013.27 467.497 1013.59 468.127Z" fill="#3F3D56"/>
<path id="Vector_21" d="M1013.69 812.067C1012.22 814.987 1001.9 813.067 999.769 812.907C997.639 812.747 982.599 805.177 982.389 803.407C982.179 801.637 976.969 797.987 975.509 797.987C974.049 797.987 966.959 792.347 966.329 791.517C966.17 791.103 966.098 790.66 966.119 790.217C965.899 786.787 966.329 777.957 966.329 777.957L996.579 779.627L1011.28 801.737C1012.52 804.122 1013.41 806.671 1013.94 809.307C1014.12 810.232 1014.03 811.189 1013.69 812.067V812.067Z" fill="#3F3D56"/>
<path id="Vector_22" opacity="0.1" d="M1013.69 812.067C1012.22 814.987 1001.9 813.067 999.769 812.907C997.639 812.747 982.599 805.177 982.389 803.407C982.179 801.637 976.969 797.987 975.509 797.987C974.049 797.987 966.959 792.347 966.329 791.517C966.17 791.103 966.098 790.66 966.119 790.217C965.899 786.787 966.329 777.957 966.329 777.957L996.579 779.627L1011.28 801.737C1012.52 804.122 1013.41 806.671 1013.94 809.307C1014.12 810.232 1014.03 811.189 1013.69 812.067V812.067Z" fill="black"/>
<path id="Vector_23" opacity="0.1" d="M1013.69 812.067C1012.22 814.987 1001.9 813.067 999.77 812.907C997.64 812.747 982.6 805.177 982.39 803.407C982.18 801.637 976.97 797.987 975.51 797.987C974.05 797.987 966.96 792.347 966.33 791.517C966.17 791.103 966.099 790.661 966.12 790.217L975.92 796.417C975.92 796.417 982.18 800.417 983.85 802.787C985.52 805.157 998.68 810.087 999.77 810.187C1000.58 810.267 1009.22 808.607 1013.94 809.307C1014.12 810.232 1014.03 811.189 1013.69 812.067V812.067Z" fill="black"/>
<path id="Vector_24" d="M870.689 793.817C870.689 793.817 866.409 799.137 860.689 799.547C859.18 799.558 857.732 800.149 856.646 801.196C855.559 802.244 854.916 803.669 854.849 805.177C854.849 805.177 855.849 808.417 842.019 812.907C833.669 815.597 828.419 814.747 825.359 812.907C823.717 812.001 822.478 810.508 821.889 808.727C820.949 805.397 839.409 780.047 839.409 780.047L856.209 779.047L868.209 784.467L870.049 791.337L870.689 793.817Z" fill="#3F3D56"/>
<path id="Vector_25" opacity="0.1" d="M870.689 793.817C870.689 793.817 866.409 799.137 860.689 799.547C859.18 799.558 857.732 800.149 856.646 801.196C855.559 802.244 854.916 803.669 854.849 805.177C854.849 805.177 855.849 808.417 842.019 812.907C833.669 815.597 828.419 814.747 825.359 812.907C823.717 812.001 822.478 810.508 821.889 808.727C820.949 805.397 839.409 780.047 839.409 780.047L856.209 779.047L868.209 784.467L870.049 791.337L870.689 793.817Z" fill="black"/>
<path id="Vector_26" opacity="0.1" d="M870.689 793.817C870.689 793.817 866.409 799.137 860.689 799.547C859.18 799.558 857.732 800.149 856.646 801.196C855.559 802.244 854.916 803.669 854.849 805.177C854.849 805.177 855.849 808.417 842.019 812.907C833.669 815.597 828.419 814.747 825.359 812.907C833.229 812.087 850.619 807.117 852.359 805.397C854.449 803.307 857.059 797.567 858.829 797.467C860.059 797.387 866.309 793.627 870.059 791.297L870.689 793.817Z" fill="black"/>
<path id="Vector_27" d="M999.499 770.557C997.619 774.937 999.499 783.907 999.499 783.907C999.499 783.907 971.499 785.367 964.659 780.777C957.819 776.187 952.979 749.897 952.979 749.897C952.979 749.897 953.979 719.027 952.979 717.567C951.979 716.107 948.179 709.227 949.429 707.767C950.679 706.307 948.429 698.587 946.719 695.247C945.009 691.907 945.719 682.317 945.719 682.317L941.539 656.857L935.079 626.617L929.589 606.377C929.589 606.377 923.959 589.897 922.049 583.017C920.139 576.137 918.119 582.387 918.119 582.387C917.919 589.067 902.479 619.107 902.479 619.107C902.479 619.107 900.179 637.257 897.679 643.717C895.179 650.177 892.459 672.717 892.459 672.717C892.459 672.717 888.459 718.607 885.159 726.327C881.859 734.047 879.589 745.517 879.589 745.517C879.589 745.517 880.429 761.377 878.339 762.627C876.249 763.877 876.589 773.477 876.589 773.477C876.589 773.477 877.839 782.647 873.039 784.117C868.239 785.587 869.039 788.707 869.039 788.707C869.039 788.707 842.339 793.087 837.959 781.397C833.579 769.707 839.629 766.597 839.959 765.757C840.289 764.917 843.619 763.467 840.699 760.117C837.779 756.767 844.449 747.607 844.449 747.607C844.449 747.607 845.499 734.677 847.369 734.257C849.239 733.837 848.629 715.067 848.629 715.067L850.709 695.457C850.709 695.457 853.429 651.647 852.799 649.977C852.169 648.307 852.589 639.977 854.679 635.977C856.769 631.977 858.429 595.497 858.429 595.497C858.429 595.497 858.009 577.567 859.679 574.227C860.679 572.337 861.099 565.067 861.339 559.137C861.519 554.607 861.559 550.857 861.559 550.857L884.919 542.097L914.919 532.507L940.159 544.607L977.089 551.697L977.549 558.067L984.599 655.377L988.599 692.087C988.599 692.087 990.269 709.397 990.479 712.527C990.689 715.657 992.769 736.107 992.769 736.107C992.769 736.107 997.149 745.907 994.439 749.247C991.729 752.587 992.769 755.247 992.769 755.247C992.769 755.247 1001.38 766.177 999.499 770.557Z" fill="#3F3D56"/>
<path id="Vector_28" opacity="0.1" d="M938.95 314.487C936.65 317.787 936.47 322.057 937.24 326.287C931.984 329.995 925.657 331.873 919.23 331.632C912.803 331.392 906.633 329.047 901.67 324.957V324.957C901.04 320.717 900.31 317.607 900.31 317.607C900.31 317.607 945.83 304.627 938.95 314.487Z" fill="black"/>
<path id="Vector_29" d="M949.589 301.727C949.589 307.522 947.871 313.187 944.651 318.005C941.432 322.824 936.856 326.579 931.502 328.797C926.148 331.014 920.257 331.595 914.573 330.464C908.889 329.334 903.669 326.543 899.571 322.445C895.473 318.348 892.683 313.127 891.552 307.443C890.422 301.76 891.002 295.868 893.22 290.514C895.437 285.161 899.193 280.585 904.011 277.365C908.829 274.145 914.494 272.427 920.289 272.427C924.142 272.409 927.961 273.154 931.524 274.62C935.087 276.086 938.324 278.243 941.049 280.968C943.773 283.692 945.931 286.929 947.397 290.493C948.863 294.056 949.608 297.874 949.589 301.727Z" fill="#C37098"/>
<path id="Vector_30" opacity="0.1" d="M955.689 350.417L946.089 521.367L893.939 510.417L883.609 441.887L893.839 349.887L901.539 350.877L915.119 352.607L928.569 353.437L943.149 351.817L955.689 350.417Z" fill="black"/>
<path id="Vector_31" d="M955.689 351.667L946.089 522.617L893.939 511.667L883.609 443.137L893.839 351.147L901.539 352.127L915.119 353.857L928.569 354.687L943.149 353.067L955.689 351.667Z" fill="#6C63FF"/>
<path id="Vector_32" d="M912.819 356.257L931.599 356.887L926.319 364.277C926.319 364.277 926.689 379.207 929.199 383.487C931.709 387.767 930.969 453.887 930.969 453.887L925.969 463.377L917.419 452.737L917.529 365.437L912.819 356.257Z" fill="#3F3D56"/>
<path id="Vector_33" opacity="0.1" d="M912.819 356.257L931.599 356.887L926.319 364.277C926.319 364.277 926.689 379.207 929.199 383.487C931.709 387.767 930.969 453.887 930.969 453.887L925.969 463.377L917.419 452.737L917.529 365.437L912.819 356.257Z" fill="black"/>
<path id="Vector_34" opacity="0.1" d="M942.23 336.857L924.71 356.257L934.72 366.687L951.31 350.517L942.23 336.857Z" fill="black"/>
<path id="Vector_35" d="M942.23 335.607L924.71 355.007L934.72 365.437L951.31 349.267L942.23 335.607Z" fill="#6C63FF"/>
<path id="Vector_36" opacity="0.1" d="M917.309 355.317L899.569 337.587L897.899 346.867L906.039 367.207L917.309 355.317Z" fill="black"/>
<path id="Vector_37" d="M917.929 354.067L900.199 336.337L898.529 345.617L906.669 365.957L917.929 354.067Z" fill="#685FF4"/>
<path id="Vector_38" opacity="0.1" d="M977.64 558.097C969.125 562.154 960.005 564.792 950.64 565.907C933.43 568.097 922.17 546.197 922.17 546.197L915.6 554.747C913.51 563.827 881.7 566.117 868.77 562.677C866.087 562.014 863.564 560.821 861.35 559.167C861.53 554.637 861.57 550.887 861.57 550.887L884.93 542.127L914.93 532.537L940.17 544.637L977.1 551.727L977.64 558.097Z" fill="black"/>
<path id="Vector_39" opacity="0.1" d="M955.69 351.677L946.1 522.617L893.94 511.667L883.59 443.147L893.81 351.147L901.51 352.147C901.313 355.498 900.936 358.836 900.38 362.147C899.13 367.997 906.85 409.507 906.85 409.507C906.85 409.507 921.52 456.057 928.12 449.347C934.72 442.637 944.12 407.207 944.12 407.207C950.49 394.067 944.23 357.207 943.76 356.467C943.432 355.377 943.231 354.253 943.16 353.117L955.69 351.677Z" fill="black"/>
<path id="Vector_40" opacity="0.1" d="M978.22 483.957L978.66 500.707L973.84 505.077L970.59 464.527H977.79L978.22 483.957Z" fill="black"/>
<path id="Vector_41" opacity="0.1" d="M864.959 453.057C864.886 454.404 864.695 455.743 864.389 457.057C864.389 456.687 864.389 456.477 864.309 456.447C864.009 456.367 864.369 454.837 864.959 453.057Z" fill="black"/>
<path id="Vector_42" opacity="0.1" d="M874.2 464.527L870.91 505.047C870.91 505.047 865.98 500.577 859.6 494.757L860.36 487.577C860.36 487.577 863.05 469.937 864.03 461.237C864.474 462.397 865.051 463.501 865.75 464.527H874.2Z" fill="black"/>
<path id="Vector_43" d="M902.49 336.957C902.49 336.957 899.37 332.367 895.09 341.227C895.09 341.227 883.93 347.697 880.09 348.427C876.25 349.157 862.59 353.957 862.59 353.957C860.527 355.448 858.045 356.25 855.5 356.247C851.22 356.247 847.67 365.637 848.19 370.747C848.71 375.857 847.88 379.617 843.92 379.827C839.96 380.037 842.14 388.267 842.14 388.267L868.53 418.517C868.53 418.517 870.2 446.367 869.37 447.207C868.54 448.047 865.51 456.207 866.24 456.487C866.97 456.767 862.24 487.567 862.24 487.567L855.88 547.337C855.88 547.337 855.88 557.337 868.82 560.787C881.76 564.237 913.59 561.957 915.64 552.877L922.21 544.317C922.21 544.317 933.47 566.227 950.68 564.037C967.89 561.847 978.85 555.587 978.85 555.587L976.97 483.957L975.72 432.327L1002.59 388.177C1002.59 388.177 995.39 374.407 996.02 368.177C996.65 361.947 997.89 357.227 982.56 355.037C982.56 355.037 969.63 353.107 962.01 347.837C957.481 344.693 952.533 342.202 947.31 340.437C947.31 340.437 943.01 332.437 940.02 335.177C940.02 335.177 943.02 346.487 942.77 348.177C942.52 349.867 943.24 357.507 943.71 358.297C944.18 359.087 950.44 395.897 944.07 409.037C944.07 409.037 934.72 444.467 928.07 451.177C921.42 457.887 906.8 411.337 906.8 411.337C906.8 411.337 899.08 369.817 900.33 363.977C901.58 358.137 902.49 336.957 902.49 336.957Z" fill="#3F3D56"/>
<path id="Vector_44" d="M924.81 473.707C927.345 473.707 929.4 471.652 929.4 469.117C929.4 466.582 927.345 464.527 924.81 464.527C922.275 464.527 920.22 466.582 920.22 469.117C920.22 471.652 922.275 473.707 924.81 473.707Z" fill="#3F3D56"/>
<path id="Vector_45" d="M924.81 495.347C927.345 495.347 929.4 493.292 929.4 490.757C929.4 488.222 927.345 486.167 924.81 486.167C922.275 486.167 920.22 488.222 920.22 490.757C920.22 493.292 922.275 495.347 924.81 495.347Z" fill="#3F3D56"/>
<path id="Vector_46" opacity="0.1" d="M924.81 473.707C927.345 473.707 929.4 471.652 929.4 469.117C929.4 466.582 927.345 464.527 924.81 464.527C922.275 464.527 920.22 466.582 920.22 469.117C920.22 471.652 922.275 473.707 924.81 473.707Z" fill="black"/>
<path id="Vector_47" opacity="0.1" d="M924.81 495.347C927.345 495.347 929.4 493.292 929.4 490.757C929.4 488.222 927.345 486.167 924.81 486.167C922.275 486.167 920.22 488.222 920.22 490.757C920.22 493.292 922.275 495.347 924.81 495.347Z" fill="black"/>
<path id="Vector_48" opacity="0.1" d="M966.06 764.297C966.06 764.297 984.9 765.757 986.77 767.217C988.64 768.677 966.06 764.297 966.06 764.297Z" fill="black" stroke="#F2A194" stroke-miterlimit="10"/>
<path id="Vector_49" opacity="0.1" d="M853.89 749.487C853.89 749.487 857.89 754.487 856.19 756.787C854.49 759.087 853.89 749.487 853.89 749.487Z" fill="black" stroke="#F2A194" stroke-miterlimit="10"/>
<path id="Vector_50" opacity="0.1" d="M858.689 767.517C858.689 767.517 865.989 762.717 868.909 765.907C871.829 769.097 858.689 767.517 858.689 767.517Z" fill="black" stroke="#F2A194" stroke-miterlimit="10"/>
<path id="Vector_51" opacity="0.1" d="M949.59 301.727C949.595 304.227 949.279 306.718 948.65 309.137C948.033 308.856 947.517 308.393 947.17 307.811C946.823 307.228 946.663 306.554 946.71 305.877C946.84 304.687 947.63 303.597 947.46 302.417C947.21 300.597 945.01 299.857 943.85 298.417C942.42 296.677 942.73 294.147 942.85 291.897C942.97 289.647 942.4 286.897 940.29 286.127C939.66 285.897 938.97 285.877 938.36 285.617C936.7 284.917 936.19 282.857 935.08 281.437C932.86 278.577 928.45 278.637 925.08 279.997C923.613 280.701 922.111 281.328 920.58 281.877C919.813 282.148 918.999 282.256 918.188 282.196C917.377 282.136 916.588 281.908 915.87 281.527C915.21 281.107 914.68 280.527 914 280.107C911.74 278.747 908.78 280.107 906.82 281.857C904.86 283.607 903.29 285.957 900.82 287.027C899.71 287.527 898.34 287.827 897.82 288.907C897.562 289.495 897.452 290.137 897.5 290.777C897.5 294.667 897.96 298.617 897.15 302.427C896.63 304.877 894.91 307.657 892.42 307.357C892.109 307.311 891.805 307.234 891.51 307.127C890.76 303.122 890.854 299.005 891.786 295.038C892.718 291.071 894.466 287.343 896.921 284.09C899.375 280.837 902.48 278.132 906.039 276.148C909.598 274.163 913.531 272.943 917.588 272.564C921.645 272.186 925.737 272.658 929.601 273.95C933.465 275.242 937.018 277.326 940.031 280.068C943.045 282.811 945.453 286.152 947.102 289.878C948.752 293.604 949.606 297.633 949.61 301.707L949.59 301.727Z" fill="black"/>
<path id="Vector_52" d="M890.199 305.467C890.949 305.637 891.659 306.027 892.429 306.127C894.919 306.427 896.639 303.647 897.159 301.197C897.969 297.387 897.549 293.437 897.519 289.547C897.463 288.908 897.57 288.264 897.829 287.677C898.399 286.597 899.769 286.297 900.829 285.797C903.249 284.717 904.829 282.417 906.829 280.627C908.829 278.837 911.739 277.517 913.999 278.877C914.669 279.277 915.209 279.877 915.869 280.297C916.591 280.672 917.382 280.897 918.193 280.957C919.005 281.017 919.82 280.912 920.589 280.647C922.139 280.187 923.589 279.377 925.079 278.767C928.419 277.407 932.839 277.357 935.079 280.197C936.189 281.627 936.699 283.677 938.359 284.377C938.969 284.637 939.659 284.667 940.289 284.897C942.399 285.687 942.939 288.417 942.849 290.667C942.759 292.917 942.459 295.447 943.849 297.187C945.009 298.607 947.209 299.347 947.459 301.187C947.619 302.367 946.839 303.467 946.709 304.647C946.679 305.086 946.737 305.526 946.879 305.942C947.02 306.358 947.243 306.742 947.534 307.071C947.825 307.401 948.179 307.669 948.575 307.86C948.97 308.052 949.4 308.163 949.839 308.187C952.439 308.187 954.049 305.277 956.479 304.347C957.479 303.957 958.689 303.897 959.479 303.107C959.773 302.727 959.98 302.288 960.087 301.82C960.194 301.352 960.198 300.867 960.099 300.397C959.609 296.567 956.539 293.237 956.869 289.397C957.179 285.717 960.589 282.507 959.869 278.887C959.502 277.552 958.816 276.327 957.869 275.317C956.797 273.864 955.4 272.683 953.789 271.867C952.399 271.267 950.789 271.127 949.519 270.397C945.739 268.327 945.749 262.927 943.519 259.247C942.562 257.726 941.205 256.498 939.596 255.697C937.988 254.897 936.19 254.554 934.399 254.707C931.589 254.987 929.039 256.477 926.259 256.977C922.449 257.657 918.589 256.407 914.979 254.977C911.369 253.547 907.719 251.977 903.849 251.977C899.979 251.977 895.789 253.977 894.609 257.637C893.989 259.637 894.299 261.777 893.819 263.787C892.979 267.357 889.819 269.897 886.639 271.667C884.449 272.887 881.819 274.287 881.559 276.777C881.389 278.357 882.259 279.777 882.809 281.307C883.745 283.895 883.723 286.733 882.749 289.307C882.019 291.197 880.799 292.857 880.059 294.737C879.534 296.013 879.286 297.386 879.33 298.765C879.375 300.144 879.712 301.498 880.319 302.737C880.785 303.641 881.431 304.439 882.217 305.084C883.003 305.729 883.912 306.206 884.889 306.487C886.859 306.957 888.099 305.007 890.199 305.467Z" fill="#3F3D56"/>
<g id="Group" opacity="0.1">
<path id="Vector_53" opacity="0.1" d="M897.16 299.017C896.64 301.467 894.91 304.247 892.42 303.947C891.65 303.847 890.949 303.457 890.189 303.287C888.099 302.827 886.86 304.787 884.89 304.287C883.911 304.007 883 303.529 882.213 302.884C881.425 302.24 880.778 301.441 880.309 300.537C879.786 299.519 879.47 298.408 879.379 297.267C879.18 299.038 879.504 300.828 880.309 302.417C880.778 303.321 881.425 304.12 882.213 304.764C883 305.409 883.911 305.887 884.89 306.167C886.89 306.627 888.099 304.667 890.189 305.167C890.921 305.422 891.666 305.639 892.42 305.817C894.91 306.127 896.64 303.347 897.16 300.897C897.569 298.733 897.731 296.528 897.64 294.327C897.63 295.902 897.469 297.473 897.16 299.017V299.017Z" fill="black"/>
<path id="Vector_54" opacity="0.1" d="M883.46 283.957C883.587 282.319 883.362 280.672 882.8 279.127C882.347 278.1 881.963 277.045 881.65 275.967C881.607 276.135 881.573 276.306 881.55 276.477C881.38 278.047 882.26 279.477 882.8 281.007C883.149 281.957 883.371 282.949 883.46 283.957V283.957Z" fill="black"/>
<path id="Vector_55" opacity="0.1" d="M959.86 278.688C959.39 281.527 957.09 284.197 956.86 287.188C956.804 287.699 956.804 288.216 956.86 288.727C957.36 285.237 960.45 282.148 959.86 278.688Z" fill="black"/>
<path id="Vector_56" opacity="0.1" d="M960.03 299.787C959.945 300.205 959.748 300.592 959.46 300.907C958.72 301.697 957.46 301.757 956.46 302.147C954.03 303.077 952.46 306.017 949.82 305.987C949.144 305.949 948.495 305.707 947.96 305.293C947.424 304.878 947.027 304.312 946.82 303.667C946.759 303.884 946.712 304.104 946.68 304.327C946.651 304.765 946.71 305.204 946.852 305.619C946.995 306.034 947.218 306.417 947.509 306.745C947.8 307.073 948.153 307.34 948.548 307.531C948.943 307.722 949.372 307.833 949.81 307.857C952.42 307.857 954.02 304.947 956.45 304.027C957.45 303.637 958.67 303.577 959.45 302.787C959.743 302.407 959.951 301.968 960.058 301.5C960.165 301.032 960.169 300.547 960.07 300.077C960.06 299.957 960.04 299.877 960.03 299.787Z" fill="black"/>
<path id="Vector_57" opacity="0.1" d="M947.49 298.957C947.24 297.137 945.04 296.397 943.88 294.957C943.168 294.011 942.783 292.861 942.78 291.677C942.7 293.537 942.73 295.437 943.88 296.837C945.03 298.237 946.78 298.837 947.34 300.277C947.481 299.853 947.532 299.403 947.49 298.957V298.957Z" fill="black"/>
<path id="Vector_58" opacity="0.1" d="M942.84 288.487C942.92 286.237 942.38 283.487 940.27 282.717C939.65 282.487 938.96 282.457 938.35 282.207C936.69 281.507 936.17 279.447 935.07 278.027C932.84 275.177 928.43 275.227 925.07 276.587C923.57 277.197 922.14 278.007 920.58 278.467C919.813 278.738 918.999 278.846 918.188 278.786C917.378 278.726 916.588 278.498 915.87 278.117C915.21 277.697 914.67 277.117 914 276.697C911.73 275.337 908.77 276.697 906.82 278.447C904.87 280.197 903.29 282.537 900.82 283.617C899.7 284.117 898.34 284.417 897.76 285.497C897.505 286.086 897.399 286.728 897.45 287.367C897.45 287.757 897.45 288.147 897.45 288.537C897.463 288.134 897.562 287.739 897.74 287.377C898.32 286.297 899.68 285.997 900.8 285.497C903.22 284.417 904.8 282.117 906.8 280.327C908.8 278.537 911.71 277.217 913.98 278.577C914.65 278.977 915.19 279.577 915.85 279.987C916.567 280.37 917.357 280.599 918.168 280.66C918.979 280.72 919.794 280.61 920.56 280.337C922.088 279.793 923.587 279.169 925.05 278.467C928.4 277.107 932.81 277.047 935.05 279.897C936.15 281.317 936.67 283.377 938.33 284.077C938.94 284.337 939.63 284.367 940.25 284.597C941.96 285.237 942.64 287.157 942.79 289.057L942.84 288.487Z" fill="black"/>
</g>
<g id="Group_2" opacity="0.1">
<path id="Vector_59" opacity="0.1" d="M893.59 298.957C893.647 297.297 894.242 295.701 895.284 294.408C896.326 293.115 897.76 292.195 899.37 291.787C903.829 290.697 908.507 290.909 912.85 292.397C922.34 295.537 911.65 306.837 911.65 306.837C911.65 306.837 904.54 313.837 897.91 308.947C895.952 307.467 894.581 305.341 894.04 302.947C893.715 301.643 893.564 300.301 893.59 298.957V298.957Z" fill="black"/>
<path id="Vector_60" opacity="0.1" d="M945.76 298.957C945.702 297.296 945.106 295.699 944.062 294.405C943.018 293.112 941.582 292.193 939.97 291.787C935.514 290.699 930.839 290.911 926.5 292.397C917.01 295.537 927.7 306.837 927.7 306.837C927.7 306.837 934.8 313.837 941.44 308.947C943.398 307.467 944.769 305.341 945.31 302.947C945.635 301.643 945.786 300.301 945.76 298.957Z" fill="black"/>
<path id="Vector_61" opacity="0.1" d="M911.06 291.477V291.947H928.39V291.387L911.06 291.477Z" fill="black"/>
<path id="Vector_62" opacity="0.1" d="M916.589 296.487H917.139V294.897C917.139 294.897 918.899 293.527 921.819 294.897V296.317H922.819V295.387H922.329C922.329 295.387 922.529 293.457 919.269 293.767C919.269 293.767 916.649 293.517 916.709 295.177H916.109L916.589 296.487Z" fill="black"/>
</g>
<path id="Vector_63" d="M893.59 298.307C893.647 296.647 894.242 295.051 895.284 293.758C896.326 292.465 897.76 291.545 899.37 291.137C903.83 290.054 908.506 290.266 912.85 291.747C922.34 294.897 911.65 306.187 911.65 306.187C911.65 306.187 904.54 313.187 897.91 308.297C895.948 306.821 894.576 304.694 894.04 302.297C893.714 300.993 893.563 299.651 893.59 298.307V298.307Z" fill="#F2A194"/>
<path id="Vector_64" d="M945.76 298.307C945.702 296.646 945.106 295.048 944.062 293.755C943.018 292.462 941.582 291.543 939.97 291.137C935.513 290.054 930.84 290.266 926.5 291.747C917.01 294.897 927.7 306.187 927.7 306.187C927.7 306.187 934.8 313.187 941.44 308.297C943.402 306.82 944.774 304.693 945.31 302.297C945.636 300.993 945.787 299.651 945.76 298.307Z" fill="#F2A194"/>
<path id="Vector_65" d="M911.06 290.847V291.327H928.39V290.757L911.06 290.847Z" fill="#F2A194"/>
<path id="Vector_66" d="M916.589 295.857H917.139V294.267C917.139 294.267 918.899 292.907 921.819 294.267V295.697H922.819V294.757H922.329C922.329 294.757 922.529 292.837 919.269 293.137C919.269 293.137 916.649 292.897 916.709 294.547H916.109L916.589 295.857Z" fill="#F2A194"/>
<path id="Vector_67" d="M123.7 457.187H118.02V585.087H123.7V457.187Z" fill="#535461"/>
<path id="Vector_68" d="M159.399 584.697L159.039 590.457L158.539 598.587L158.329 601.977L157.829 610.117L157.609 613.507L157.109 621.637L151.379 714.107C151.135 718.086 149.382 721.823 146.477 724.554C143.573 727.286 139.736 728.807 135.749 728.807H105.969C101.983 728.807 98.1475 727.285 95.2448 724.554C92.3421 721.822 90.5911 718.086 90.3491 714.107L84.5891 621.637L84.0891 613.507L83.8791 610.117L83.3891 601.957L83.1791 598.567L82.6791 590.437L82.3191 584.677C82.2509 583.571 82.4097 582.464 82.786 581.422C83.1622 580.38 83.7479 579.427 84.5068 578.62C85.2657 577.813 86.1819 577.17 87.1987 576.731C88.2155 576.292 89.3115 576.066 90.4191 576.067H151.309C152.418 576.066 153.515 576.293 154.533 576.733C155.551 577.173 156.468 577.818 157.226 578.627C157.984 579.436 158.569 580.392 158.942 581.437C159.316 582.481 159.472 583.59 159.399 584.697V584.697Z" fill="#3F3D56"/>
<path id="Vector_69" d="M159.04 590.457L158.54 598.587H83.1699L82.6699 590.457H159.04Z" fill="#9D9CB5"/>
<path id="Vector_70" d="M158.33 601.977L157.83 610.117H83.8899L83.3799 601.977H158.33Z" fill="#9D9CB5"/>
<path id="Vector_71" d="M157.61 613.507L157.11 621.637H84.6096L84.0996 613.507H157.61Z" fill="#9D9CB5"/>
<path id="Vector_72" d="M74 505.127C107.08 529.057 120.86 566.497 120.86 566.497C120.86 566.497 80.99 565.127 47.86 541.197C14.73 517.267 1 479.827 1 479.827C1 479.827 40.91 481.197 74 505.127Z" fill="#F2A194"/>
<path id="Vector_73" d="M1.0498 479.827C1.0498 479.827 42.4298 502.827 55.6998 521.827C68.9698 540.827 120.86 566.507 120.86 566.507" stroke="#535461" stroke-width="2" stroke-miterlimit="10"/>
<path id="Vector_74" d="M95.3494 456.957C113.349 469.957 120.859 490.357 120.859 490.357C120.859 490.357 99.1594 489.617 81.1494 476.587C63.1394 463.557 55.6494 443.187 55.6494 443.187C55.6494 443.187 77.3494 443.877 95.3494 456.957Z" fill="#F2A194"/>
<path id="Vector_75" d="M55.6494 443.137C55.6494 443.137 78.1694 455.637 85.3894 465.987C92.6094 476.337 120.859 490.307 120.859 490.307" stroke="#535461" stroke-width="2" stroke-miterlimit="10"/>
<path id="Vector_76" d="M147.03 489.277C126.34 512.007 121.97 541.707 121.97 541.707C121.97 541.707 151.13 534.557 171.81 511.827C192.49 489.097 196.87 459.387 196.87 459.387C196.87 459.387 167.71 466.537 147.03 489.277Z" fill="#F2A194"/>
<path id="Vector_77" d="M196.87 459.387C196.87 459.387 169.93 482.687 163.08 498.747C156.23 514.807 121.97 541.747 121.97 541.747" stroke="#535461" stroke-width="2" stroke-miterlimit="10"/>
</g>
<defs>
<linearGradient id="paint0_linear" x1="591.859" y1="646.077" x2="591.859" y2="107.747" gradientUnits="userSpaceOnUse">
<stop stop-color="#808080" stop-opacity="0.25"/>
<stop offset="0.54" stop-color="#808080" stop-opacity="0.12"/>
<stop offset="1" stop-color="#808080" stop-opacity="0.1"/>
</linearGradient>
<linearGradient id="paint1_linear" x1="184034" y1="483433" x2="184034" y2="163798" gradientUnits="userSpaceOnUse">
<stop stop-color="#808080" stop-opacity="0.25"/>
<stop offset="0.54" stop-color="#808080" stop-opacity="0.12"/>
<stop offset="1" stop-color="#808080" stop-opacity="0.1"/>
</linearGradient>
</defs>
</svg>
