<svg width="957" height="473" viewBox="0 0 957 473" fill="none" xmlns="http://www.w3.org/2000/svg">
<g id="whiteboarding">
<path id="Vector" d="M305.168 319.726L303.916 321.285L411.542 407.723L412.793 406.164L305.168 319.726Z" fill="#3F3D56"/>
<path id="Vector_2" d="M411.542 320.223L303.906 407.686L305.168 409.238L412.804 321.776L411.542 320.223Z" fill="#3F3D56"/>
<path id="Vector_3" d="M575.595 94.2549L574.327 95.8018L818.934 296.241L820.202 294.694L575.595 94.2549Z" fill="#3F3D56"/>
<path id="Vector_4" d="M818.9 94.218L574.356 295.734L575.628 297.278L820.172 95.7613L818.9 94.218Z" fill="#3F3D56"/>
<path id="Vector_5" d="M892.5 0H7.5C5.5111 0.000718268 3.60386 0.791112 2.19749 2.19748C0.791127 3.60385 0.000718268 5.5111 0 7.5V464.5C0.000720917 466.489 0.791128 468.396 2.19749 469.802C3.60386 471.209 5.5111 471.999 7.5 472H892.5C893.674 471.995 894.831 471.716 895.878 471.185C896.925 470.654 897.833 469.885 898.53 468.94C898.931 468.418 899.251 467.838 899.48 467.22C899.827 466.355 900.003 465.432 900 464.5V7.5C899.999 5.5111 899.209 3.60386 897.802 2.19749C896.396 0.791128 894.489 0.000720917 892.5 0V0ZM897 464.5C896.998 465.693 896.524 466.836 895.68 467.68C894.836 468.524 893.693 468.998 892.5 469H7.5C6.30708 468.998 5.16353 468.524 4.32001 467.68C3.47648 466.836 3.0018 465.693 3 464.5V7.5C3.00179 6.30708 3.47647 5.16352 4.32 4.31999C5.16353 3.47647 6.30708 3.00179 7.5 3H892.5C893.693 3.00179 894.836 3.47647 895.68 4.31999C896.524 5.16352 896.998 6.30708 897 7.5V464.5Z" fill="#3F3D56"/>
<path id="Vector_6" d="M900 38.3301H3V40.3301H900V38.3301Z" fill="#3F3D56"/>
<path id="Vector_7" d="M929.942 411.45C929.4 431.718 926.005 451.809 919.857 471.129C919.717 471.578 919.57 472.019 919.422 472.468H881.787C881.827 472.066 881.867 471.618 881.907 471.129C884.417 442.28 898.885 266.696 881.586 236.669C883.098 239.105 932.86 319.783 929.942 411.45Z" fill="#E7D0CD"/>
<path id="Vector_8" d="M927.119 471.13C926.804 471.578 926.476 472.026 926.142 472.468H897.908C898.122 472.087 898.37 471.638 898.658 471.13C903.322 462.711 917.128 437.543 929.943 411.451C943.715 383.411 956.349 354.308 955.285 343.774C955.613 346.15 965.143 418.571 927.119 471.13Z" fill="#E7D0CD"/>
<path id="Vector_9" d="M545.58 184.468H307.58C305.724 184.466 303.945 183.728 302.633 182.415C301.32 181.103 300.582 179.324 300.58 177.468V98.4678C300.582 96.6119 301.32 94.8326 302.633 93.5203C303.945 92.208 305.724 91.4699 307.58 91.4678H545.58C547.436 91.4699 549.215 92.208 550.528 93.5203C551.84 94.8326 552.578 96.6119 552.58 98.4678V177.468C552.578 179.324 551.84 181.103 550.528 182.415C549.215 183.728 547.436 184.466 545.58 184.468V184.468ZM307.58 93.4678C306.254 93.4693 304.984 93.9966 304.046 94.934C303.109 95.8713 302.582 97.1422 302.58 98.4678V177.468C302.582 178.793 303.109 180.064 304.046 181.002C304.984 181.939 306.254 182.466 307.58 182.468H545.58C546.906 182.466 548.177 181.939 549.114 181.002C550.051 180.064 550.579 178.793 550.58 177.468V98.4678C550.579 97.1422 550.051 95.8713 549.114 94.934C548.177 93.9966 546.906 93.4693 545.58 93.4678H307.58Z" fill="#3F3D56"/>
<path id="Vector_10" d="M817.58 411.468H579.58C577.724 411.466 575.945 410.727 574.633 409.415C573.32 408.103 572.582 406.324 572.58 404.468V325.468C572.582 323.612 573.32 321.833 574.633 320.52C575.945 319.208 577.724 318.47 579.58 318.468H817.58C819.436 318.47 821.215 319.208 822.527 320.521C823.84 321.833 824.578 323.612 824.58 325.468V404.468C824.578 406.324 823.84 408.103 822.527 409.415C821.215 410.727 819.436 411.466 817.58 411.468V411.468Z" fill="#E7D0CD"/>
<path id="Vector_11" d="M408.58 297.468H307.58C305.724 297.466 303.945 296.727 302.633 295.415C301.32 294.103 300.582 292.324 300.58 290.468V211.468C300.582 209.612 301.32 207.833 302.633 206.52C303.945 205.208 305.724 204.47 307.58 204.468H408.58C410.436 204.47 412.215 205.208 413.528 206.52C414.84 207.833 415.578 209.612 415.58 211.468V290.468C415.578 292.324 414.84 294.103 413.527 295.415C412.215 296.727 410.436 297.466 408.58 297.468V297.468ZM307.58 206.468C306.254 206.469 304.984 206.997 304.046 207.934C303.109 208.871 302.582 210.142 302.58 211.468V290.468C302.582 291.793 303.109 293.064 304.046 294.002C304.984 294.939 306.254 295.466 307.58 295.468H408.58C409.906 295.466 411.177 294.939 412.114 294.002C413.051 293.064 413.579 291.793 413.58 290.468V211.468C413.579 210.142 413.051 208.871 412.114 207.934C411.177 206.997 409.906 206.469 408.58 206.468H307.58Z" fill="#3F3D56"/>
<path id="Vector_12" d="M545.58 297.468H444.58C442.724 297.466 440.945 296.727 439.633 295.415C438.32 294.103 437.582 292.324 437.58 290.468V211.468C437.582 209.612 438.32 207.833 439.633 206.52C440.945 205.208 442.724 204.47 444.58 204.468H545.58C547.436 204.47 549.215 205.208 550.528 206.52C551.84 207.833 552.578 209.612 552.58 211.468V290.468C552.578 292.324 551.84 294.103 550.527 295.415C549.215 296.727 547.436 297.466 545.58 297.468V297.468Z" fill="#E7D0CD"/>
<path id="Vector_13" d="M408.58 410.468H307.58C305.724 410.466 303.945 409.727 302.633 408.415C301.32 407.103 300.582 405.324 300.58 403.468V324.468C300.582 322.612 301.32 320.833 302.633 319.52C303.945 318.208 305.724 317.47 307.58 317.468H408.58C410.436 317.47 412.215 318.208 413.527 319.52C414.84 320.833 415.578 322.612 415.58 324.468V403.468C415.578 405.324 414.84 407.103 413.527 408.415C412.215 409.727 410.436 410.466 408.58 410.468V410.468ZM307.58 319.468C306.254 319.469 304.984 319.997 304.046 320.934C303.109 321.871 302.582 323.142 302.58 324.468V403.468C302.582 404.793 303.109 406.064 304.046 407.002C304.984 407.939 306.254 408.466 307.58 408.468H408.58C409.906 408.466 411.177 407.939 412.114 407.002C413.051 406.064 413.579 404.793 413.58 403.468V324.468C413.579 323.142 413.051 321.871 412.114 320.934C411.177 319.997 409.906 319.469 408.58 319.468H307.58Z" fill="#3F3D56"/>
<path id="Vector_14" d="M545.58 410.468H444.58C442.724 410.466 440.945 409.727 439.633 408.415C438.32 407.103 437.582 405.324 437.58 403.468V324.468C437.582 322.612 438.32 320.833 439.633 319.52C440.945 318.208 442.724 317.47 444.58 317.468H545.58C547.436 317.47 549.215 318.208 550.527 319.52C551.84 320.833 552.578 322.612 552.58 324.468V403.468C552.578 405.324 551.84 407.103 550.527 408.415C549.215 409.727 547.436 410.466 545.58 410.468V410.468ZM444.58 319.468C443.254 319.469 441.984 319.997 441.046 320.934C440.109 321.871 439.582 323.142 439.58 324.468V403.468C439.582 404.793 440.109 406.064 441.046 407.002C441.984 407.939 443.254 408.466 444.58 408.468H545.58C546.906 408.466 548.177 407.939 549.114 407.002C550.051 406.064 550.579 404.793 550.58 403.468V324.468C550.579 323.142 550.051 321.871 549.114 320.934C548.177 319.997 546.906 319.469 545.58 319.468H444.58Z" fill="#3F3D56"/>
<path id="Vector_15" d="M816.58 298.468H578.58C576.724 298.466 574.945 297.727 573.633 296.415C572.32 295.103 571.582 293.324 571.58 291.468V98.4678C571.582 96.6119 572.32 94.8326 573.633 93.5203C574.945 92.208 576.724 91.4699 578.58 91.4678H816.58C818.436 91.4699 820.215 92.2081 821.527 93.5204C822.84 94.8327 823.578 96.6119 823.58 98.4678V291.468C823.578 293.324 822.84 295.103 821.527 296.415C820.215 297.727 818.436 298.466 816.58 298.468V298.468ZM578.58 93.4678C577.254 93.4693 575.984 93.9966 575.046 94.934C574.109 95.8713 573.582 97.1422 573.58 98.4678V291.468C573.582 292.793 574.109 294.064 575.046 295.002C575.984 295.939 577.254 296.466 578.58 296.468H816.58C817.906 296.466 819.177 295.939 820.114 295.002C821.051 294.064 821.579 292.793 821.58 291.468V98.4678C821.579 97.1422 821.051 95.8713 820.114 94.934C819.177 93.9966 817.906 93.4693 816.58 93.4678H578.58Z" fill="#3F3D56"/>
<path id="Vector_16" d="M855.58 333.468H617.58C615.724 333.466 613.945 332.727 612.633 331.415C611.321 330.103 610.582 328.324 610.58 326.468V133.468C610.582 131.612 611.32 129.833 612.633 128.52C613.945 127.208 615.724 126.47 617.58 126.468H855.58C857.436 126.47 859.215 127.208 860.527 128.52C861.84 129.833 862.578 131.612 862.58 133.468V326.468C862.578 328.324 861.84 330.103 860.527 331.415C859.215 332.727 857.436 333.466 855.58 333.468V333.468Z" fill="#F2A194"/>
<path id="Vector_17" d="M763.733 285.968H642.228C642.075 285.97 641.923 285.958 641.773 285.932L699.24 186.392C699.591 185.772 700.1 185.256 700.715 184.898C701.33 184.539 702.03 184.35 702.742 184.35C703.454 184.35 704.154 184.539 704.769 184.898C705.384 185.256 705.893 185.772 706.244 186.392L744.811 253.191L746.659 256.388L763.733 285.968Z" fill="white"/>
<path id="Vector_18" opacity="0.2" d="M763.733 285.968H722.248L742.613 256.387L744.079 254.256L744.812 253.191L746.66 256.387L763.733 285.968Z" fill="black"/>
<path id="Vector_19" d="M831.387 285.968H726.295L746.66 256.387L748.125 254.256L774.662 215.707C775.132 215.118 775.72 214.635 776.388 214.288C777.056 213.941 777.79 213.738 778.542 213.693C779.293 213.648 780.046 213.762 780.751 214.027C781.456 214.292 782.097 214.702 782.633 215.231C782.77 215.381 782.898 215.54 783.015 215.707L831.387 285.968Z" fill="white"/>
<path id="Vector_20" d="M752.18 209.968C762.121 209.968 770.18 201.909 770.18 191.968C770.18 182.027 762.121 173.968 752.18 173.968C742.239 173.968 734.18 182.027 734.18 191.968C734.18 201.909 742.239 209.968 752.18 209.968Z" fill="white"/>
<path id="Vector_21" d="M645.58 140.468H623.58V162.468H645.58V140.468Z" fill="#3F3D56"/>
<path id="Vector_22" d="M436.58 432.468H335.58C333.724 432.466 331.945 431.727 330.633 430.415C329.32 429.103 328.582 427.324 328.58 425.468V346.468C328.582 344.612 329.32 342.833 330.633 341.52C331.945 340.208 333.724 339.47 335.58 339.468H436.58C438.436 339.47 440.215 340.208 441.527 341.52C442.84 342.833 443.578 344.612 443.58 346.468V425.468C443.578 427.324 442.84 429.103 441.527 430.415C440.215 431.727 438.436 432.466 436.58 432.468Z" fill="#F2A194"/>
<path id="Vector_23" d="M397.411 409.338H346.706C346.643 409.338 346.579 409.333 346.517 409.323L370.498 367.784C370.644 367.525 370.857 367.31 371.113 367.16C371.37 367.011 371.662 366.932 371.959 366.932C372.256 366.932 372.548 367.011 372.805 367.16C373.062 367.31 373.274 367.525 373.421 367.784L389.515 395.66L390.286 396.993L397.411 409.338Z" fill="white"/>
<path id="Vector_24" opacity="0.2" d="M397.411 409.337H380.1L388.598 396.993L389.21 396.104L389.515 395.659L390.286 396.993L397.411 409.337Z" fill="black"/>
<path id="Vector_25" d="M425.644 409.337H381.788L390.286 396.992L390.898 396.103L401.972 380.016C402.168 379.771 402.413 379.569 402.692 379.424C402.971 379.279 403.277 379.195 403.591 379.176C403.905 379.157 404.219 379.205 404.513 379.315C404.807 379.426 405.075 379.597 405.298 379.817C405.356 379.88 405.409 379.947 405.458 380.016L425.644 409.337Z" fill="white"/>
<path id="Vector_26" d="M392.59 377.622C396.738 377.622 400.101 374.259 400.101 370.11C400.101 365.962 396.738 362.599 392.59 362.599C388.441 362.599 385.078 365.962 385.078 370.11C385.078 374.259 388.441 377.622 392.59 377.622Z" fill="white"/>
<path id="Vector_27" d="M354.58 347.468H338.58V363.468H354.58V347.468Z" fill="#3F3D56"/>
<path id="Path 40" d="M100.198 142.853C98.6383 142.879 97.1512 143.517 96.0574 144.63C94.9636 145.742 94.3506 147.239 94.3506 148.799C94.3506 150.359 94.9636 151.857 96.0574 152.969C97.1512 154.081 98.6383 154.719 100.198 154.745H207.284C208.858 154.766 210.376 154.162 211.505 153.066C212.634 151.97 213.283 150.47 213.309 148.897C213.335 147.323 212.736 145.803 211.643 144.67C210.55 143.537 209.053 142.884 207.479 142.853C207.414 142.852 207.349 142.852 207.284 142.853H100.198Z" fill="#E7D0CD"/>
<path id="Path 40_2" d="M100.198 173.853C98.6383 173.879 97.1512 174.517 96.0574 175.63C94.9636 176.742 94.3506 178.239 94.3506 179.799C94.3506 181.359 94.9636 182.857 96.0574 183.969C97.1512 185.081 98.6383 185.719 100.198 185.745H207.284C208.858 185.766 210.376 185.162 211.505 184.066C212.634 182.97 213.283 181.47 213.309 179.897C213.335 178.323 212.736 176.803 211.643 175.67C210.55 174.537 209.053 173.884 207.479 173.853C207.414 173.852 207.349 173.852 207.284 173.853H100.198Z" fill="#E7D0CD"/>
<path id="Path 40_3" d="M100.198 204.853C98.6383 204.879 97.1512 205.517 96.0574 206.63C94.9636 207.742 94.3506 209.239 94.3506 210.799C94.3506 212.359 94.9636 213.857 96.0574 214.969C97.1512 216.081 98.6383 216.719 100.198 216.745H207.284C208.858 216.766 210.376 216.162 211.505 215.066C212.634 213.97 213.283 212.47 213.309 210.897C213.335 209.323 212.736 207.803 211.643 206.67C210.55 205.537 209.053 204.884 207.479 204.853C207.414 204.852 207.349 204.852 207.284 204.853H100.198Z" fill="#E7D0CD"/>
<path id="Path 40_4" d="M100.198 235.853C98.6383 235.879 97.1512 236.517 96.0574 237.63C94.9636 238.742 94.3506 240.239 94.3506 241.799C94.3506 243.359 94.9636 244.857 96.0574 245.969C97.1512 247.081 98.6383 247.719 100.198 247.745H207.284C208.858 247.766 210.376 247.162 211.505 246.066C212.634 244.97 213.283 243.47 213.309 241.897C213.335 240.323 212.736 238.803 211.643 237.67C210.55 236.537 209.053 235.884 207.479 235.853C207.414 235.852 207.349 235.852 207.284 235.853H100.198Z" fill="#E7D0CD"/>
<path id="Path 40_5" d="M100.198 266.853C98.6383 266.879 97.1512 267.517 96.0574 268.63C94.9636 269.742 94.3506 271.239 94.3506 272.799C94.3506 274.359 94.9636 275.857 96.0574 276.969C97.1512 278.081 98.6383 278.719 100.198 278.745H207.284C208.858 278.766 210.376 278.162 211.505 277.066C212.634 275.97 213.283 274.47 213.309 272.897C213.335 271.323 212.736 269.803 211.643 268.67C210.55 267.537 209.053 266.884 207.479 266.853C207.414 266.852 207.349 266.852 207.284 266.853H100.198Z" fill="#E7D0CD"/>
<path id="Path 40_6" d="M100.198 297.853C98.6383 297.879 97.1512 298.517 96.0574 299.63C94.9636 300.742 94.3506 302.239 94.3506 303.799C94.3506 305.359 94.9636 306.857 96.0574 307.969C97.1512 309.081 98.6383 309.719 100.198 309.745H207.284C208.858 309.766 210.376 309.162 211.505 308.066C212.634 306.97 213.283 305.47 213.309 303.897C213.335 302.323 212.736 300.803 211.643 299.67C210.55 298.537 209.053 297.884 207.479 297.853C207.414 297.852 207.349 297.852 207.284 297.853H100.198Z" fill="#E7D0CD"/>
<path id="Vector_28" d="M61.9268 159.83C59.7512 159.83 57.6244 159.185 55.8155 157.976C54.0066 156.768 52.5967 155.05 51.7641 153.04C50.9315 151.03 50.7137 148.818 51.1381 146.684C51.5626 144.55 52.6102 142.59 54.1486 141.052C55.687 139.514 57.647 138.466 59.7808 138.041C61.9146 137.617 64.1263 137.835 66.1363 138.667C68.1463 139.5 69.8642 140.91 71.0729 142.719C72.2816 144.528 72.9268 146.655 72.9268 148.83C72.9235 151.746 71.7635 154.542 69.7013 156.605C67.6391 158.667 64.8431 159.827 61.9268 159.83V159.83ZM61.9268 139.83C60.1467 139.83 58.4067 140.358 56.9266 141.347C55.4466 142.336 54.293 143.741 53.6118 145.386C52.9307 147.03 52.7524 148.84 53.0997 150.586C53.447 152.332 54.3041 153.935 55.5628 155.194C56.8215 156.453 58.4251 157.31 60.1709 157.657C61.9168 158.004 63.7264 157.826 65.3709 157.145C67.0154 156.464 68.4211 155.31 69.41 153.83C70.3989 152.35 70.9268 150.61 70.9268 148.83C70.9241 146.444 69.975 144.156 68.2878 142.469C66.6005 140.782 64.3129 139.833 61.9268 139.83Z" fill="#F2A194"/>
<path id="Vector_29" d="M61.9268 190.83C59.7512 190.83 57.6244 190.185 55.8155 188.976C54.0066 187.768 52.5967 186.05 51.7641 184.04C50.9315 182.03 50.7137 179.818 51.1381 177.684C51.5626 175.55 52.6102 173.59 54.1486 172.052C55.687 170.514 57.647 169.466 59.7808 169.041C61.9146 168.617 64.1263 168.835 66.1363 169.667C68.1463 170.5 69.8642 171.91 71.0729 173.719C72.2816 175.528 72.9268 177.655 72.9268 179.83C72.9235 182.746 71.7635 185.542 69.7013 187.605C67.6391 189.667 64.8431 190.827 61.9268 190.83V190.83ZM61.9268 170.83C60.1467 170.83 58.4067 171.358 56.9266 172.347C55.4466 173.336 54.293 174.741 53.6118 176.386C52.9307 178.03 52.7524 179.84 53.0997 181.586C53.447 183.332 54.3041 184.935 55.5628 186.194C56.8215 187.453 58.4251 188.31 60.1709 188.657C61.9168 189.004 63.7264 188.826 65.3709 188.145C67.0154 187.464 68.4211 186.31 69.41 184.83C70.3989 183.35 70.9268 181.61 70.9268 179.83C70.9241 177.444 69.975 175.156 68.2878 173.469C66.6005 171.782 64.3129 170.833 61.9268 170.83Z" fill="#F2A194"/>
<path id="Vector_30" d="M61.9268 221.799C59.7512 221.799 57.6244 221.154 55.8155 219.945C54.0066 218.736 52.5967 217.018 51.7641 215.008C50.9315 212.998 50.7137 210.787 51.1381 208.653C51.5626 206.519 52.6102 204.559 54.1486 203.021C55.687 201.482 57.647 200.435 59.7808 200.01C61.9146 199.586 64.1263 199.804 66.1363 200.636C68.1463 201.469 69.8642 202.879 71.0729 204.688C72.2816 206.497 72.9268 208.623 72.9268 210.799C72.9235 213.715 71.7635 216.511 69.7013 218.573C67.6391 220.636 64.8431 221.796 61.9268 221.799V221.799ZM61.9268 201.799C60.1467 201.799 58.4067 202.327 56.9266 203.316C55.4466 204.305 54.293 205.71 53.6118 207.355C52.9307 208.999 52.7524 210.809 53.0997 212.555C53.447 214.3 54.3041 215.904 55.5628 217.163C56.8215 218.421 58.4251 219.279 60.1709 219.626C61.9168 219.973 63.7264 219.795 65.3709 219.114C67.0154 218.433 68.4211 217.279 69.41 215.799C70.3989 214.319 70.9268 212.579 70.9268 210.799C70.9241 208.413 69.975 206.125 68.2878 204.438C66.6005 202.751 64.3129 201.802 61.9268 201.799Z" fill="#F2A194"/>
<path id="Vector_31" d="M61.9268 252.799C59.7512 252.799 57.6244 252.154 55.8155 250.945C54.0066 249.736 52.5967 248.018 51.7641 246.008C50.9315 243.998 50.7137 241.787 51.1381 239.653C51.5626 237.519 52.6102 235.559 54.1486 234.021C55.687 232.482 57.647 231.435 59.7808 231.01C61.9146 230.586 64.1263 230.804 66.1363 231.636C68.1463 232.469 69.8642 233.879 71.0729 235.688C72.2816 237.497 72.9268 239.623 72.9268 241.799C72.9235 244.715 71.7635 247.511 69.7013 249.573C67.6391 251.636 64.8431 252.796 61.9268 252.799V252.799ZM61.9268 232.799C60.1467 232.799 58.4067 233.327 56.9266 234.316C55.4466 235.305 54.293 236.71 53.6118 238.355C52.9307 239.999 52.7524 241.809 53.0997 243.555C53.447 245.3 54.3041 246.904 55.5628 248.163C56.8215 249.421 58.4251 250.279 60.1709 250.626C61.9168 250.973 63.7264 250.795 65.3709 250.114C67.0154 249.433 68.4211 248.279 69.41 246.799C70.3989 245.319 70.9268 243.579 70.9268 241.799C70.9241 239.413 69.975 237.125 68.2878 235.438C66.6005 233.751 64.3129 232.802 61.9268 232.799Z" fill="#F2A194"/>
<path id="Vector_32" d="M61.9268 283.8C59.7512 283.8 57.6244 283.155 55.8155 281.946C54.0066 280.737 52.5967 279.019 51.7641 277.009C50.9315 274.999 50.7137 272.788 51.1381 270.654C51.5626 268.52 52.6102 266.56 54.1486 265.022C55.687 263.483 57.647 262.436 59.7808 262.011C61.9146 261.587 64.1263 261.805 66.1363 262.637C68.1463 263.47 69.8642 264.88 71.0729 266.689C72.2816 268.497 72.9268 270.624 72.9268 272.8C72.9235 275.716 71.7635 278.512 69.7013 280.574C67.6391 282.637 64.8431 283.797 61.9268 283.8V283.8ZM61.9268 263.8C60.1467 263.8 58.4067 264.328 56.9266 265.317C55.4466 266.306 54.293 267.711 53.6118 269.356C52.9307 271 52.7524 272.81 53.0997 274.556C53.447 276.301 54.3041 277.905 55.5628 279.164C56.8215 280.422 58.4251 281.28 60.1709 281.627C61.9168 281.974 63.7264 281.796 65.3709 281.115C67.0154 280.434 68.4211 279.28 69.41 277.8C70.3989 276.32 70.9268 274.58 70.9268 272.8C70.9241 270.414 69.975 268.126 68.2878 266.439C66.6005 264.752 64.3129 263.803 61.9268 263.8Z" fill="#F2A194"/>
<path id="Vector_33" d="M61.9268 314.8C59.7512 314.8 57.6244 314.155 55.8155 312.946C54.0066 311.737 52.5967 310.019 51.7641 308.009C50.9315 305.999 50.7137 303.788 51.1381 301.654C51.5626 299.52 52.6102 297.56 54.1486 296.022C55.687 294.483 57.647 293.436 59.7808 293.011C61.9146 292.587 64.1263 292.805 66.1363 293.637C68.1463 294.47 69.8642 295.88 71.0729 297.689C72.2816 299.497 72.9268 301.624 72.9268 303.8C72.9235 306.716 71.7635 309.512 69.7013 311.574C67.6391 313.637 64.8431 314.797 61.9268 314.8ZM61.9268 294.8C60.1467 294.8 58.4067 295.328 56.9266 296.317C55.4466 297.306 54.293 298.711 53.6118 300.356C52.9307 302 52.7524 303.81 53.0997 305.556C53.447 307.301 54.3041 308.905 55.5628 310.164C56.8215 311.422 58.4251 312.28 60.1709 312.627C61.9168 312.974 63.7264 312.796 65.3709 312.115C67.0154 311.434 68.4211 310.28 69.41 308.8C70.3989 307.32 70.9268 305.58 70.9268 303.8C70.9241 301.414 69.975 299.126 68.2878 297.439C66.6005 295.752 64.3129 294.803 61.9268 294.8V294.8Z" fill="#F2A194"/>
<path id="Vector_34" d="M61.9268 153.831C64.6882 153.831 66.9268 151.592 66.9268 148.831C66.9268 146.07 64.6882 143.831 61.9268 143.831C59.1653 143.831 56.9268 146.07 56.9268 148.831C56.9268 151.592 59.1653 153.831 61.9268 153.831Z" fill="#3F3D56"/>
<path id="Vector_35" d="M61.9268 215.831C64.6882 215.831 66.9268 213.592 66.9268 210.831C66.9268 208.07 64.6882 205.831 61.9268 205.831C59.1653 205.831 56.9268 208.07 56.9268 210.831C56.9268 213.592 59.1653 215.831 61.9268 215.831Z" fill="#3F3D56"/>
<path id="Vector_36" d="M61.9268 246.831C64.6882 246.831 66.9268 244.592 66.9268 241.831C66.9268 239.07 64.6882 236.831 61.9268 236.831C59.1653 236.831 56.9268 239.07 56.9268 241.831C56.9268 244.592 59.1653 246.831 61.9268 246.831Z" fill="#3F3D56"/>
<path id="Vector_37" d="M507.568 266.575L509.188 278.729C509.352 279.959 509.783 281.138 510.449 282.184C511.116 283.231 512.003 284.119 513.048 284.788C514.093 285.456 515.271 285.889 516.501 286.055C517.73 286.221 518.981 286.117 520.167 285.751V285.751C521.442 285.356 522.607 284.667 523.568 283.74C524.529 282.812 525.259 281.673 525.699 280.412C526.139 279.151 526.276 277.805 526.101 276.481C525.926 275.157 525.442 273.893 524.689 272.79L517.417 262.142L503.136 224.222L517.91 205.016L500.673 197.629L486.392 222.745L507.568 266.575Z" fill="#FFB8B8"/>
<path id="Vector_38" d="M496.733 198.614L521.357 207.971L527.369 191.272C528.167 189.054 528.156 186.626 527.337 184.416C526.518 182.206 524.944 180.357 522.894 179.195V179.195C520.82 178.02 518.394 177.625 516.054 178.082C513.714 178.538 511.614 179.817 510.135 181.686L496.733 198.614Z" fill="#6C63FF"/>
<path id="Vector_39" d="M479.497 432.044L511.753 432.83L530.714 308.926C548.702 341.69 562.968 385.354 575.528 434.013L603.599 427.611C595.778 375.828 581.445 329.155 559.769 288.243L560.754 260.172L515.94 253.277C514.671 253.87 513.466 254.593 512.345 255.433C487.023 274.29 483.745 359.205 479.497 432.044Z" fill="#2F2E41"/>
<path id="Vector_40" d="M582.916 472.426L593.697 471.078L592.273 458.144C596.646 466.943 602.233 470.785 608.946 470.021C610.527 469.811 612.015 469.156 613.238 468.132C614.46 467.107 615.367 465.757 615.85 464.237C615.946 463.951 616.026 463.66 616.091 463.365C616.314 462.13 616.091 460.856 615.462 459.771C614.833 458.685 613.838 457.858 612.655 457.438C604.602 454.229 602.403 439.625 600.645 424.164L587.348 426.626L587.841 437.953C580.258 448.934 580.038 459.922 582.916 472.426Z" fill="#2F2E41"/>
<path id="Vector_41" d="M486.392 472.426L497.173 471.078L495.748 458.144C500.122 466.943 505.708 470.785 512.422 470.021C514.002 469.811 515.491 469.156 516.714 468.132C517.936 467.107 518.842 465.757 519.326 464.237C519.421 463.951 519.502 463.66 519.566 463.365C519.79 462.13 519.567 460.856 518.938 459.771C518.308 458.685 517.314 457.858 516.131 457.438C508.078 454.229 505.879 439.625 504.12 424.164L490.824 426.626L491.316 437.953C483.734 448.934 483.514 459.922 486.392 472.426Z" fill="#2F2E41"/>
<path id="Vector_42" d="M545.795 174.631C555.442 174.631 563.262 166.81 563.262 157.163C563.262 147.516 555.442 139.695 545.795 139.695C536.148 139.695 528.327 147.516 528.327 157.163C528.327 166.81 536.148 174.631 545.795 174.631Z" fill="#FFB8B8"/>
<path id="Vector_43" d="M511.508 190.735L534.654 186.795L546.473 167.096L529.729 156.262C526.454 167.593 519.991 179.106 511.508 190.735Z" fill="#FFB8B8"/>
<path id="Vector_44" d="M513.604 254.983L560.262 266.082C563.856 236.875 562.64 211.326 554.102 191.343C552.786 188.303 550.793 185.604 548.277 183.45C545.76 181.296 542.785 179.745 539.578 178.915V178.915L519.88 177.93C515.472 180.062 511.873 183.564 509.621 187.911C507.368 192.259 506.583 197.218 507.383 202.049C514.859 221.757 520.003 240.575 513.604 254.983Z" fill="#6C63FF"/>
<path id="Vector_45" d="M598.804 246.7L609.691 252.339C610.793 252.91 612.006 253.233 613.246 253.287C614.485 253.341 615.721 253.124 616.868 252.65C618.015 252.177 619.045 251.459 619.886 250.547C620.727 249.635 621.359 248.551 621.738 247.369V247.369C622.146 246.098 622.25 244.748 622.041 243.429C621.832 242.11 621.316 240.859 620.535 239.776C619.754 238.693 618.73 237.808 617.545 237.193C616.36 236.578 615.046 236.249 613.711 236.234L600.818 236.089L561.56 226.053L554.292 202.938L538.358 212.826L550.751 238.926L598.804 246.7Z" fill="#FFB8B8"/>
<path id="Vector_46" d="M536.907 216.619L558.689 201.807L548.453 187.309C547.093 185.383 545.097 184.001 542.817 183.405C540.537 182.809 538.12 183.038 535.992 184.052C533.84 185.078 532.126 186.839 531.159 189.019C530.192 191.198 530.036 193.651 530.719 195.935L536.907 216.619Z" fill="#6C63FF"/>
<path id="Vector_47" d="M541.794 157C548.493 156.048 554.199 154.323 560.897 153.371C562.549 153.136 564.445 152.736 565.213 151.255C565.921 149.89 565.323 148.225 564.583 146.877C562.67 143.39 559.863 140.477 556.449 138.436C553.036 136.396 549.14 135.302 545.163 135.268C541.186 135.235 537.273 136.262 533.825 138.244C530.377 140.226 527.52 143.091 525.548 146.545C523.782 149.64 522.743 153.172 520.501 155.943C519.002 157.615 517.337 159.132 515.533 160.47C501.992 171.71 493.309 187.739 491.289 205.221C490.832 208.408 490.916 211.65 491.537 214.81C492.178 217.993 493.952 220.834 496.53 222.807C500.411 225.555 505.796 225.325 510.165 223.447C518.533 219.851 523.756 211.024 525.271 202.043C526.785 193.061 525.146 183.864 523.119 174.985C522.379 171.744 521.59 168.333 522.538 165.147C523.856 160.721 529.967 167.767 533.915 165.372C535.562 164.373 535.5 153.511 537.42 153.671C539.339 153.83 541.19 155.82 540.444 157.596L541.794 157Z" fill="#2F2E41"/>
<path id="Vector_48" d="M523.95 165.05C524.447 164.737 524.799 164.238 524.929 163.665C525.059 163.092 524.955 162.491 524.642 161.994L521.82 157.522C521.506 157.025 521.008 156.673 520.435 156.543C519.861 156.413 519.26 156.517 518.763 156.83C518.266 157.144 517.914 157.642 517.784 158.216C517.654 158.789 517.758 159.39 518.072 159.887L520.894 164.359C521.208 164.856 521.706 165.207 522.279 165.337C522.852 165.467 523.454 165.363 523.951 165.05H523.95Z" fill="#6C63FF"/>
<path id="Vector_49" d="M27.79 30.2344C32.4845 30.2344 36.29 26.4288 36.29 21.7344C36.29 17.04 32.4845 13.2344 27.79 13.2344C23.0956 13.2344 19.29 17.04 19.29 21.7344C19.29 26.4288 23.0956 30.2344 27.79 30.2344Z" fill="#3F3D56"/>
<path id="Vector_50" d="M52.4404 30.2344C57.1348 30.2344 60.9404 26.4288 60.9404 21.7344C60.9404 17.04 57.1348 13.2344 52.4404 13.2344C47.746 13.2344 43.9404 17.04 43.9404 21.7344C43.9404 26.4288 47.746 30.2344 52.4404 30.2344Z" fill="#3F3D56"/>
<path id="Vector_51" d="M77.0898 30.2344C81.7843 30.2344 85.5898 26.4288 85.5898 21.7344C85.5898 17.04 81.7843 13.2344 77.0898 13.2344C72.3954 13.2344 68.5898 17.04 68.5898 21.7344C68.5898 26.4288 72.3954 30.2344 77.0898 30.2344Z" fill="#3F3D56"/>
</g>
</svg>
